<?xml version="1.0" encoding="UTF-8"?>
<!DOCTYPE svg PUBLIC "-//W3C//DTD SVG 1.1//EN" "http://www.w3.org/Graphics/SVG/1.1/DTD/svg11.dtd">
<!-- Creator: CorelDRAW 2019 (64-Bit) -->
<svg xmlns="http://www.w3.org/2000/svg" xml:space="preserve" width="63.5mm" height="63.5mm" version="1.1" style="shape-rendering:geometricPrecision; text-rendering:geometricPrecision; image-rendering:optimizeQuality; fill-rule:evenodd; clip-rule:evenodd"
viewBox="0 0 330.74 330.74"
 xmlns:xlink="http://www.w3.org/1999/xlink"
 xmlns:xodm="http://www.corel.com/coreldraw/odm/2003">
 <defs>
  <style type="text/css">
   <![CDATA[
    .fil0 {fill:#563D7C}
    .fil2 {fill:#8674A1}
    .fil1 {fill:#FEFEFE}
   ]]>
  </style>
 </defs>
 <g id="Capa_x0020_1">
  <metadata id="CorelCorpID_0Corel-Layer"/>
  <g id="_1074464480">
   <path class="fil0" d="M-0 49.61l0 231.52c0,23.18 26.43,49.61 49.61,49.61l231.52 0c23.18,0 49.61,-26.43 49.61,-49.61l0 -231.52c0,-23.18 -26.43,-49.61 -49.61,-49.61l-231.52 0c-23.18,0 -49.61,26.43 -49.61,49.61z"/>
   <path class="fil1" d="M89.85 264.83c59.09,0 170.19,16.54 158.97,-63.71 -3.94,-28.2 -18.48,-32.76 -34.9,-40.2 13.37,-10.78 25.38,-13.47 26.77,-37.79 3.83,-66.83 -83.56,-51.26 -150.59,-51.26l-0.25 192.95z"/>
   <path class="fil0" d="M124.95 237.24c19.6,0.01 67.48,4.16 80.21,-6.36 16.31,-13.48 13.1,-53.59 -14.07,-52.03 -20.03,0.66 -45.03,-0.62 -66.15,-0.62l0 59.01z"/>
   <path class="fil0" d="M123.63 152.1c13.66,1.68 40.34,1.1 54.71,0.53 17.13,-0.68 28.17,-9.18 28.69,-25.99 0.61,-19.56 -8.56,-25.74 -26.91,-26.98 -14.27,-0.97 -42.44,-1.25 -56.36,0.23l-0.13 52.22z"/>
   <path class="fil2" d="M124.95 237.24l0 -59.01c21.12,0 46.12,1.28 66.15,0.62 -4.42,-3 -4.68,-2.49 -14.69,-2.47 -6.13,0.01 -12.26,0.03 -18.39,0.03 -11.19,0 -23.35,-0.73 -34.38,0.52l-0.53 45.41c-0.06,6.35 -1.01,10.11 1.83,14.9z"/>
  </g>
 </g>
</svg>
