<?xml version="1.0" encoding="UTF-8"?>
<!DOCTYPE svg PUBLIC "-//W3C//DTD SVG 1.1//EN" "http://www.w3.org/Graphics/SVG/1.1/DTD/svg11.dtd">
<!-- Creator: CorelDRAW 2019 (64-Bit) -->
<svg xmlns="http://www.w3.org/2000/svg" xml:space="preserve" width="496.711mm" height="575.733mm" version="1.1" style="shape-rendering:geometricPrecision; text-rendering:geometricPrecision; image-rendering:optimizeQuality; fill-rule:evenodd; clip-rule:evenodd"
viewBox="0 0 26908.96 31189.93"
 xmlns:xlink="http://www.w3.org/1999/xlink"
 xmlns:xodm="http://www.corel.com/coreldraw/odm/2003">
 <defs>
  <style type="text/css">
   <![CDATA[
    .fil20 {fill:#1A4B8B}
    .fil24 {fill:#1E3261}
    .fil14 {fill:#225CA1}
    .fil23 {fill:#240B3D}
    .fil8 {fill:#2D388A}
    .fil16 {fill:#545DAA}
    .fil18 {fill:#552A64}
    .fil3 {fill:#6098D1}
    .fil1 {fill:#636EB4}
    .fil17 {fill:#6486C4}
    .fil28 {fill:#684B75}
    .fil7 {fill:#7558A5}
    .fil15 {fill:#7AB1E0}
    .fil5 {fill:#8C7BB9}
    .fil12 {fill:#8D69AE}
    .fil22 {fill:#8F92C8}
    .fil11 {fill:#A374B1}
    .fil27 {fill:#A8A5D2}
    .fil26 {fill:#BAB6DA}
    .fil9 {fill:#BB7EB7}
    .fil4 {fill:#CFCBE5}
    .fil6 {fill:#D489BB}
    .fil2 {fill:#DBE7F6}
    .fil19 {fill:#ED67A6}
    .fil10 {fill:#F284B3}
    .fil21 {fill:#F6A7BB}
    .fil13 {fill:#F7A899}
    .fil25 {fill:#F8E0ED}
    .fil0 {fill:white}
   ]]>
  </style>
 </defs>
 <g id="Capa_x0020_1">
  <metadata id="CorelCorpID_0Corel-Layer"/>
  <g id="_1808771152">
   <polygon class="fil0" points="-0,31189.93 26908.96,31189.93 26908.96,0 -0,0 "/>
   <path class="fil1" d="M10673.54 9167.99c235.41,-132.16 481.85,-138.13 581.77,122.44 52.79,137.65 27.82,702.36 27.78,895.99 -0.06,302.14 48.11,608.77 -140.67,765.4 -101.2,83.96 -1987.94,1176.05 -2297.58,1353.03 -128.85,73.65 -550.99,327.86 -587.52,29.96 -44.82,-27.39 -14.37,28.07 -35.14,-22.79l-354.74 485.53c-63.25,84.05 -119.69,154.97 -183.32,237.25 -130.94,169.33 -41.49,115.52 -82.51,280.44l-13.2 30.14 7.22 1084.85 3.92 351 5095.98 -2869.43c128.58,-71.41 234.6,-165.83 379.53,-84.78 34.44,118.27 30.53,407.92 -19.29,523.51 -64.84,150.46 -149.82,193.51 -293.86,276.67 -717.66,414.32 -1509.34,836.33 -2219.5,1258.98 -973.77,579.54 -1973.62,1114.14 -2945.9,1674.65 -8.79,98.26 4.9,279.9 -11.79,337.54 -12.75,44.02 -0.97,18.57 -21.94,45.88 -95.93,331.26 -263.15,401.06 -539.81,556.71 -239.65,134.82 -476.51,270.82 -714.16,414.12 -205.68,124.03 -1342.16,769.38 -1389.72,839.48 28.48,49.98 108.18,66.05 170.12,89.01 93.14,34.52 174.02,42.59 186.85,102.1l11.55 6268.56c2,298.49 -22.79,1289.83 35.53,1535.87 43.75,184.53 112.82,244.76 169.42,360.46 146.84,79.12 253.74,249.2 643.78,169.77 315.7,-64.28 1357.57,-710.54 1672.08,-889.3 731.05,-415.51 1445.27,-823.94 2172.24,-1248.27l3241.01 -1862.35c362,-211.21 561.2,-355.43 814.94,-675.35l100.09 -136.34c560.53,-766.58 483.19,-1426.73 479.27,-2510.15 -1.66,-457.98 6.14,-8835.33 -22.47,-8974.72 -334.72,167.06 -1192.32,687.22 -1578.22,909.76 -151.01,87.08 -244.59,174.49 -420.81,37.99 -124.95,-96.79 -83.13,-359.23 -83.13,-554.08l4.88 -5637.89c-0.12,-266.01 -22.07,-329.93 85.22,-546.2 -27.63,-26.04 50.92,-65.68 -78.83,-7.97 -120.87,53.76 -279.94,306.26 -298.54,463.82l-9.11 1753.05c-0.67,146.47 -1.48,293.12 -1.51,439.58 -0.04,230.74 26.97,198.35 -84.44,336.63 -134.57,167.03 -241.89,335.44 -377.23,502.03l-1123.03 1481.72 44.8 5.68z"/>
   <path class="fil2" d="M7119.34 17507.26c-12.9,63.1 -0.11,15.73 -33.45,69.81 -163.84,265.81 -113.58,434.16 -113.54,808.17l-5.69 6230.34c0.01,195.17 -32.26,321.54 121.02,403.89 364.96,196.05 380.08,68.75 1034.12,-308.3l2616.57 -1530.87c540.4,-319.04 1461.74,-869.85 1986.25,-1148.51 236.16,-191.5 263.77,-369.51 263.76,-779.82l5.74 -6402.34c0.16,-190.9 35.57,-340.08 -108.72,-425.34 -371.84,-219.71 -411.42,-58.02 -1057.21,307.61 -902.62,511.05 -1791.22,1056.19 -2690.1,1572.07l-1691.42 984.68c-59.68,33.61 -105.73,58.02 -169.52,97.99l-107.83 84.32c-41.32,33.32 -6.27,10.26 -49.98,36.31z"/>
   <path class="fil3" d="M5267.26 9847.64c69.01,-64.84 411.83,-246.3 522.45,-311.11l1067.82 -613.85c262.23,-148.12 398.48,-292.24 587.01,-149.26 86.24,38.83 110.35,59.62 131.88,159.05l11.98 4412.92 13.2 -30.14c41.02,-164.92 -48.43,-111.11 82.51,-280.44 63.63,-82.29 120.07,-153.2 183.32,-237.25l354.74 -485.53c20.76,50.85 -9.69,-4.6 35.14,22.79 -9.78,-226.9 -33.59,-1205.42 -6.3,-1373.9 68.1,-420.41 351.93,-584.05 650.98,-757.48 249.74,-144.84 194.42,48.04 563.04,-104.27 199.3,-82.35 296.48,-175.08 434.17,-276.19 133.39,-97.95 238.06,-240.56 340.81,-366.97 66.64,-81.98 348.73,-190.31 433.53,-288.02l-44.8 -5.68 1123.03 -1481.72c135.33,-166.6 242.65,-335 377.23,-502.03 111.41,-138.29 84.4,-105.89 84.44,-336.63 0.03,-146.46 0.84,-293.1 1.51,-439.58l9.11 -1753.05c18.6,-157.56 177.66,-410.06 298.54,-463.82 129.76,-57.71 51.21,-18.07 78.83,7.97 64.71,-80 95.7,-132.44 191.01,-191.93 84.21,-52.57 166.18,-95.53 254.1,-147.15 173.68,-101.98 333.82,-191.39 508.71,-293.96l1008.43 -577.96c-34.63,-305.37 -205.67,-489.25 -437.48,-586.65 -343.57,-81.06 -566.44,21.13 -809.73,160.52 -220.08,126.1 -436.75,252.59 -655.13,376.79 -1742.48,990.98 -3453.76,2001.54 -5191.51,2989.23 -280.44,159.4 -1085.32,598.45 -1276.61,767.96 -629.3,557.67 -937.4,1222.27 -930.9,2120.09 2.44,337.09 -14.22,704.55 4.96,1037.25z"/>
   <path class="fil4" d="M12743.7 26653.02c-3.38,133.46 -6.28,270.34 -26.43,400.6 -26.78,173.16 -49.33,183.84 -107.88,296.86 91.75,59.28 -191.44,213.7 -320.74,229.01 -231.49,27.42 -316.85,-96.67 -432.4,-180.37 -193.09,-139.85 -213.57,-112.48 -400.51,-4.59 -113.06,65.25 -297.09,151.89 -387.8,223.83 -341.7,270.97 -145.63,575.68 82.9,772.62 150.83,129.97 551.61,343.57 761.48,461.81 503.49,283.67 1304.64,503.52 1963.29,273.02 324.77,-113.65 1466.34,-823.87 1598.54,-860.69 -76.89,720.92 234.82,1129.21 605.4,1427.58 1272.09,1024.23 3448.32,1081.87 4906.45,504.99 517.11,-204.58 941.4,-511.31 1197.01,-847.51 337.48,-443.89 404.75,-1013.62 71.13,-1532.33 -232.67,-361.75 -659.21,-684.46 -1146.29,-898.14 -379.23,-166.36 -779.95,-280.34 -1198.07,-348.48 -78,-12.71 -396.59,-43.59 -436.68,-59.84l-117.79 15.15 -2.93 129.24c269.03,13.41 1201.32,180.93 1319.4,339.43 100.07,9.75 493.03,235.13 579.53,363.99 284.4,90.1 815.19,1080.11 182.81,1834.04 -346.46,413.04 -1018.26,732.41 -1774.17,845.78 -1025.23,153.75 -2374.73,-38.25 -3085.26,-746.22 -253.62,-252.71 -342.37,-459.31 -368.04,-939.29 -10.54,-254.06 57.99,-385.87 117.58,-590.26l-835.68 474.08c58.77,-391.6 598.67,-960.1 802.58,-1022.67 50.12,104.37 256.15,148.09 426.54,85.38 256.55,-100.88 94.32,-204.06 854.49,-463.09 307.97,-104.94 703.59,-178.78 1101.11,-195.75l-3.62 -72.39c-300.75,-12.92 -679.55,-80.33 -941.36,-168.69 -192.98,-65.13 -634.03,-257.81 -731.98,-371.29l-34.49 53.15c-13.59,24.9 -4.88,19.77 -14.19,33.7 -27.96,131.24 -167.89,177.93 -333.37,157.18 -170.68,-21.41 -233.5,-92.7 -336.68,-144.74 16.54,98.37 10.89,196.38 55.18,273.3 190.01,330.08 371.34,-234.53 571.59,-113.89 127.63,122.81 144.99,685.45 12.49,814.13 -67.86,65.91 -220.07,154.32 -364.96,133 -118.5,-17.44 -183.03,-101.86 -233.7,-149.72 -200.82,-189.66 -85,-286.83 -263.3,-370.19 -270.2,-126.33 -585.12,-649.57 -569.88,-918.07 34.25,-19.39 80.34,-28.69 115.89,-47.17 44.2,-22.98 20.88,0.93 40.86,-42.29l8.26 -31.2c0.33,-4.65 0.46,-7.24 2.3,-10.21 164.67,32.74 394.47,187.38 512.06,258.37l-98.94 -484.81c-26.44,-35.82 -80.43,-70.05 -139.12,-105.94 -68.44,-38.6 -103.48,-68.92 -156.97,-107.56 -4.34,2.55 -10.55,4.72 -13.96,5.79l-29.96 9.75c-5.71,1.28 -10.53,2.23 -16.76,3.3 -18.11,3.13 -55.1,4.55 -74.97,5.88 -251.51,16.85 -544.43,99.89 -765.45,205.46 -325.39,155.42 -1969.9,1141.67 -2124.53,1197.01z"/>
   <path class="fil5" d="M7309.2 12094.58c84.92,474.19 -236.24,977.23 -332.29,1384.49 -90.66,-56.23 -336.11,-359.75 -419.6,-465.45 -152.93,-193.62 -199.4,-356.52 -127.39,-649.08l-709.12 198.74c-1.25,0.39 -40.7,13.57 -42.86,14.38l-39.11 17.76c-66.39,-55.77 -21.88,-67.71 -154.36,-90.42 -83.56,-14.32 -150.27,-9.16 -209.61,13.12 6.81,132.71 -29.76,77.9 65.41,118.88 1.09,0.47 94.41,14.83 107.44,15.75 -73.05,6.01 -130.39,29.15 -199.91,49.07 -78.52,22.49 -115.33,32.43 -193.7,54.75 -222.02,63.21 -224.36,93.79 -390.9,69.82 -4.62,3.56 -9.87,8.76 -13.1,11.58 -3.15,2.75 -8.99,7.94 -12.8,11.21 -99.96,85.93 -311.26,121.53 -440.44,158.62 -169.3,48.62 -308.2,84.77 -476.55,134.99 -168.09,50.14 -320.75,94.18 -487.77,142.9 -596.9,174.09 -203.16,62.6 -480.38,54.23 -47.94,127.86 55.01,70.51 -201.63,142.89 -245.37,69.2 -541.02,173.47 -779.16,221.07l-1.67 4031.21c89.12,-28.37 271.3,-145.39 362.5,-199.1l2536.82 -1458.34c76.67,-44.6 2787.81,-1614.06 2901.51,-1650.27l25.09 2.86 -7.22 -1084.85 -11.98 -4412.92 -12.08 2572.64c-1.7,551.19 70.07,550.32 -255.14,589.48z"/>
   <path class="fil1" d="M1771.37 13703.87c238.13,-47.61 533.78,-151.87 779.16,-221.07 256.63,-72.38 153.69,-15.03 201.63,-142.89 277.22,8.36 -116.51,119.86 480.38,-54.23 167.02,-48.71 319.68,-92.76 487.77,-142.9 168.36,-50.21 307.25,-86.37 476.55,-134.99 129.18,-37.09 340.49,-72.7 440.44,-158.62 3.8,-3.27 9.65,-8.46 12.8,-11.21 3.23,-2.82 8.48,-8.02 13.1,-11.58 166.54,23.97 168.88,-6.61 390.9,-69.82 78.37,-22.31 115.18,-32.26 193.7,-54.75 69.53,-19.92 126.87,-43.06 199.91,-49.07 -13.03,-0.92 -106.35,-15.28 -107.44,-15.75 -95.17,-40.98 -58.6,13.83 -65.41,-118.88 59.34,-22.28 126.05,-27.44 209.61,-13.12 132.48,22.7 87.97,34.65 154.36,90.42l39.11 -17.76c2.16,-0.81 41.61,-13.99 42.86,-14.38l709.12 -198.74c73.84,-190.04 200.68,-351.87 357.31,-436.83 253.09,-137.28 441.94,-44.96 521.97,166.88 325.22,-39.16 253.45,-38.28 255.14,-589.48l12.08 -2572.64c-21.52,-99.43 -45.64,-120.22 -131.88,-159.05 -141.74,-20.93 -718.39,353.99 -868.68,439.74l-2513.31 1461.95c-188.23,108.61 -2007.33,1143.98 -2085.41,1220.68 -112.42,110.45 -200.05,250.43 -204.29,468.71 -8.58,442.05 16.9,899.67 -1.48,1339.38z"/>
   <path class="fil6" d="M16843.21 3846.34c44.39,173.92 -5.74,1068.67 -2.38,1328.15 30.22,-19.75 65.71,-73.96 96.39,-105.38 38.45,-39.36 65.4,-67.53 108.74,-101.43 208.49,-163.05 52.34,-11.55 207.01,-194.64 76.44,-90.49 138.08,-138.49 232.94,-148.95 46.47,-5.12 -9.79,50.24 63.74,-31.49 36.18,-40.21 64.21,-110.72 128.46,-139.74l24.25 14.78c1.91,0.96 10.88,3.13 16.39,4.43 -6.26,81.91 -67.55,110.41 -116.98,175.05l-434.41 480.12c-474.54,474.2 -131.93,238.77 -687.15,530.89 -155.8,81.97 -415.38,-63.69 -579.12,-91.44 -55.11,-9.35 -96.35,-11.13 -131.35,-19.64 -48.48,-11.79 -65.75,-20.65 -116.9,-34.92 -240.03,-66.93 -118.47,28.15 -342.02,-256.92 -28.53,-36.38 -36.24,-41.68 -68.34,-83.84 -113.93,-149.61 -190.06,-303.07 -316.33,-336.09 -50.48,75.39 -104.75,142.2 -163.83,221.14l-941.81 1216.9c-54.76,68.62 45.54,-29.81 -15.07,18.32 -67.72,53.77 -514.01,-4.65 -675.9,-3.95 -76.41,0.33 -152.88,0.06 -229.3,0.06l-57.86 -95.37 -18.68 95.18c-80.92,0 -100.95,14.11 -176.23,19.19l-17.22 -1523.97 21.45 -364.31c-32.39,31.71 -34.05,39.56 -36.85,128.76l0.77 1109.74c-7.43,1223.9 -16.97,2596.64 1,3800.74 91.77,-20.03 541.36,-297.67 660.7,-365.59l3974.2 -2274.57c207.85,-116.14 473.33,-252.51 665.31,-384.36l11.58 -3802.4 -15.74 972.01c-66.08,15.81 -112.04,36.32 -189.77,38.21l-7.68 -333.64c-122.72,51.26 -515.57,294.53 -678.85,387.24 -128.28,72.84 -180.11,76.3 -193.17,151.71z"/>
   <path class="fil7" d="M16619.54 25784.38l329.41 224.1 -1.33 107.17c9.32,-13.93 0.6,-8.8 14.19,-33.7l34.49 -53.15c97.95,113.48 539,306.16 731.98,371.29 261.81,88.36 640.61,155.77 941.36,168.69l3.62 72.39 -0.51 681.95c11.56,254.88 -12.61,538.94 7.94,775.42 95.64,71.76 262.18,153.61 451.55,112.83 226.73,-48.82 225.84,-133.33 222.65,-365.9 -3.66,-266.69 -43.82,-973.66 -2.51,-1189.7l2.93 -129.24 117.79 -15.15c554.91,-123.72 842.79,-290.63 1268.12,-533.52 391.64,-223.65 773.94,-446.09 1170.48,-664.17 428.74,-235.78 769.69,-410.44 970.54,-845.43 187.67,-406.46 197.99,-1130.04 48.88,-1572.81 -43.84,0 -35.46,12.44 -35.46,-26.49l12.83 18.85c0.81,3.6 -257.14,221.5 -279.54,240.07 -406.14,336.79 -1061.66,887.24 -1555.46,1083.24 -256.26,101.72 -483.29,204.95 -742.83,308.3l-1482.44 619.37c-514.49,226.46 -323.12,104.64 -632.63,146.68 -62.51,8.49 -839.39,313.3 -1009.41,317.74 76.47,-34.74 117.23,-30.18 172,-94.21 -158.76,4.03 -639.41,174.55 -660.9,227.33 -12.53,30.75 11.99,-5.35 5.28,20.12 -42.92,-10.76 -30.87,-8.94 -81.27,-18.11l-21.73 46.05z"/>
   <path class="fil8" d="M21596.92 12740.36c-61.97,325.22 -115.5,497.36 -109.29,867.37 7.83,466.17 117.77,1297.25 180.23,1785.05 18.78,146.68 35.81,288.47 53.9,440.01 28.71,240.58 104.23,211.56 148.72,339.4l403.62 311.34c378.08,253.95 1197.9,659.21 1581,334.91 78.63,-125.5 131.75,-148.42 86.5,-397.96 -87.43,-482.16 12.23,-815.25 80.43,-1342.54 56.78,-438.98 131.29,-938.85 89.08,-1384.77 -15.73,-166.21 -66.1,-307.04 -80.66,-436.1 -100.12,24.29 -243.13,94.13 -330.65,140.4 -118.83,62.83 -147.21,124.88 -250.31,189.72 -126.5,79.55 -267.8,10.92 -281.71,-97.25 -10.92,-84.89 83.28,-245.93 112.88,-321.49 -133.19,-18.89 -375.89,11.82 -538.79,2.81 -355.03,-19.63 -978.03,-147.28 -1102.32,-453.67 -31.81,18.47 -28.72,-3.98 -42.64,22.76z"/>
   <path class="fil9" d="M18512.02 22032.46c-44.27,25.98 -322.26,664.1 -455.8,743.8 -77.5,183.38 -535.14,629.85 -705.33,766.83 -916.09,737.35 -1303.57,-528.88 -2042.09,-440.3 -320.34,38.43 -383.98,418.11 -406.25,690.41 -6.88,84.11 18.66,285.57 -25.71,331.26l8.67 35.03c25.05,45.78 17.01,71.75 18.73,137.77 240.76,72.28 582.06,305.74 711.26,265.07l1201 -501.55c637.05,-256.31 1279.88,-541.04 1917,-796.83 161.5,-64.84 309.8,-130.1 472.36,-196.57l2399.55 -1002.32c169.43,-71.31 319.98,-135.37 485.86,-202.11 80.91,-32.55 153.29,-65.21 243.06,-100.93 123.63,-49.18 175.68,-95.3 251.17,-70.59 -16.91,-52.94 -80.57,-187.29 -56.61,-234.37l21.39 -25.32c-74.87,-20.99 -58.32,-20.15 -87.23,-110.64 -17.16,-53.71 -26.18,-78.96 -37.39,-137.84l-185.9 -449.29 -93.65 -170.12c-59.95,3.22 -377.93,141.95 -454.41,176.16 -560.91,250.88 -1265.44,508.41 -1821.67,758.38l-904.37 376.21c-73.43,32.68 -154.34,62.2 -229.34,95.56l-206.72 95.06c-26.49,-27.9 -48.02,30.62 -17.58,-32.76z"/>
   <path class="fil10" d="M22150.93 10091.17c14.16,168.76 -55.15,151.15 -222.37,368.24 -41.19,53.48 -87.39,108.98 -130.55,157.81 -43.92,49.7 -93.88,107.37 -128.85,156.79 -203.45,-152.9 -266.39,-510.26 -132.15,-800.22 104.71,-226.17 416.39,-564.24 296.6,-723.74 -82.85,364.45 -391,605.67 -489.69,979.11 -56.27,212.89 -38.46,374.59 -125.79,600.18 -114.28,295.18 -237.32,322.73 -269.25,431.89 272.34,58.17 279.93,-31.61 420.93,-153.98 75.93,-65.89 256.89,-253.19 326.4,-292.5 42.69,117.05 -107.12,1176.9 -108.16,1359.31 -1.01,178.27 51.18,297.45 25.46,481.49 63.99,-8.88 39.72,-134.08 39.72,-184.76 51.8,105.48 529.99,294.92 728.15,329.77 268.25,47.17 738.15,4.2 867.74,-175.1 158.78,-219.69 119.3,-617.22 57,-903.51 -90.48,-415.74 -172.6,-145.76 -595.32,-482.46 1026.45,271.93 537.47,-713.32 856.36,-1075.98 24.25,416.98 401.46,629.88 446.54,779.73l523.91 468.13c70.89,61.76 114.81,88.14 170.94,151.06 -24.33,51.26 -127.46,175.11 -176.78,240.63 -165.15,219.39 -367.76,544.36 -489.34,798.82 30.12,28.47 30.46,19.24 77.75,46.05 34.76,19.71 54.09,30.39 81,55.48 47.43,44.23 75.52,124.3 122.06,160.38 136.19,-122.11 123.45,-51.96 226.18,-144.34 297.44,-267.49 635.5,-624.98 834.21,-982.87 135.1,-243.32 -9.56,-364.84 -117.23,-518.58 -328.36,-468.87 -728.94,-1300.1 -1214.71,-1536.15 -73.82,-35.87 -75.48,-36.42 -109.05,-92.74 101.84,5.4 231,30.18 308.13,-19.72 -287.02,33.75 -316.69,14.69 -493.98,-110.08l-372.32 -227.33c-88.23,0.92 -221.34,-58.11 -268.49,-96.8 13.23,71.83 351.89,163.5 224.71,387.87 -96.57,170.36 -581.46,504.25 -757.54,637.49l-374.3 311.49 -57.9 -380.86z"/>
   <path class="fil11" d="M14904.25 24297.26c39.75,321.09 156.28,425.25 328.12,566.61 122.05,100.4 392.35,285.6 536.95,361.98 53.49,38.64 88.53,68.96 156.97,107.56 2.57,-4.49 8.41,-15.11 10.4,-11.51l617.69 -267.19c143.82,-65.9 127.38,-10.92 264.43,-4.08 98.17,4.9 2246.66,-920.97 2588.07,-1056.64l3008.8 -1253.07c93.21,-38.15 354.66,-176.93 439.13,-151.24 -22.28,-159.62 -207.61,-772.67 -269.3,-898.24 -75.49,-24.71 -127.54,21.4 -251.17,70.59 -89.77,35.72 -162.15,68.38 -243.06,100.93 -165.88,66.74 -316.43,130.8 -485.86,202.11l-2399.55 1002.32c-162.56,66.47 -310.86,131.72 -472.36,196.57 -637.12,255.79 -1279.95,540.52 -1917,796.83l-1201 501.55c-129.19,40.67 -470.5,-192.78 -711.26,-265.07z"/>
   <path class="fil12" d="M12651.7 4418.5l-21.45 364.31c47.65,-19.9 112.7,-27.02 172.78,-41.94l2723.76 -607.86c-24.51,-127.9 -18.2,-474.63 -3.43,-611.66 151.57,-87.64 765.79,-459.37 874.61,-500.95l-4.56 406.63c44.16,71.22 19.55,382.13 21.15,495.75 155.85,0 281.94,-73.49 428.66,-76.45 13.06,-75.41 64.9,-78.87 193.17,-151.71 163.28,-92.71 556.13,-335.98 678.85,-387.24l7.68 333.64c77.73,-1.89 123.7,-22.41 189.77,-38.21l15.74 -972.01c-9.07,-203.56 -2.1,-419.15 -1.86,-624.1 0.71,-588.53 92.14,-910.83 -377.76,-646.7 -1176.2,661.14 -2307.87,1353.15 -3481.7,2023.08 -257.36,146.88 -517.14,300.6 -774.49,448.77 -207.54,119.49 -666.57,325.02 -640.91,586.64z"/>
   <path class="fil13" d="M22363.98 19590.28c23.5,191 23.75,405.75 -27.04,586.66 -48.11,171.36 -62.7,377.88 -97.17,557.04l185.9 449.29c179.21,-31.46 312.46,-440.89 347.61,-589.51 47.85,-202.29 147.59,-592.93 142.17,-790.99 -34.21,-251.61 86.21,-1538.65 143.34,-1813.33 84.16,367.8 192.46,716.23 285.56,1074.92 71.42,275.18 251.94,883.25 256.85,1144.54 67.39,112.21 20.16,595.73 23.57,759.98 28,123.09 17.45,281.86 8.59,413.72 -9.33,138.95 -61.85,343.44 28.05,407.03 95.58,53.26 344.57,16.23 422.16,-56.88 85.24,-80.31 80.01,-285.16 87.45,-422.67 25.1,-463.33 -51.34,-811.67 -45,-975.88 -57.4,-188.15 -51.99,-225.51 -43.73,-439.81 18.33,-475.37 65.63,-933.42 68.88,-1413.61 5.92,-873.88 -301.49,-1363.73 -296.08,-1662.36 -383.1,324.3 -1202.92,-80.96 -1581,-334.91l-403.62 -311.34c193.13,1163.83 370,2242.92 493.49,3418.09z"/>
   <path class="fil4" d="M5492.54 26110.57c-28.52,5.93 -274.7,-163.7 -310.8,-197.97 -100.81,-95.66 -148.3,-194.43 -201.16,-345.31 -79.85,26.26 -298,148.49 -371.03,198.81 -111.14,76.59 -193.84,220.7 -122.82,382.8 78.44,179.04 434.68,386.07 632.36,495.46 254.96,141.1 571.92,218.32 900.8,220.38 422.8,2.66 559.42,-103.83 855.61,-265.87 1421.1,-777.42 2875.57,-1673.49 4289.66,-2476.32 477.1,-270.87 958.86,-545.45 1428.52,-826.61 467.17,-279.67 955.19,-553.3 1432.38,-822.89 627.9,-354.74 1057.35,-429.99 198.88,-920.01l-88.25 -84.31 -100.09 136.34c-253.75,319.92 -452.95,464.14 -814.94,675.35l-3241.01 1862.35c-726.98,424.33 -1441.19,832.76 -2172.24,1248.27 -314.51,178.75 -1356.39,825.01 -1672.08,889.3 -390.04,79.42 -496.94,-90.65 -643.78,-169.77z"/>
   <path class="fil4" d="M22550.29 21431.74l-21.39 25.32c-23.96,47.08 39.7,181.43 56.61,234.37 61.69,125.57 247.02,738.62 269.3,898.24l55.29 189.95c398.48,129.59 669.55,609.06 1727.22,443.21 314.06,-49.24 586.25,-145.14 825.82,-282.22 296.45,-169.62 1373.64,-656.5 903.84,-1127.25 -112.94,-113.17 -1470.38,-866.06 -1761.46,-1029.51 -95.97,-53.9 -283.67,-172.01 -384.58,-200.37 22.4,173.87 5.78,324.57 9.64,496.77 9.84,439.19 246.24,739.16 -248.86,1085.74 -307.19,215.04 -504.89,146.55 -449.66,-294.65 39.13,-312.49 73.88,-589.02 92.72,-902.46 -3.41,-164.26 43.82,-647.77 -23.57,-759.98l-553.63 -313.75c124.3,303.9 79.26,275.06 29.29,599.02 -18.44,119.55 -44.04,580.65 -66.66,636.62 -57.2,-25.76 -36.91,-3.88 -49.08,-101.45l-34.54 -380.69c-76.3,87.72 -94.6,364.16 -120.14,477.23 -21.61,95.67 -39.01,125.75 -100.14,185.34 -57.98,56.5 -120.65,75.6 -156.04,120.54z"/>
   <path class="fil14" d="M13409.89 24084.4l1458.93 -3.22 8.02 43.27c44.37,-45.69 18.83,-247.15 25.71,-331.26 22.27,-272.3 85.91,-651.98 406.25,-690.41 738.52,-88.58 1126,1177.65 2042.09,440.3 170.18,-136.98 627.83,-583.45 705.33,-766.83 -39.28,-40.49 -147.33,-120.33 -195.37,-141.62 5.52,-144.12 28.67,-201.48 24.28,-369.82 -3.33,-127.57 36.48,-236.5 31.81,-366.83 -553.41,-11.1 -1749.86,-70.96 -2262.11,215.52 -168.17,94.05 -49.48,95.47 -308.2,109.36 -403.76,21.68 -690.19,59.51 -946.71,318.39 -72.07,72.73 -109.49,175.22 -160.55,260.71l-829.48 1282.43z"/>
   <path class="fil15" d="M10673.54 9167.99c-84.8,97.71 -366.89,206.04 -433.53,288.02 -102.75,126.41 -207.42,269.02 -340.81,366.97 -137.69,101.11 -234.87,193.84 -434.17,276.19 -368.62,152.31 -313.3,-40.57 -563.04,104.27 -299.05,173.43 -582.89,337.07 -650.98,757.48 -27.29,168.48 -3.48,1146.99 6.3,1373.9 36.53,297.9 458.67,43.69 587.52,-29.96 309.65,-176.99 2196.38,-1269.07 2297.58,-1353.03 188.79,-156.63 140.61,-463.27 140.67,-765.4 0.04,-193.63 25.01,-758.34 -27.78,-895.99 -99.92,-260.57 -346.36,-254.6 -581.77,-122.44z"/>
   <path class="fil0" d="M7484.66 23150.48c123.89,36.17 284.66,-97.02 389.33,-157.55l4730.33 -2724.51c123.57,-104.28 92.74,-284.65 92.62,-488.05 -0.09,-151.59 20.75,-441.96 -17.71,-561.03 -133.15,-31.34 -610.52,290.17 -751.8,370.45 -248.68,141.3 -481.31,276.71 -729.17,417.85 -498.67,283.98 -961.65,555.87 -1453.93,839.65 -193.04,111.28 -2093.97,1181.35 -2181.1,1259.93 -122.15,110.16 -92.32,284.65 -93.46,482.55 -0.89,153.98 -23.01,438.06 14.89,560.71z"/>
   <path class="fil0" d="M7488.81 21732.06c144.46,25.16 286.34,-101.21 394.8,-163.41l4717.07 -2718.32c126.19,-110.59 92.29,-284.38 92.91,-484.2 0.47,-150.59 18.92,-437.82 -16.34,-558.7 -125.96,-24.02 -616.13,295.09 -747.54,371.56 -1177.39,685.22 -2458.07,1435.98 -3639.86,2093.97l-722.86 423.85c-123.58,110.82 -91.66,287.94 -93.2,478.71 -1.19,148.34 -22.18,440.57 15.02,556.54z"/>
   <path class="fil1" d="M19168.91 18371.88c-70.32,-40.83 -103.13,-33.3 -188.84,-49.29 -123.5,-23.03 -59.92,-64.42 -177.32,-87.05 -126.46,42.93 -232.59,146.83 -281.12,249.8 7.3,84.62 57.61,100.35 87.3,186.57 -150.66,82.88 -201.83,85.09 -304.2,207.12 -61.92,73.82 -145.11,226.49 -171.83,338.23 -66.55,101.8 -223.2,573.63 -216.81,703.97l997.32 458.89c1.03,-5.1 2.96,-17.83 3.6,-15.18l86.34 -240.72c41.04,-91.93 65.6,-163.39 99.14,-266.89 75.79,-233.84 104.44,-336.47 104.44,-593.06l-84.33 649.51c-4.54,27.01 -3.59,24.6 -8.54,47.4l-36.19 105.87c68.47,27.29 131.55,45.84 204.17,75.05 72.94,29.34 119.09,48.72 190.69,76.79l389 153.11c85,-35.29 191.73,-105.2 285.1,-151.02 710.25,-348.6 881.25,-225.91 1081.76,-290.03 11.56,-43.9 22.55,-73.17 36.82,-117.55l32.02 -86.35c1.97,-4.08 5.89,-10.52 7.57,-13.81 1.7,-3.32 4.84,-9.48 7.9,-13.81 1.7,-88.23 93.56,-373.66 117.1,-506.52 33.12,-186.96 45.32,-393.45 -1.76,-583.93 -93.18,-377.03 -359.23,-505.1 -798.42,-491.76 38.52,92.13 85.58,135.5 16.12,235.96 -35.67,51.6 -86.59,103.32 -142.76,142.67 -357.45,250.4 -1216.13,142.01 -1401.53,4.07 44.64,-98.59 68.41,-67.13 67.25,-128.02z"/>
   <path class="fil12" d="M15926.29 25333.4c58.69,35.9 112.68,70.12 139.12,105.94 69.07,12.49 51.49,6.78 142.41,73.53 53.06,38.95 80.69,57.74 135.07,92.9 95.09,61.48 179.74,119.25 276.65,178.62l21.73 -46.05c50.4,9.16 38.35,7.34 81.27,18.11 6.71,-25.47 -17.8,10.63 -5.28,-20.12 21.49,-52.77 502.14,-223.3 660.9,-227.33 -54.78,64.03 -95.53,59.47 -172,94.21 170.02,-4.44 946.91,-309.25 1009.41,-317.74 309.51,-42.04 118.14,79.78 632.63,-146.68l1482.44 -619.37c259.54,-103.35 486.57,-206.58 742.83,-308.3 493.8,-196 1149.32,-746.45 1555.46,-1083.24 22.4,-18.57 280.35,-236.47 279.54,-240.07l-12.83 -18.85c0,38.94 -8.39,26.49 35.46,26.49l-21 -115.84 -55.29 -189.95c-84.46,-25.69 -345.91,113.09 -439.13,151.24l-3008.8 1253.07c-341.41,135.67 -2489.9,1061.54 -2588.07,1056.64 -137.05,-6.84 -120.61,-61.82 -264.43,4.08l-617.69 267.19c-1.98,-3.6 -7.82,7.03 -10.4,11.51z"/>
   <path class="fil9" d="M15526.79 4133.01l-2723.76 607.86c-60.07,14.92 -125.13,22.04 -172.78,41.94l17.22 1523.97c75.29,-5.08 95.31,-19.19 176.23,-19.19l18.68 -95.18 57.86 95.37c76.42,0 152.89,0.27 229.3,-0.06 161.89,-0.7 608.18,57.73 675.9,3.95 60.62,-48.13 -39.69,50.3 15.07,-18.32l941.81 -1216.9c59.08,-78.94 113.34,-145.76 163.83,-221.14 126.27,33.01 202.4,186.47 316.33,336.09 32.1,42.16 39.81,47.46 68.34,83.84 223.55,285.07 101.99,189.99 342.02,256.92 51.16,14.26 68.43,23.13 116.9,34.92 35,8.51 76.23,10.29 131.35,19.64 163.74,27.75 423.32,173.41 579.12,91.44 555.22,-292.12 212.6,-56.68 687.15,-530.89l434.41 -480.12c49.43,-64.64 110.72,-93.14 116.98,-175.05 -5.5,-1.3 -14.48,-3.47 -16.39,-4.43l-24.25 -14.78c-64.26,29.02 -92.28,99.52 -128.46,139.74 -73.53,81.72 -17.27,26.36 -63.74,31.49 -94.86,10.46 -156.5,58.45 -232.94,148.95 -154.66,183.09 1.48,31.59 -207.01,194.64 -43.34,33.9 -70.3,62.06 -108.74,101.43 -30.68,31.42 -66.17,85.63 -96.39,105.38 -3.36,-259.48 46.77,-1154.23 2.38,-1328.15 -146.72,2.96 -272.81,76.45 -428.66,76.45 -1.6,-113.63 23.01,-424.54 -21.15,-495.75 -31.12,132.81 17.58,1694.89 18.12,1980.15 -141.01,-33.01 -806.22,-156.45 -873.99,-208.77 -41.75,-277.09 50.15,-814.36 -10.74,-1065.41z"/>
   <path class="fil2" d="M5267.26 9847.64c-19.18,-332.7 -2.52,-700.16 -4.96,-1037.25 -6.51,-897.82 301.6,-1562.42 930.9,-2120.09 191.29,-169.52 996.17,-608.57 1276.61,-767.96 1737.75,-987.69 3449.03,-1998.24 5191.51,-2989.23 218.39,-124.2 435.05,-250.69 655.13,-376.79 243.29,-139.39 466.16,-241.57 809.73,-160.52 -48.16,-71.91 -257.86,-178.77 -336.35,-209.83 -418.89,-165.79 -865.86,176.58 -1181.16,349.97 -887.61,488.09 -1857.71,1065.53 -2753.34,1585.25 -464.07,269.3 -921.51,521.1 -1385.24,793.44 -464,272.5 -913.22,520.57 -1370.44,789.25 -754.21,443.19 -1401.86,669.96 -1823.3,1426.88 -403.41,724.54 -384.44,992.93 -380.17,1813.42 1.92,368.32 1.33,736.66 3.16,1104.98 104.62,-24.56 292.56,-135.42 367.91,-201.51z"/>
   <path class="fil7" d="M18055.66 29713.45c-102.06,1.47 -593.06,-126.15 -695.79,-204.81 -120.14,-34.34 -446.39,-190.34 -497.02,-280.14 -101.59,-23.99 -337.32,-259.9 -405.43,-352.95 -42.54,-58.12 -112.18,-157.13 -147.67,-234.98 -40.36,-88.53 -59.09,-213.6 -103.13,-287.08 25.67,479.98 114.42,686.58 368.04,939.29 710.53,707.98 2060.04,899.98 3085.26,746.22 755.92,-113.37 1427.72,-432.74 1774.17,-845.78 632.39,-753.93 101.6,-1743.93 -182.81,-1834.04 -64.78,11.4 -44.51,36.85 -170.74,161.95 -260.94,258.63 -607.84,679.5 -859.69,936.85l-601.55 640.16c-37.95,44.53 -43.37,61.14 -86.46,105.18l-524.35 564.81c-88.1,81.21 -509.8,26.36 -643.77,10.73 -89.09,-10.39 -244.33,-18.64 -309.08,-65.43z"/>
   <path class="fil16" d="M12724.63 22031.78c-524.51,278.66 -1445.85,829.47 -1986.25,1148.51l-2616.57 1530.87c-654.05,377.05 -669.17,504.35 -1034.12,308.3 -153.28,-82.34 -121.01,-208.72 -121.02,-403.89l5.69 -6230.34c-0.04,-374.01 -50.3,-542.37 113.54,-808.17 33.34,-54.09 20.55,-6.72 33.45,-69.81 -59.78,-25.84 -469.43,256.76 -500.58,592.91 -30.8,332.36 -6.79,816.35 -6.86,1164.2l-15.87 5752.56c0,418.73 -80.95,841.3 419.36,556.33 1728.13,-984.31 3390.76,-1989.05 5108.83,-2975.05 246.87,-141.68 541.29,-262.46 600.4,-566.42z"/>
   <path class="fil3" d="M7595.62 14430.23l-25.09 -2.86 -7.77 1516.88c20.97,-27.31 9.19,-1.86 21.94,-45.88 16.7,-57.64 3,-239.28 11.79,-337.54 972.28,-560.51 1972.14,-1095.11 2945.9,-1674.65 710.16,-422.66 1501.84,-844.66 2219.5,-1258.98 144.04,-83.16 229.02,-126.21 293.86,-276.67 49.82,-115.59 53.73,-405.23 19.29,-523.51 -144.93,-81.05 -250.95,13.37 -379.53,84.78l-5095.98 2869.43 -3.92 -351z"/>
   <path class="fil6" d="M16717.66 27300.02c-55.82,33.4 -172.92,165.19 -216.18,210.2 -82.85,86.2 -110.06,142.1 -177.26,253.01 -59.59,204.39 -128.12,336.21 -117.58,590.26 44.03,73.48 62.77,198.55 103.13,287.08 35.48,77.85 105.13,176.86 147.67,234.98 68.11,93.06 303.84,328.96 405.43,352.95 57.62,-12.7 423.05,-422.04 445.85,-451.93l671.75 -723.57c80.18,-99.34 157.14,-159 229.34,-248.45 69.8,-86.48 393.54,-443.99 462.95,-481.43l0.51 -681.95c-397.53,16.98 -793.14,90.81 -1101.11,195.75 -760.16,259.03 -597.94,362.21 -854.49,463.09z"/>
   <path class="fil17" d="M8493.07 11199.33c0,388.82 12.27,628.47 -21.95,1009.59 77.53,-24.08 257.47,-141.02 338.85,-188.66 118.94,-69.61 224.39,-133.75 353.34,-199.99 236.82,-121.66 469.28,-278.34 699.82,-408.01l1035.87 -608.06c145.31,-103.4 128.71,-220.86 128.36,-426.66 -0.39,-225.18 35.27,-882.02 -38.69,-1029.36 -130.49,-11.21 -268.07,100.33 -372.88,159.77 -386.38,219.15 -365.86,459.57 -896.94,746.62 -511.72,276.58 -484.93,50.69 -834.92,254.92 -259.49,151.42 -390.86,295.72 -390.86,689.84z"/>
   <path class="fil15" d="M9968.67 7665.19c-531.89,97.28 -935.32,619.1 -1142.67,1025.97 -321.25,630.36 -254.85,1432.44 462.98,1349.16 186.89,-21.68 391.47,-182.19 525.44,-283.23 126.7,-95.55 287.97,-277.84 388.99,-413.34 568.5,-762.55 518.66,-1816.34 -234.75,-1678.55z"/>
   <path class="fil6" d="M19861.73 20372c-65.32,54.89 -147.69,105.74 -224.99,162.1l-316.29 257.17c-37.51,34.05 -65.68,53.22 -103.9,88.07 -72.31,65.91 -110.91,114.74 -174.96,188.6 -35.75,41.22 -57.57,54.9 -91.14,99.3 -27.55,36.44 -54.16,69.53 -82.66,108.7 -129.4,177.86 -329.52,557.24 -355.78,756.53 -30.44,63.38 -8.91,4.86 17.58,32.76l206.72 -95.06c75,-33.36 155.91,-62.88 229.34,-95.56l904.37 -376.21c556.23,-249.97 1260.76,-507.5 1821.67,-758.38 76.48,-34.21 394.46,-172.95 454.41,-176.16 -63.34,-176.99 -221.33,-338.88 -350.69,-428.82 -259.33,-180.31 -368.7,-141.93 -536.74,-191.73 -3.8,-1.13 -12.43,0.35 -15.15,-5.96 -2.71,-6.3 -10.3,-3.61 -14.95,-6.4 -200.5,64.13 -371.51,-58.56 -1081.76,290.03 -93.37,45.82 -200.1,115.73 -285.1,151.02z"/>
   <path class="fil18" d="M21922.26 8314.78c102.47,-102 102.32,-305.28 102.37,-460.11 0.05,-212.9 69.86,-321.58 141.23,-461.25 39.48,50.35 49.41,116.69 111.41,219.31 97.37,161.18 239.24,321.3 345.86,474.58l80.15 104.48c0.71,-91.81 0.17,-27.37 49.14,-60.83l170.03 -77.54c31.65,-16.95 0.65,-4.08 37.98,-19.39l871.19 -352.41 14.84 192.2c135.02,-22.15 262.62,-67.6 405.9,-103.09 156.93,-38.87 250.94,-88.02 430.27,-88.02 47.23,-526.42 -117.49,-871.65 -432.78,-1066.82 -380.89,-235.78 -874.82,-142.85 -1147.7,108.51 -140.35,129.28 -237.2,-50.39 -608.9,97.65 -184.97,73.68 -329.87,199.15 -436.03,327.79 -105.63,128.02 -200.75,319.87 -235.01,530.15 -46.48,285.31 14.19,408.34 100.05,634.79z"/>
   <path class="fil19" d="M2724.67 8948.6c-39.72,-129.81 -708.73,-942.51 -833.02,-1132.01 35.17,-145.8 63.11,-153.94 53.4,-324.8l-50.11 -29.94c-64.48,33.19 -33.57,-3.4 -66.56,85.87l-503.34 1768.05c-63.24,-60.56 -29.55,-551.26 -30.78,-677.38 -2.37,-241.86 -0.75,-484.31 -1.46,-726.24 -1.4,-475.67 -27.74,-980.09 -9.72,-1451.57 452.87,-244.57 1198.95,-694.55 1690.29,-984.84 84.72,-50.06 159.92,-71.47 250.75,-128.17l-49.61 -98.8 -2611.42 1492.92c1.24,107.32 418.27,2045.21 478.32,2306.45 46.96,204.35 93.34,617.81 192.15,742.74 116.91,-0.79 959.19,-525.81 1129.06,-623.94 92.19,-53.25 293.71,-159.36 362.05,-218.34z"/>
   <path class="fil20" d="M12140.56 25987.69c79.39,252.59 288.29,438.68 593.82,483.99l75.89 3.6c70.27,-132.41 405.24,-466.47 519.69,-570.28 48.94,-44.4 84.2,-89.88 133.43,-133.55l707.97 -668.03c86.8,-96.53 172.07,-194.99 258.41,-296.28 175.99,-206.47 308.4,-402.87 455.75,-647.65l-8.67 -35.03 -8.02 -43.27 -1458.93 3.22c-89.93,88.83 -1008.49,1464.57 -1065.87,1516.12 -44.99,40.41 3.12,-10.7 -39.48,28.44 -58.71,53.95 -178.17,218.96 -163.99,358.74z"/>
   <path class="fil15" d="M11334.69 11271.26c-92.71,28.23 -2817.06,1565.34 -2983.8,1664.87 -174.07,103.91 -305.03,185.67 -351.01,415.35 -38.4,191.81 -55.49,618.46 187.88,552.59 73.73,-19.96 398.79,-218.21 493.28,-272.3l2473.79 -1406.57c172.77,-97.06 303.1,-183.23 355.19,-408.09 38.45,-165.98 61.15,-617.85 -175.32,-545.85z"/>
   <path class="fil17" d="M17916.1 19921.23c-37.01,40.22 -51.35,140.47 -64.94,204.49 -6.83,32.17 -12.74,79.03 -21.24,110.17l-45.32 89.15c-29.57,-67.58 -114.31,-172.26 -165.88,-236.95 -132.59,-166.32 -395.96,-559.94 -603.93,-594.44l-22.46 -20.57c-2.76,-2.72 -7.51,-7.11 -10.44,-10.12 -45.35,-46.63 -56.05,-77.92 -114.44,-108.51 -196.37,20.54 -310.5,106.73 -392.27,232.48 -20.45,80.76 43.96,78.29 43.84,211.59 -0.09,93.3 -14.08,180.38 33.6,249.51 151.71,39.69 571.59,256.02 772.22,347.24l1267.05 573.59c-21.92,100.95 -266.53,705.24 -381.05,781.35 -10.83,7.19 -2.43,6.8 -40.32,18.96 -123.27,39.55 -156.52,-20.19 -245.91,56.28l-7.67 72.54c4.67,130.33 -35.14,239.26 -31.81,366.83 4.39,168.33 -18.76,225.7 -24.28,369.82 48.04,21.3 156.09,101.13 195.37,141.62 133.54,-79.7 411.53,-717.82 455.8,-743.8 26.26,-199.29 226.38,-578.67 355.78,-756.53 28.5,-39.17 55.11,-72.26 82.66,-108.7 33.57,-44.4 55.39,-58.08 91.14,-99.3 64.05,-73.86 102.65,-122.69 174.96,-188.6 38.23,-34.85 66.39,-54.02 103.9,-88.07l316.29 -257.17c77.3,-56.36 159.66,-107.21 224.99,-162.1l-389 -153.11c-71.6,-28.06 -117.75,-47.45 -190.69,-76.79 -72.62,-29.21 -135.7,-47.76 -204.17,-75.05l36.19 -105.87c4.95,-22.81 4,-20.4 8.54,-47.4l84.33 -649.51c0,256.59 -28.65,359.22 -104.44,593.06 -33.54,103.49 -58.1,174.96 -99.14,266.89l-86.34 240.72c-0.63,-2.65 -2.57,10.08 -3.6,15.18l-997.32 -458.89z"/>
   <path class="fil18" d="M19012.52 16474.99c49.38,36.5 66.85,56.61 131.53,97.68 -3.09,230.26 35.61,333.33 151.76,462.73 149.29,166.31 87.47,365.74 178.78,451.31 88.13,-49.63 18.16,-77.96 115.95,-139.05 196.71,-44.07 238.68,321.19 358.25,448.35 74.83,79.58 167.99,108.86 307.75,72.13 136.97,-35.99 186.34,-100.53 275.26,-149.06 86.41,-264.52 529.82,-971.7 136.35,-1387.61 -115.03,-121.6 -112,-248.19 -253.61,-377.2 -229,-208.61 -641.36,-267.15 -1013.28,-180.4 -182.99,42.68 -318.08,90.57 -398.93,208.94 -135.11,197.78 -47.15,328.64 10.18,492.17z"/>
   <path class="fil1" d="M15973.9 18477.34c99.89,44.15 319.63,143.18 416.03,158.96 12.45,-50.8 31.4,-84.14 47.4,-113.47 -15.41,-16.97 -11.21,-14.18 -34.04,-30.67 -7.57,-5.47 -28.58,-18.65 -36.44,-22.74l-238.92 -100.83c117.89,-2.89 308.78,-10.51 378.49,60.77 63.22,65.56 4.25,126.96 79.76,311.54 156.67,20.88 150.41,67.34 279.52,58.96 35.18,-2.28 48.88,-36.8 86.29,5.74 -31.7,-91.21 -52.24,30.02 -91.73,-91.96 -16.4,-50.63 -0.28,-142 6,-172.28 22.06,-106.37 66.1,-176.57 151.67,-211.6 221.79,-90.79 367.36,83.23 526.43,132.02 94.13,-5.96 141.01,-202.19 92.21,-389.96 -12.11,-46.59 -28.53,-108.34 -40.55,-170.38 -26.92,-138.92 -98.79,-571.71 174.26,-540.03 121.45,14.1 -3.46,-22.8 45.33,15.63l-291.62 -463.3c-186.51,27.47 -2099.55,500.14 -2153.38,535.04 99.75,209.45 375.01,574.66 504.58,817.47 -112.71,-38.59 -115.05,-58.28 -241.32,-49.43 -17.67,142.36 10.18,121.77 132.65,172.6 72.89,30.26 136.87,58.27 207.41,87.93z"/>
   <path class="fil11" d="M18680.68 28098.54c0.75,60.98 -6.5,48.58 -57.93,98.47l-1155.54 1252.34c-55.34,55.24 -27.14,45.69 -107.33,59.29 102.73,78.66 593.73,206.28 695.79,204.81l81.83 6.46 788.51 -855.93c65.02,-64.22 91.74,-111.19 152.43,-172.47l1509.79 -1625.22c54.62,-63 13.12,-59.46 83.55,-71.09 -118.08,-158.5 -1050.37,-326.02 -1319.4,-339.43 -41.31,216.04 -1.14,923.01 2.51,1189.7 3.19,232.56 4.08,317.08 -222.65,365.9 -189.37,40.78 -355.91,-41.07 -451.55,-112.83z"/>
   <path class="fil12" d="M18055.66 29713.45c64.75,46.78 219.99,55.04 309.08,65.43 133.98,15.62 555.68,70.48 643.77,-10.73l524.35 -564.81c43.09,-44.05 48.51,-60.65 86.46,-105.18l601.55 -640.16c251.85,-257.34 598.74,-678.22 859.69,-936.85 126.23,-125.1 105.96,-150.55 170.74,-161.95 -86.51,-128.86 -479.47,-354.25 -579.53,-363.99 -70.43,11.63 -28.93,8.09 -83.55,71.09l-1509.79 1625.22c-60.69,61.28 -87.41,108.25 -152.43,172.47l-788.51 855.93 -81.83 -6.46z"/>
   <path class="fil19" d="M7714.13 2301.31l1.6 48.14 776.92 -244.07 -272.92 -440.76 187.29 -102.08c100.45,118.48 246.58,244.15 360.4,353.51 122.6,117.8 244.38,236.97 353.8,348.71 183.86,-135.2 294.75,-362.79 582.37,-423.62 32.37,-49.76 81.74,-57.37 149.88,-72.6l132.88 -43.95c4.55,-2.38 11.02,-6.44 14.72,-8.48 3.75,-2.06 9.86,-5.89 14.68,-9.01 65.46,-386 106.54,-802.81 -166.18,-1026.41 -291.31,-238.83 -728.24,-76.69 -990.97,93.68 -286.53,185.8 -491.57,396.75 -686,651.49 -116.81,153.04 -440.77,656.41 -458.47,875.45z"/>
   <path class="fil13" d="M21922.26 8314.78c15.1,38.32 35.12,233.47 53.44,307.29 24.71,99.55 48.92,189.69 75.54,279.77l53.87 50.43c63.01,46.14 140.44,52.55 219.44,62.9 -191.9,101.04 -154.75,167.96 -174.4,444.63 -16.21,228.29 -24.9,401.48 0.77,631.38l57.9 380.86 374.3 -311.49c176.08,-133.24 660.97,-467.13 757.54,-637.49 127.17,-224.36 -211.49,-316.04 -224.71,-387.87 47.15,38.69 180.26,97.71 268.49,96.8l-146.83 -227.08c-13.26,-23.62 -38.23,-86.96 -57.14,-114.91 -51.5,-76.15 -96.79,-41.62 -104.04,-57.39 -2.97,-6.48 -11.59,-0.96 -16.9,-3.1 -4.73,-161.04 -14,-160.66 74.44,-278.03 58.77,-77.98 61.62,-144.04 -26.33,-205.34 -146.94,-51.7 -212.33,98.32 -288.54,173.96 -23.09,-34.85 -29.47,-116.29 -50.26,-175.95 -21.33,-61.2 -48.12,-100.5 -65.56,-152.35l-80.15 -104.48c-106.62,-153.29 -248.49,-313.4 -345.86,-474.58 -62,-102.62 -71.93,-168.96 -111.41,-219.31 -71.37,139.67 -141.18,248.35 -141.23,461.25 -0.04,154.82 0.1,358.11 -102.37,460.11z"/>
   <path class="fil21" d="M9703.58 1841.14c14.07,18.3 -633.86,988.01 -682.97,1027.26 -82.86,-95.69 -293.88,-443.29 -386.71,-588.09 -40.16,-62.65 -77.7,-138.19 -141.25,-174.93l-776.92 244.07 -1.6 -48.14c-33.06,28.9 -38.25,45.02 -58.48,119.06 -401.43,1468.88 881.29,1674.89 1884.36,296.26 144.19,-198.17 440.51,-679 475.74,-1009.54 -4.82,3.12 -10.93,6.95 -14.68,9.01 -3.7,2.04 -10.18,6.1 -14.72,8.48l-132.88 43.95c-68.15,15.24 -117.51,22.84 -149.88,72.6z"/>
   <path class="fil10" d="M1894.95 7461.85l50.11 29.94c9.71,170.85 -18.23,178.99 -53.4,324.8 124.29,189.5 793.3,1002.2 833.02,1132.01l887.79 -518.53c15.46,-64.23 21.32,-35.93 -29.74,-104.76l-883.3 -1162.7c61.85,-42.36 14.41,-24.15 74.81,-66.31l599.45 -349.94c25.73,-69.09 74.66,-82.52 125.79,-150.71 125.58,-167.5 184.85,-312.3 298.56,-427.76 55.58,-56.43 0.66,-18.78 71.92,-62.8l738.84 -420.14c19.72,-45.4 -8.1,-65.67 -41.17,-97.89 -69.49,9.49 -610.41,335.66 -722.12,398.08 -236.54,132.15 -249.48,335.41 -533.78,612.99 -140.12,136.81 -512.54,326.37 -706.54,439.93 -125.97,73.74 -239.09,138.23 -362.58,210.82 -44.42,26.11 -318.79,174.79 -347.68,213z"/>
   <path class="fil21" d="M19488.82 10184.99c18.36,58.31 -26.88,101.98 -58.19,168.48 -38.46,81.68 -47.51,126.42 -57.49,218.87 47.91,57.16 110.06,43.86 178.71,90.54 66.48,45.2 86.55,65.29 176.41,110.61 131.46,66.31 249.22,121.21 387.13,186.02 249.45,117.21 527.27,241.97 833.47,301.73 31.94,-109.16 154.98,-136.7 269.25,-431.89 87.33,-225.59 69.53,-387.29 125.79,-600.18 98.69,-373.44 406.84,-614.67 489.69,-979.11 119.8,159.5 -191.89,497.57 -296.6,723.74 -134.24,289.96 -71.3,647.32 132.15,800.22 34.97,-49.42 84.93,-107.08 128.85,-156.79 43.16,-48.83 89.36,-104.33 130.55,-157.81 167.22,-217.09 236.53,-199.48 222.37,-368.24 -25.67,-229.9 -16.98,-403.09 -0.77,-631.38 19.64,-276.67 -17.5,-343.59 174.4,-444.63 -79,-10.34 -156.43,-16.76 -219.44,-62.9l-53.87 -50.43c-165.07,200.18 -122.37,110 -268.87,400.76 -84.47,167.65 -151.56,293.46 -246.51,441.6 -94.37,147.21 -188.69,279.23 -281.93,406.01l-307.75 387.22c-317.63,-103.38 -159.98,-112.68 -691.06,-211.17 -291.46,-54.05 -283.49,-73.92 -570.71,-93.84 -77.86,-5.4 -115.22,-29.64 -195.59,-47.44z"/>
   <path class="fil22" d="M16586.17 18740.89c64.75,208.9 293.75,332.21 281.28,613.56 58.39,30.59 69.09,61.88 114.44,108.51 2.93,3.01 7.69,7.39 10.44,10.12l22.46 20.57c48.19,-30.74 1044.14,-279.42 1118.11,-276.4 26.72,-111.74 109.91,-264.41 171.83,-338.23 102.37,-122.03 153.54,-124.24 304.2,-207.12 -29.69,-86.21 -80,-101.95 -87.3,-186.57l-50.26 -53.1c-46.71,-38.94 -2.12,-7.71 -61.1,-34.42 -179.94,-81.5 -105.88,-207.36 -204.46,-329.66 -144.24,-178.97 -376.84,-97.47 -351.41,-347.76l168.53 -1.09c-26.65,-73.1 -71.58,-129.77 -111.31,-195.24 -29.56,-60.13 -59.01,-95.08 -96.03,-147.03 -48.79,-38.43 76.12,-1.54 -45.33,-15.63 -273.05,-31.69 -201.19,401.1 -174.26,540.03 12.03,62.04 28.44,123.79 40.55,170.38 48.8,187.77 1.92,384 -92.21,389.96 -159.07,-48.79 -304.64,-222.8 -526.43,-132.02 -85.57,35.03 -129.61,105.23 -151.67,211.6 -6.28,30.28 -22.4,121.65 -6,172.28 39.49,121.97 60.03,0.74 91.73,91.96 -37.41,-42.54 -51.11,-8.02 -86.29,-5.74 -129.11,8.38 -122.85,-38.08 -279.52,-58.96z"/>
   <path class="fil19" d="M21613.49 12655.55l-16.57 84.8c13.92,-26.75 10.83,-4.3 42.64,-22.76 124.29,306.39 747.3,434.03 1102.32,453.67 162.9,9.01 405.6,-21.69 538.79,-2.81l42.27 -69.29c18.39,-32.89 34.48,-65.25 48.24,-86.23 74.07,-112.92 353.96,-201.07 457.83,-343.93 41.94,-346.27 -177.59,-566.59 -87.64,-930.44 50.42,-203.99 271.47,-613.79 272.31,-795.31 -45.08,-149.85 -422.29,-362.75 -446.54,-779.73 -318.89,362.65 170.09,1347.91 -856.36,1075.98 422.72,336.7 504.83,66.72 595.32,482.46 62.31,286.28 101.79,683.82 -57,903.51 -129.58,179.3 -599.48,222.27 -867.74,175.1 -198.16,-34.84 -676.35,-224.29 -728.15,-329.77 0,50.69 24.26,175.88 -39.72,184.76z"/>
   <path class="fil23" d="M22703.28 8191.8c17.44,51.85 44.22,91.16 65.56,152.35 20.8,59.66 27.17,141.1 50.26,175.95 76.21,-75.64 141.6,-225.67 288.54,-173.96 87.95,61.29 85.1,127.35 26.33,205.34 -88.44,117.37 -79.17,116.99 -74.44,278.03 5.31,2.14 13.93,-3.38 16.9,3.1 7.24,15.76 52.54,-18.76 104.04,57.39 18.91,27.95 43.88,91.29 57.14,114.91l146.83 227.08 372.32 227.33c177.29,124.77 206.97,143.83 493.98,110.08 152.63,-13.96 358.68,-82.58 458.98,-166.55 -62.78,-67.41 -106.66,-70.85 -165.72,-157.72 -40.57,-59.65 -75.77,-130.61 -99.75,-221.9 -57.91,-220.55 33.63,-400.97 28.13,-581.43l-3.19 -93.14c-114.47,1.15 -702.93,168.88 -864.02,210.67 14.33,-69.53 119.71,-207.96 160.59,-315.88 39.06,-103.13 76.76,-247.11 80.7,-369.61l-14.84 -192.2 -871.19 352.41c-37.33,15.31 -6.33,2.44 -37.98,19.39l-170.03 77.54c-48.97,33.46 -48.43,-30.99 -49.14,60.83z"/>
   <path class="fil1" d="M8921.95 23836.29c46.45,93.93 301.5,-88.88 373.14,-131.3l1118.32 -639.96c249.23,-140.58 491.2,-289.89 737.61,-428.6 128.42,-72.28 235.47,-137.59 363.62,-209.67 124.45,-70 297.16,-125.58 304.57,-289.63l-20.6 -323.29 -2161.4 974.88c-64.36,28.75 -119.31,52.19 -183.8,83.67 -41.67,20.35 -399.25,121.4 -509.33,206.66 -0.36,247.59 -55.49,505.71 -22.13,757.23z"/>
   <path class="fil6" d="M15526.79 4133.01c60.9,251.05 -31.01,788.32 10.74,1065.41 67.77,52.32 732.98,175.75 873.99,208.77 -0.54,-285.26 -49.24,-1847.34 -18.12,-1980.15l4.56 -406.63c-108.82,41.58 -723.03,413.31 -874.61,500.95 -14.77,137.03 -21.08,483.76 3.43,611.66z"/>
   <path class="fil0" d="M12734.38 26471.68l-12.28 64.26 21.59 117.08c154.64,-55.33 1799.14,-1041.59 2124.53,-1197.01 221.02,-105.57 513.93,-188.6 765.45,-205.46 19.88,-1.33 56.86,-2.75 74.97,-5.88 6.22,-1.08 11.05,-2.03 16.76,-3.3l29.96 -9.75c3.41,-1.07 9.62,-3.23 13.96,-5.79 -144.6,-76.37 -414.9,-261.57 -536.95,-361.98 -171.84,-141.36 -288.37,-245.52 -328.12,-566.61 -1.72,-66.02 6.32,-91.98 -18.73,-137.77 -147.35,244.78 -279.77,441.18 -455.75,647.65 -86.33,101.29 -171.61,199.75 -258.41,296.28l-707.97 668.03c-49.23,43.67 -84.49,89.15 -133.43,133.55 -114.45,103.81 -449.42,437.87 -519.69,570.28l-75.89 -3.6z"/>
   <path class="fil17" d="M9958.84 7929.7c-913.43,248.32 -1480.46,2020.28 -689.08,1837.59 367.4,-84.81 706.7,-498.96 869.61,-793.65 93.93,-169.91 191.02,-393.27 203.81,-621.15 16.14,-287.42 -76.92,-506.37 -384.34,-422.8z"/>
   <path class="fil24" d="M12609.39 27350.48c58.55,-113.02 81.1,-123.7 107.88,-296.86 20.15,-130.26 23.05,-267.13 26.43,-400.6l-21.59 -117.08c-204.84,-155.73 -278.81,279.18 -527.48,243.05 -280.21,-40.72 -212.03,-462.53 -228.83,-582.82l-36.18 -51.07c-39.58,39.02 -49.25,140.25 -99.62,167.85 -277.21,47.1 -825.59,-203.94 -1165.8,-175.62 -64.4,25.16 29.68,7.84 -114.44,123.07 -42.15,33.7 -68.64,72.79 -41.34,155.16 78.63,237.18 850.18,662.33 1133.86,776.88 461.21,186.22 444.83,490.17 967.1,158.05z"/>
   <path class="fil3" d="M17924.61 21825.45c89.39,-76.47 122.65,-16.73 245.91,-56.28 37.89,-12.16 29.49,-11.77 40.32,-18.96 114.52,-76.11 359.13,-680.4 381.05,-781.35l-1267.05 -573.59c-200.63,-91.22 -620.51,-307.55 -772.22,-347.24 67.22,294.51 389.18,799.08 539,1006.88 160.91,223.2 498.19,623.56 833.39,699.06l-0.4 71.48z"/>
   <path class="fil2" d="M7047.33 15775.32c-97.05,34.11 -776.31,431.83 -937.06,519.08 -739.35,401.3 -1561.89,911.62 -2319.08,1313.99 -89.15,47.37 -146.02,82.17 -168.55,193.73 -95.53,473.16 234.39,180.11 567.01,-4.49l2784.57 -1573.42c85.12,-47.47 147.44,-81.87 172.44,-193.32 22.36,-99.65 35.89,-303.09 -99.33,-255.57z"/>
   <path class="fil9" d="M16862.86 29228.5c50.63,89.8 376.88,245.8 497.02,280.14 80.19,-13.6 51.99,-4.05 107.33,-59.29l1155.54 -1252.34c51.44,-49.89 58.68,-37.49 57.93,-98.47 -20.55,-236.48 3.62,-520.54 -7.94,-775.42 -69.4,37.44 -393.15,394.95 -462.95,481.43 -72.2,89.45 -149.15,149.1 -229.34,248.45l-671.75 723.57c-22.8,29.88 -388.23,439.22 -445.85,451.93z"/>
   <path class="fil17" d="M8921.95 23836.29c-33.36,-251.52 21.77,-509.64 22.13,-757.23 110.08,-85.26 467.66,-186.32 509.33,-206.66 64.49,-31.48 119.44,-54.92 183.8,-83.67l2161.4 -974.88 20.6 323.29c40.28,-46.69 18.6,-536.4 19.85,-675.37 2.88,-319.44 -58.16,-233.26 -471.85,-2.83 -727.77,405.38 -1467.37,858.29 -2197.41,1261.95 -212.89,117.72 -257.75,123.37 -259.57,422.91 -0.92,150.21 -32.88,589.23 11.71,692.5z"/>
   <path class="fil0" d="M9364.33 19095.2c76.02,-21.84 629.09,-352.85 733.47,-416.48l670.87 -400.86c62.7,-56.55 35.35,-170.36 34.8,-351.29 -0.75,-244.25 9.39,-229.13 -20.61,-462.33 -309.01,-131.67 -543.55,485.92 -959.97,525 -159.3,14.95 -153.2,4.64 -280.63,96.91 -263.32,190.65 -177.92,561.89 -177.92,1009.04z"/>
   <path class="fil24" d="M16277.56 26128.09c-46.61,-39.42 -89.44,-122.7 -113.2,-203.93 -117.59,-71 -347.39,-225.64 -512.06,-258.37 -1.84,2.96 -1.98,5.55 -2.3,10.21l-8.26 31.2c-19.97,43.21 3.34,19.31 -40.86,42.29 -35.55,18.48 -81.65,27.78 -115.89,47.17 -15.24,268.5 299.68,791.75 569.88,918.07 178.29,83.36 62.47,180.53 263.3,370.19 50.67,47.86 115.2,132.27 233.7,149.72 144.89,21.32 297.09,-67.09 364.96,-133 132.49,-128.69 115.14,-691.32 -12.49,-814.13 -200.26,-120.64 -381.58,443.97 -571.59,113.89 -44.28,-76.92 -38.63,-174.93 -55.18,-273.3z"/>
   <path class="fil21" d="M3373.7 6746.35c-9.8,75.28 0.88,79.51 51.9,145.17l618.49 822.74 564.72 -2029.33 -738.84 420.14c-71.27,44.03 -16.34,6.37 -71.92,62.8 -113.71,115.46 -172.98,260.26 -298.56,427.76 -51.13,68.19 -100.05,81.62 -125.79,150.71z"/>
   <path class="fil13" d="M19468.01 18229.35c402.44,71.21 844.59,69.36 1049.34,-190.52l14.46 -319.74c-88.92,48.52 -138.29,113.06 -275.26,149.06 -139.76,36.72 -232.92,7.44 -307.75,-72.13 -119.58,-127.16 -161.54,-492.42 -358.25,-448.35 -97.8,61.09 -27.82,89.42 -115.95,139.05 -91.31,-85.57 -29.49,-285 -178.78,-451.31 -116.16,-129.4 -154.85,-232.47 -151.76,-462.73 -64.68,-41.06 -82.15,-61.18 -131.53,-97.68 -33.99,121.32 -136.46,305.47 -99.22,446.22 18.92,71.5 81.08,129.14 94.12,193.76 14.9,73.82 -125.81,223.71 82.5,738.51 70.13,173.31 191.23,166.65 437.02,153.82l-58.93 222.05z"/>
   <path class="fil21" d="M3612.46 8430.07c144.04,-44.18 257.96,-100.21 305.82,-271.23 42.68,-152.55 81.34,-293.42 125.81,-444.58l-618.49 -822.74c-51.03,-65.65 -61.7,-69.88 -51.9,-145.17l-599.45 349.94c-60.4,42.17 -12.97,23.95 -74.81,66.31l883.3 1162.7c51.05,68.83 45.2,40.53 29.74,104.76z"/>
   <path class="fil0" d="M6429.92 12364.53c-72.01,292.57 -25.55,455.46 127.39,649.08 83.49,105.7 328.94,409.23 419.6,465.45 96.05,-407.26 417.21,-910.3 332.29,-1384.49 -80.03,-211.84 -268.88,-304.16 -521.97,-166.88 -156.63,84.96 -283.47,246.79 -357.31,436.83z"/>
   <path class="fil0" d="M23829.01 12669c31.01,48.69 -3.33,18.73 54.15,14.29 1.46,-0.11 52.33,-17.01 55.91,-18.58 49.56,-21.69 63.94,-29.61 103.33,-62.82 121.58,-254.46 324.19,-579.43 489.34,-798.82 49.33,-65.52 152.45,-189.37 176.78,-240.63 -56.13,-62.92 -100.05,-89.31 -170.94,-151.06l-523.91 -468.13c-0.83,181.51 -221.89,591.32 -272.31,795.31 -89.95,363.86 129.58,584.17 87.64,930.44z"/>
   <path class="fil16" d="M8685.41 6153.9l12.3 110.1c111.04,9.47 619.99,-310.47 742.4,-378.7l1436.85 -818.06c357.64,-216.96 649.45,-271.79 584.95,-555.89 -27.54,-121.27 -171.47,-0.48 -338.05,95.81l-1813.85 1035.6c-325.12,189.19 -624.6,271.81 -624.6,511.14z"/>
   <path class="fil2" d="M5283.82 16263.87l24.02 177.17c128.76,21.17 843.54,-417.08 994.1,-507 166.36,-99.37 323.57,-175.88 489.9,-274.08 245.71,-145.07 362.11,-136.05 362.11,-466.32 0,-201.57 -87.04,-164.14 -208.92,-88.88 -90.06,55.62 -159.25,91.35 -255.63,144.8 -165.49,91.78 -333.64,188.42 -515.03,287.17 -156.85,85.39 -356.56,201.17 -514.17,289.14 -200.69,112.02 -376.38,161.26 -376.38,438z"/>
   <path class="fil0" d="M22915.47 19802.76c77.44,35.06 75.16,84.11 132.12,92.38l553.63 313.75c-4.91,-261.3 -185.43,-869.37 -256.85,-1144.54 -93.1,-358.69 -201.4,-707.12 -285.56,-1074.92 -57.13,274.68 -177.55,1561.72 -143.34,1813.33z"/>
   <path class="fil25" d="M17425.85 7025.78l-469.8 260.25c-158.51,86.51 -318.57,177.86 -475.5,270.47 -276.14,162.95 -603.05,275.31 -639.46,471.04 -83.74,450.19 201.78,199.09 566.61,-9.67l953.54 -537.67c261.36,-150.28 212.26,-506.31 64.62,-454.42z"/>
   <path class="fil13" d="M15973.9 18477.34c-44.91,299.64 -127.54,443.13 40.01,711.44 57.66,92.33 108.08,157.89 197.96,223.36 88.67,64.59 188.84,119.47 263.32,174.8 81.77,-125.75 195.9,-211.94 392.27,-232.48 12.47,-281.35 -216.53,-404.67 -281.28,-613.56 -75.51,-184.58 -16.54,-245.98 -79.76,-311.54 -69.71,-71.28 -260.59,-63.66 -378.49,-60.77l238.92 100.83c7.86,4.1 28.87,17.28 36.44,22.74 22.83,16.5 18.63,13.71 34.04,30.67 -15.99,29.33 -34.94,62.67 -47.4,113.47 -96.4,-15.78 -316.14,-114.81 -416.03,-158.96z"/>
   <path class="fil4" d="M21312.9 19699.42c-3.06,4.33 -6.21,10.49 -7.9,13.81 -1.67,3.29 -5.6,9.72 -7.57,13.81l-32.02 86.35c-14.26,44.37 -25.26,73.65 -36.82,117.55 4.65,2.79 12.23,0.1 14.95,6.4 2.72,6.31 11.34,4.83 15.15,5.96 168.04,49.8 277.41,11.41 536.74,191.73 129.36,89.94 287.36,251.83 350.69,428.82l93.65 170.12c34.47,-179.16 49.05,-385.68 97.17,-557.04 50.79,-180.9 50.54,-395.66 27.04,-586.66 -212.08,-35.27 -354.9,-78.82 -589.23,-50.52 -93.6,11.3 -180.25,37.23 -254,69.49 -56.22,24.6 -172.68,112.48 -207.86,90.18z"/>
   <path class="fil13" d="M19373.14 10572.33c9.98,-92.45 19.03,-137.19 57.49,-218.87 31.31,-66.5 76.55,-110.17 58.19,-168.48 -290.96,-181.91 -359.59,-207.12 -639.52,-144.53 -112.73,25.2 -168.56,-4.11 -270.59,8.9 -26.03,173.97 96.48,172.77 249.86,172.15 -147.45,122.7 -536.4,-77.23 -640.24,34.15 -52.13,95.63 10.62,311.49 94.91,357.97 20.3,11.2 337.27,86.71 393.28,103.84 211.01,64.52 163.21,86.32 340.39,-12.52 106.57,-59.45 215.19,-123.67 356.23,-132.61z"/>
   <path class="fil26" d="M2637.38 13077.42c15.13,105.96 15.66,98.38 95.56,102.52 4.24,-5.19 9.47,-19.73 11.02,-16.83 0.06,0.12 19.43,-14.27 23.43,-71.23 2.39,-34.02 -12.61,-63.8 -13.5,-115.2 418.17,-424.73 194.98,-1150.27 -333.06,-771.12 -290.53,208.61 -408.65,738.22 -136.49,894.71 121.45,69.84 254.03,1.65 353.04,-22.86z"/>
   <path class="fil0" d="M10266.81 16736.28c-521.1,110.88 -895.56,1182.47 -353.43,1089.05 222.19,-38.29 426.57,-299.92 511.27,-463.12 99.44,-191.61 201.37,-702.36 -157.84,-625.93z"/>
   <path class="fil13" d="M23829.01 12669c-103.87,142.86 -383.76,231.02 -457.83,343.93 -13.76,20.98 -29.85,53.33 -48.24,86.23l-42.27 69.29c-29.6,75.56 -123.8,236.6 -112.88,321.49 13.91,108.17 155.21,176.8 281.71,97.25 103.1,-64.84 131.49,-126.89 250.31,-189.72 87.52,-46.28 230.53,-116.11 330.65,-140.4 68.46,-59.86 124.55,-66.65 177.53,-152.35 50.01,-80.88 59.32,-176.43 115.21,-240.91 -46.54,-36.09 -74.63,-116.16 -122.06,-160.38 -26.91,-25.09 -46.24,-35.77 -81,-55.48 -47.29,-26.81 -47.63,-17.58 -77.75,-46.05 -39.39,33.21 -53.77,41.13 -103.33,62.82 -3.58,1.57 -54.46,18.46 -55.91,18.58 -57.48,4.44 -23.14,34.41 -54.15,-14.29z"/>
   <path class="fil0" d="M8492.65 2105.39c63.56,36.74 101.09,112.28 141.25,174.93 92.83,144.8 303.85,492.41 386.71,588.09 49.11,-39.25 697.04,-1008.96 682.97,-1027.26 -287.62,60.83 -398.52,288.42 -582.37,423.62 -109.42,-111.73 -231.2,-230.91 -353.8,-348.71 -113.82,-109.36 -259.95,-235.03 -360.4,-353.51l-187.29 102.08 272.92 440.76z"/>
   <path class="fil3" d="M19468.01 18229.35c-140.65,8.37 -183.95,98.52 -299.1,142.53 1.15,60.89 -22.61,29.43 -67.25,128.02 185.41,137.93 1044.08,246.33 1401.53,-4.07 56.17,-39.35 107.09,-91.07 142.76,-142.67 69.47,-100.46 22.41,-143.82 -16.12,-235.96 -56.83,-35.98 -37.06,-46.99 -112.48,-78.38 -204.75,259.88 -646.9,261.73 -1049.34,190.52z"/>
   <path class="fil18" d="M23846.46 7873.83c-3.94,122.5 -41.64,266.48 -80.7,369.61 -40.88,107.93 -146.25,246.35 -160.59,315.88 161.09,-41.79 749.55,-209.51 864.02,-210.67l3.19 93.14c61.27,-70.06 177.39,-624.12 210.24,-759.08 -179.33,0 -273.34,49.15 -430.27,88.02 -143.27,35.49 -270.88,80.95 -405.9,103.09z"/>
   <path class="fil0" d="M17014.8 19493.65c207.97,34.5 471.34,428.12 603.93,594.44 51.56,64.68 136.31,169.37 165.88,236.95l45.32 -89.15c8.5,-31.14 14.4,-78.01 21.24,-110.17 13.6,-64.02 27.93,-164.27 64.94,-204.49 -6.39,-130.34 150.26,-602.17 216.81,-703.97 -73.96,-3.02 -1069.92,245.65 -1118.11,276.4z"/>
   <path class="fil13" d="M18521.63 18485.35c48.52,-102.97 154.65,-206.88 281.12,-249.8 -55.03,-132.35 -232.04,-373.9 -315.98,-486.58 -69.44,-93.22 -84.18,-137.15 -221.84,-180.61 -113.1,-35.7 -226.11,-63.41 -353.3,-44.28 39.73,65.47 84.65,122.14 111.31,195.24l-168.53 1.09c-25.43,250.29 207.17,168.79 351.41,347.76 98.58,122.3 24.52,248.16 204.46,329.66 58.98,26.71 14.39,-4.51 61.1,34.42l50.26 53.1z"/>
   <path class="fil8" d="M23624.79 20968.88c-18.84,313.45 -53.59,589.97 -92.72,902.46 -55.24,441.2 142.47,509.69 449.66,294.65 495.1,-346.59 258.7,-646.55 248.86,-1085.74 -3.86,-172.2 12.75,-322.9 -9.64,-496.77l-94.9 -249.26c-6.33,164.21 70.1,512.55 45,975.88 -7.44,137.51 -2.21,342.35 -87.45,422.67 -77.59,73.11 -326.58,110.14 -422.16,56.88 -89.89,-63.6 -37.38,-268.09 -28.05,-407.03 8.86,-131.87 19.41,-290.63 -8.59,-413.72z"/>
   <path class="fil27" d="M16324.22 27763.23c67.2,-110.91 94.41,-166.81 177.26,-253.01 43.26,-45 160.36,-176.79 216.18,-210.2 -170.39,62.71 -376.42,18.99 -426.54,-85.38 -203.9,62.57 -743.8,631.07 -802.58,1022.67l835.68 -474.08z"/>
   <path class="fil8" d="M22425.68 21183.27c11.2,58.87 20.23,84.12 37.39,137.84 28.9,90.49 12.35,89.65 87.23,110.64 35.39,-44.94 98.06,-64.04 156.04,-120.54 61.14,-59.58 78.53,-89.66 100.14,-185.34 25.54,-113.06 43.84,-389.51 120.14,-477.23l34.54 380.69c12.16,97.57 -8.12,75.69 49.08,101.45 22.62,-55.97 48.22,-517.07 66.66,-636.62 49.96,-323.96 95.01,-295.12 -29.29,-599.02 -56.96,-8.27 -54.68,-57.33 -132.12,-92.38 5.41,198.07 -94.32,588.7 -142.17,790.99 -35.16,148.63 -168.4,558.05 -347.61,589.51z"/>
   <path class="fil20" d="M16164.36 25924.15c23.76,81.23 66.6,164.51 113.2,203.93 103.18,52.05 166,123.33 336.68,144.74 165.48,20.75 305.41,-25.94 333.37,-157.18l1.33 -107.17 -329.41 -224.1c-96.91,-59.36 -181.55,-117.14 -276.65,-178.62 -54.38,-35.16 -82,-53.95 -135.07,-92.9 -90.92,-66.74 -73.34,-61.04 -142.41,-73.53l98.94 484.81z"/>
   <path class="fil28" d="M19603.6 16378.54c10.31,-234.91 -15.65,-354.96 -15.65,-572.03 -850.76,0.28 -676.51,700.4 -361.87,728.83 157.96,14.27 297.08,-89.57 377.51,-156.8z"/>
   <path class="fil16" d="M6280.42 7134.99c-468.15,212.38 -500.24,937.14 -99.06,785.36 402.66,-152.34 508.7,-971.2 99.06,-785.36z"/>
   <path class="fil17" d="M8171.46 21921.5c-176.41,68.82 -300.5,198.43 -375.67,379.61 -71.09,171.38 -86.82,490.45 187.68,400.32 415.37,-136.39 593.71,-938.22 187.98,-779.93z"/>
   <path class="fil17" d="M8175.46 20574.89c-410.51,130.84 -625.46,913.11 -192.29,789.6 145.38,-41.45 298.57,-236.03 359.84,-370.84 70.5,-155.11 110.39,-507.34 -167.56,-418.75z"/>
   <path class="fil5" d="M6873.87 12105.03c-349.96,136.9 -383.41,792.92 14.94,651.52 354.4,-125.8 388.14,-809.2 -14.94,-651.52z"/>
   <path class="fil13" d="M11965.8 26196.16c16.8,120.29 -51.38,542.11 228.83,582.82 248.67,36.13 322.64,-398.78 527.48,-243.05l12.28 -64.26c-305.53,-45.31 -514.43,-231.39 -593.82,-483.99 -111.71,99.14 -103.55,244.62 -174.76,208.47z"/>
   <path class="fil0" d="M2546.92 12382.41c-307.72,143.84 -250.75,606.96 27.83,473.89 262.57,-125.42 248.93,-603.26 -27.83,-473.89z"/>
   <path class="fil4" d="M6956.8 13717.64c-63.75,-50.38 -22.29,-67.69 -131.75,-52.84 -42.56,105.34 13.35,101.06 25.95,158.04 11.81,53.41 -28.95,94.15 -21.2,182.98 13.37,153.17 149.94,179.93 259.67,97.37 252.97,-190.32 133.53,-614.52 -132.68,-385.56z"/>
  </g>
 </g>
</svg>
