<?xml version="1.0" encoding="UTF-8"?>
<!DOCTYPE svg PUBLIC "-//W3C//DTD SVG 1.1//EN" "http://www.w3.org/Graphics/SVG/1.1/DTD/svg11.dtd">
<!-- Creator: CorelDRAW 2019 (64-Bit) -->
<svg xmlns="http://www.w3.org/2000/svg" xml:space="preserve" width="321.028mm" height="256.36mm" version="1.1" style="shape-rendering:geometricPrecision; text-rendering:geometricPrecision; image-rendering:optimizeQuality; fill-rule:evenodd; clip-rule:evenodd"
viewBox="0 0 7612.91 6079.38"
 xmlns:xlink="http://www.w3.org/1999/xlink"
 xmlns:xodm="http://www.corel.com/coreldraw/odm/2003">
 <defs>
  <style type="text/css">
   <![CDATA[
    .fil14 {fill:#1B1B24}
    .fil2 {fill:#2D2B3E}
    .fil8 {fill:#43609D}
    .fil1 {fill:#5473B5}
    .fil3 {fill:#6F8BF5}
    .fil13 {fill:#9986F1}
    .fil10 {fill:#A2B9F8}
    .fil12 {fill:#A3D5FF}
    .fil9 {fill:#B9C7FA}
    .fil7 {fill:#CBDCF9}
    .fil11 {fill:#F8C3B9}
    .fil6 {fill:#F8C9D0}
    .fil5 {fill:#FADEE1}
    .fil0 {fill:#FEFEFE}
    .fil4 {fill:#FFAAB5}
   ]]>
  </style>
 </defs>
 <g id="Capa_x0020_1">
  <metadata id="CorelCorpID_0Corel-Layer"/>
  <g id="_1818756880">
   <path class="fil0" d="M2683.07 2371.67c576.38,-15.56 1276.33,-2.65 1876.31,-2.65 40.01,0 237.1,9.08 256.88,-10.44 23.29,-22.97 10.43,-936.63 10.43,-1092.84 0,-114.24 7.72,-257.59 -0.08,-367.76 -4.47,-64.66 -28.59,-45.83 -99.9,-45.25l-1514.24 0.06c-23.84,0 -517.1,-12.21 -536.78,11.19 -7.11,8.45 -20.75,1454.87 7.37,1507.69z"/>
   <path class="fil0" d="M5229.45 4536.78c-15.47,119.75 -117.8,212.46 -167.68,274.19l-43.86 34.54 -0.18 1046.6c-0.6,94.1 7.26,63.84 27.54,125.42 45.83,74.22 179.83,58.56 300.5,58.56l1087.6 -8.37 40.04 -43.26c35.52,-41.48 48.23,-120.86 -6.58,-157.56 16.59,-23.33 25.33,-26.09 45.03,-34.85 118.39,-52.66 89.58,-268.28 30.22,-296.49 -25.5,-12.12 -134.63,11.91 -198.4,-19.83 -2.21,-1.1 -5.11,-2.72 -7.35,-4.52 301.13,3.86 330.39,14.14 331.32,-213.29 0.64,-156.75 -20.12,-78.08 -41.9,-138.14 -61.39,-6.13 -146.64,3.18 -180.04,-25.66 181.3,4.97 314.81,34.28 308.54,-227.54 19.37,1.19 37.99,4.1 56.42,5.22 8.07,0.49 16.21,1.26 24.25,0.51 53.55,-5.05 -32.54,7.82 14.32,-2.7l-30.53 -14.1c-20.82,0.34 -35.55,4.5 -59.1,4.17l-44.05 -93.5c25.71,1.9 50.71,4.47 77.97,6.67 4.89,0.39 39.11,1.78 41.88,1.21 27.46,-5.71 17.11,4.36 26.62,-19.03 -40.31,0 -111.18,8.26 -144.46,5.22 -45.37,-4.14 -52.69,-33.03 -116.9,-36.46 -188.2,-10.04 -683.24,0.32 -891.8,0.59 64.48,-188.78 54.03,-304.19 9.96,-478.76 -33.39,-132.26 -57.68,-218.38 -179.93,-290.99l-50.84 -35.1c-15.21,-26.17 -166.77,-15.47 -189.77,-5.68 -63.96,27.21 -51.26,94.84 -40.84,169.33 15.76,112.75 25.49,259.16 -10.72,373.14l-17.24 40.46z"/>
   <path class="fil1" d="M2354.56 1672.78c3.01,68.1 44.84,81.29 85.78,114.39 -6.7,-97.27 -8.27,-997.1 3.85,-1045.62l2603.73 2.18c14.78,54.46 4.11,1856.05 4.11,1964.01l84.59 0.05c0,-589.85 3.34,-1178.58 2.91,-1768.32 -0.13,-176.33 21.06,-494.64 -23.63,-640.03 -15.34,-49.89 -55.14,-110.92 -80.72,-137.01 -91.9,-93.77 -217.33,-99.27 -341.96,-99.95l-1765.19 -0.44c-132,0 -283.51,-16.9 -393,41.21l-96.15 78.89c-38.37,37.44 -73.75,118 -84.02,182.92 -11.82,74.72 -11.65,1261.88 -0.3,1307.72z"/>
   <path class="fil0" d="M2667.99 3336.59c7.12,122.36 -13.49,758.51 7.59,807.2 16.14,18.58 1387.69,7.89 1599.37,7.89 123.18,0 441.48,15.49 542.05,-4.09 16.72,-68.57 5.26,-362.69 5.26,-456.61l-350.89 -3.85 -2.24 -74.65 -313.82 -4.3c25.74,-14.3 262.49,-5.33 313.76,-5.33l-0.94 -415.39 -1734.1 -0.14c2.42,92.95 -27.03,107.55 -66.04,149.28z"/>
   <path class="fil0" d="M4272.03 5173.46c7.91,-51.22 2.17,-129.22 2.17,-184.93 -0,-52.88 -15.8,-157.79 21.49,-181.78 31.56,-27.79 446.14,-9.7 523.45,-9.7l1.08 -534.91c-35.04,-16.37 -1674.63,-6.77 -2009.31,-7.04 -189.49,-0.15 -140.7,-60.53 -140.7,457.35 0,78.08 0,156.16 0,234.24 0,288.21 -86.88,226.76 400.04,226.76 400.59,0 801.18,0 1201.77,0z"/>
   <path class="fil2" d="M1655.95 3808.92l18.85 333.91 31.57 552.89c1.02,81.19 7.61,131.2 9.03,209.14 7.43,37.95 21.75,157.93 7.97,190.18 10.72,25.78 25.1,354.69 25.1,412.35 14.02,35.05 18.12,153.88 10.13,192.22 23.94,47.8 -23.74,77.69 40.07,83.96l267.71 16.61c38.61,-3.56 22.85,-6.96 50.2,-25.28l0 -1079.19 33.46 0c18.99,81.49 83.45,858.65 102.57,1018.46 4.33,36.21 19.72,102.99 38.33,127.66l0.22 -56.83 262.42 11.74 54.25 0.09 -17.33 -431.37 -62.51 -1566.63 -872.02 10.07z"/>
   <path class="fil3" d="M1623.45 3507.78c-0.56,-55.92 -1.28,-111.44 -2.44,-167.32 -1.34,-64.23 7.38,-114.2 -18.38,-155.59 -34.08,-23.81 -24.81,-16.35 -47.09,-49.91 -58.91,-31.19 -233.2,3.96 -272.94,-20.38 38.64,-27.63 177.48,-0.33 236.35,-11.34 -35.28,-38.91 -44.68,-41.35 -61.55,-98.31 -42.59,0 -144.79,10.62 -174.59,-7.47 30.76,-22.42 122.11,-8.71 167.16,-8.71l5.6 -102.83 -173.68 -1.59c15.29,-26.22 34.12,-18.58 73.07,-17.97 117.35,1.85 109.31,8.71 128.79,-32.96 7.48,-15.99 11.08,-28.79 16.23,-48.96 -56.67,0 -187.17,17.23 -217.72,-13.95l233.01 -5.65 67.04 -161.62c-47.47,-33.24 -91.49,-106.77 -91.56,-191.31 -0.04,-49.05 25.11,-80.39 7.11,-117.01 -15.04,-30.59 -42.21,-41.78 -58.18,-83.84 -295.83,0 -591.69,0.39 -887.52,-0 -192.69,-0.26 -158.95,13.93 -158.95,284.44l-0.22 895.37c-0.85,91.76 16.32,116.93 108.58,117.3l1121.9 -0.4z"/>
   <path class="fil4" d="M1582.3 2603.23l-67.04 161.62 -233.01 5.65c30.55,31.18 161.05,13.95 217.72,13.95 -5.16,20.18 -8.75,32.97 -16.23,48.96 -19.48,41.67 -11.43,34.81 -128.79,32.96 -38.96,-0.61 -57.78,-8.25 -73.07,17.97l173.68 1.59 -5.6 102.83c-45.05,0 -136.4,-13.71 -167.16,8.71 29.8,18.1 132.01,7.47 174.59,7.47 16.86,56.97 26.27,59.41 61.55,98.31 -58.87,11 -197.71,-16.29 -236.35,11.34 39.74,24.34 214.03,-10.82 272.94,20.38 4.37,-72.95 -5.34,-87.22 10.96,-160.52l56.44 -16.47c-24.2,-19.11 -9.24,7.72 -17.49,-35.42l3.94 -114.88c34.1,-29.68 141.5,-35.62 192.93,-14.66 37.25,29.35 26.32,98.35 27.27,147.96 36.94,9.98 63.69,8.03 91.11,26.31 23.05,15.37 27.89,26.31 66.46,47.46l-36.38 178.27c-98.59,0.26 -130.45,-32.58 -168.49,-36.92 -78.36,-8.95 -133.64,27.88 -179.66,28.77 25.77,41.39 17.04,91.36 18.38,155.59 1.17,55.88 1.88,111.4 2.44,167.32l2.87 158.95 1.09 137.48 28.54 4.71 872.02 -10.07c27.81,-57.21 -19.61,-348.54 10.54,-433.81 76.87,-0.37 68.8,-2.62 129.48,-28.45 39.02,-41.73 68.46,-56.33 66.04,-149.28l-35.54 -118.96 -30.25 -92.22c-20.9,-35.67 -134.28,-389.81 -162.8,-476.14 -38.83,-117.55 -48.72,-91.39 -70.64,-140.88 -41.17,-26.18 -56.68,-50.79 -114.55,-76.11 -45.32,-19.83 -93.91,-27.07 -150.49,-32.22 3.73,99.22 -19.67,188.62 -128.42,184.04 -98.25,-4.14 -136.47,-79.35 -119.05,-183.85 -38.09,17.02 -83.08,20.5 -130.15,45.39 -43.08,22.78 -64.75,43.57 -97.82,78 -53.14,55.33 -70.98,152.43 -112.03,228.87z"/>
   <path class="fil5" d="M3221.9 2073.1l1431.03 0.46 1.8 -873.77c-5.36,-34.8 -30.93,-22.08 -112.06,-21.96 -435.34,0.65 -885.32,-9.17 -1317.28,0.41l-3.48 894.86z"/>
   <path class="fil1" d="M2553.55 5796.75l4 270.97c590.43,0 1154.59,8.37 1742.45,8.37 -1.15,-2.28 -3.41,-7.91 -4.05,-6.51 -0.49,1.07 -14.33,-16.12 -16.65,-59.77 -9.69,-182.52 9.64,-514.88 -5.3,-642.94l-1683.53 -1.39 17.33 431.37 -54.25 -0.09z"/>
   <path class="fil0" d="M2668.24 2976.13l30.25 92.22 1769.59 -1.56c3.89,-88.68 -9.97,-288.78 6.73,-355.29l351.89 -3.34c0,-53.71 20.11,-215.39 -11.04,-239.23 -357.82,4.1 -718.02,0.32 -1076.13,0.32l-1051.06 3.46c-1.66,0.47 -5.15,4.85 -6.31,2.92 -23.38,-39.02 -10.96,468.85 -13.92,500.49z"/>
   <path class="fil6" d="M4468.08 3066.79l0.06 120.65 0.94 415.39c-51.27,0 -288.02,-8.97 -313.76,5.33l313.82 4.3 2.24 74.65 350.89 3.85 230.9 1.46 175.49 -0.83 66.93 0.04c298.91,0 287.67,36.81 286.52,-100.18 -0.28,-33.45 -0.06,-66.97 -0.06,-100.43 0,-69.58 -1.08,-139.98 0.55,-209.45l0.85 -317.49 113.66 2.23c8.42,1.18 13.17,2.83 25.57,1.23 57.89,-7.47 -38.47,9.59 13.4,-3.3l13.11 -5.59 -166.28 -5.36 0.07 -162.26 -3.6 -75.27c-42.55,-15.24 -183.23,-6.73 -241.97,-8.41l-108.76 -0.91 -92.02 1.34 -84.59 -0.05 -167.49 -0.59 -57.84 1.02 -351.89 3.34c-16.69,66.5 -2.84,266.6 -6.73,355.29z"/>
   <path class="fil1" d="M6282.74 3352.97l-339.4 4.23c-27.94,14.57 -63.49,2.84 -106.55,31.14 -23.06,15.16 -50.53,42.22 -62.79,70.69 -25.39,58.92 -15.56,177.26 -13.81,249.53 -3.98,19.12 1.14,374.24 17.26,421.65 58.58,172.33 304.45,98.88 329.62,105.4 37.13,24.86 76.27,73.93 118.37,107.51 27.9,22.26 97.46,90.87 115.88,118.37 39.92,-26.73 195.97,-216.66 229.99,-230.13 79.72,-31.56 275.83,56.62 344.31,-115.81 24.91,-62.73 6.25,-144.09 2.89,-206.17 -2.73,-50.51 -8.28,-184.15 13,-221.38 48.55,-84.98 1.36,-64.7 -11.94,-122.67 -2.03,-8.87 -6.4,-48.3 -6.84,-51.72 -11.29,-86.67 -29.27,-110.89 -86.2,-147.77 -148.92,-46.99 -375.15,2.01 -543.78,-12.87z"/>
   <path class="fil7" d="M2527.97 3798.85l62.51 1566.63 1683.53 1.39 -1.97 -193.4c-400.59,0 -801.18,0 -1201.77,0 -486.92,0 -400.04,61.45 -400.04,-226.76 0,-78.08 0,-156.16 0,-234.24 0,-517.88 -48.79,-457.5 140.7,-457.35 334.68,0.27 1974.27,-9.33 2009.31,7.04l-1.08 534.91c-77.31,0 -491.88,-18.1 -523.45,9.7l573.22 -6.82c141.77,0.91 146.14,-9.99 148.99,45.57l43.86 -34.54c-10.25,-13.5 -1.81,5.97 -7.15,-17.01 -3.95,-17.03 -0.18,5.88 -2.15,-14.28 -0.65,-6.69 -0.13,-25.63 -0.05,-33.37l0.74 -1053.87 -230.9 -1.46c0,93.93 11.45,388.04 -5.26,456.61 -100.57,19.58 -418.87,4.09 -542.05,4.09 -211.68,0 -1583.22,10.69 -1599.37,-7.89 -21.08,-48.69 -0.47,-684.84 -7.59,-807.2 -60.68,25.83 -52.61,28.08 -129.48,28.45 -30.15,85.27 17.27,376.6 -10.54,433.81z"/>
   <path class="fil7" d="M2440.34 1787.17c86.95,46.59 186.67,132.38 154.99,282.58 -15.07,71.44 -46.46,103.66 -79.08,147.92 -29.93,40.61 -58.91,91.63 -81.44,141.44 21.91,49.5 31.8,23.33 70.64,140.88 28.52,86.33 141.9,440.47 162.8,476.14 2.95,-31.64 -9.46,-539.51 13.92,-500.49 1.16,1.93 4.65,-2.45 6.31,-2.92l1051.06 -3.46c358.11,0 718.31,3.78 1076.13,-0.32 -37.53,-22.65 -482.77,-10.55 -523.98,-10.55 -244.45,0 -1448.23,9.4 -1586.23,-4.49 -6.49,-32.21 -16.37,-37.82 -22.38,-82.24 -28.12,-52.82 -14.48,-1499.23 -7.37,-1507.69 19.68,-23.4 512.94,-11.19 536.78,-11.19l1514.24 -0.06c71.31,-0.58 95.43,-19.41 99.9,45.25 64.71,5.22 58,72.89 57.93,141.87 -0.17,153.85 6.55,1308.92 -3.88,1351.27 -12.76,51.81 -37.72,37.44 -37.72,70.93 0,35.8 36.64,22.63 41.54,100.1 2.81,44.34 0.05,99.48 0.05,144.99l167.49 0.59c0,-107.96 10.67,-1909.54 -4.11,-1964.01l-2603.73 -2.18c-12.13,48.51 -10.55,948.34 -3.85,1045.62z"/>
   <path class="fil3" d="M4272.03 5173.46l1.97 193.4c14.93,128.06 -4.4,460.42 5.3,642.94 2.32,43.65 16.16,60.84 16.65,59.77 0.64,-1.4 2.9,4.23 4.05,6.51 43.82,0 665.28,5.35 691.47,-2.94 47.81,-15.13 6.86,-25.74 53.81,-55.62 -20.28,-61.58 -28.13,-31.32 -27.54,-125.42l0.18 -1046.6c-2.85,-55.56 -7.23,-44.66 -148.99,-45.57l-573.22 6.82c-37.29,23.99 -21.49,128.9 -21.49,181.78 0,55.71 5.74,133.71 -2.17,184.93z"/>
   <path class="fil1" d="M1121.02 1909.9c37.29,-24.97 180.51,-170.83 200.78,-209.15l231.18 -11.43c170.78,-35.73 111.24,-275.33 111.71,-356.56 0.48,-83.72 -0.28,-167.48 0.22,-251.2 0.58,-96.64 -8.51,-133.9 -60.43,-182.18 -54.56,-50.73 -107.71,-45.94 -191.88,-36.44 -91.7,10.35 -664.35,0.17 -721.76,14.44 -173.58,43.15 -121.53,233.62 -121.95,346.49 -0.51,138.14 -22.48,365.34 52.72,440.86 87.19,87.56 247.88,9.12 305.59,62.51 21.31,19.72 40.42,41.75 62.04,63.44l131.77 119.21z"/>
   <path class="fil0" d="M6163.89 1987.53c35.68,89.15 71.15,136.47 53.28,259.27 -23.33,160.3 -166.62,299.97 -315.05,337.52 -129.47,32.75 -189.46,-5.69 -271.43,-30.28 -93.4,45.56 -165.79,55.5 -268.19,85.5 -6.92,26.6 -14.95,44.97 -25.1,67.81 58.73,1.69 199.42,-6.82 241.97,8.41l3.6 75.27 155.32 -3.32c163.34,-270.88 470.37,-294.59 667.95,-97.79 219,218.14 104.64,580.37 -123.49,663.04 168.63,14.89 394.86,-34.12 543.78,12.87 39.68,-76.5 61.64,-140 83.66,-234.53 253.44,0 284.73,31.8 284.47,-150.57 -0.27,-188.23 -23.83,-150.6 -284.47,-150.6 -3.24,-38.94 -18.67,-76.82 -30.84,-111.83 -21.52,-61.93 -2.29,-54.57 17.39,-110.76 28.76,-82.1 39.08,-153.64 97.1,-204.07 24.79,6.62 47.92,35.25 79.92,22.41 32.77,-13.15 11.68,1.87 20.47,-22.41 105.68,2.35 89.07,193.89 154.23,264.06 17.84,19.21 17.97,9.22 35.45,31.48 3.61,4.6 10.89,52.92 67.9,46.33 8.07,-0.93 21.74,-7.08 28.23,-13.89 20.29,-21.28 7.83,-31.13 26.18,-57.81 15.13,-22 19.84,-15.22 36.94,-46.72 31.15,-57.41 33.6,-112.48 72.53,-178.44 41.37,-70.1 71.17,-34.54 97.22,-70.1 -115.65,-53.49 -155.38,191.65 -217.51,284.44 -35.97,-8.38 -74.9,-38.95 -92.03,8.37 -67.09,-5.58 -71.81,-100.33 -102.62,-181.82 -44.05,-116.54 -62.79,-71.76 -106,-136.61 -7.22,-10.84 -9.99,-13.71 -17.26,-24.57 -72.51,0 -51.63,15.83 -83.25,50.61 -17.02,18.73 -36.7,20.73 -64.12,69.73l-70.15 197.56c-22.23,-16.29 -24.88,-33.22 -38.94,-61.45 -13.69,-27.48 -23.28,-39.34 -36.35,-64.04 25.22,-37.67 99.09,-102.87 136.25,-139.82 75.28,-74.85 1.13,-120.17 -46.32,-167.62 -47.46,-47.46 -92.78,-121.61 -167.63,-46.32 -36.95,37.16 -102.16,111.03 -139.82,136.25 -50.18,-26.55 -83.25,-53.49 -140.9,-76.61 -40.27,-16.15 -116.36,-44.53 -168.63,-48.88 0,-110.41 22.28,-265.44 -50.2,-276.12 -24.19,37.09 -5.52,54.11 -43.56,86.04z"/>
   <path class="fil8" d="M2260.9 571.37l1.29 259.34 -3.41 472.65c16.14,30.03 5.08,175.67 5.16,222.21 0.09,57.53 7.26,54.71 36.97,82.97 19.89,18.92 32.1,46.62 53.66,64.24 -11.34,-45.84 -11.52,-1233 0.3,-1307.72 10.27,-64.92 45.65,-145.48 84.02,-182.92l96.15 -78.89c109.49,-58.11 261,-41.21 393,-41.21l1765.19 0.44c124.63,0.69 250.06,6.18 341.96,99.95 25.57,26.1 65.38,87.13 80.72,137.01 44.69,145.39 23.51,463.7 23.63,640.03 0.42,589.74 -2.91,1178.46 -2.91,1768.32l92.02 -1.34 0 -56.92c-11.57,-25.21 -9.04,-867.34 0.98,-888.58 40.02,-28.87 27.34,-78.03 27.2,-135.47 -0.14,-57.19 -0.02,-112.63 0.12,-169.66l327.41 -169.24 187.8 -98.3 376.74 -191.25c45.42,-20.78 170.76,-103.89 213.83,-96.47 37.46,6.46 41.19,24.64 87.34,19.26l25.1 -0.09c13.01,-13.44 128.6,-74.72 150.09,-80.64 7.88,-10.51 -9.71,-8.68 25.59,-15.4 32.42,-19.21 40.12,-16.64 50.2,-59.89 -59.64,-68.61 -75.29,-4.59 -75.29,-142.22 -28.13,-18.84 -28.77,-37.97 -71.83,-14.12 -10.3,5.7 -16.63,11.63 -31.33,19.71l-108.95 58.38c-118.59,63.06 -34.3,124.39 -147.5,178.76 -23.86,11.46 -47.17,22.04 -71.88,36.87 -27.1,16.26 -46.18,30.53 -78.05,38.3 -17.38,21.71 -11.48,13.96 -39.56,28.48 -15.01,7.77 -24,12.28 -38.75,19.83 -25.79,13.19 -51.72,28.95 -78.69,38.23l-209.94 109.36 -196.01 99.45 -179.07 98.46 -117.11 58.24c-1.2,-21.07 2.03,-45.81 -4.47,-65.47 -14.34,-43.4 -5.67,-0.39 -28.4,-35.22l4.45 -898.24c0,-150.96 -72.39,-264.69 -163.64,-326.85 -124.82,-85.02 -233.79,-63.26 -430.33,-63.26l-1957.61 -0c-99.59,-0.06 -139.12,1.95 -207.81,34.8 -51.09,24.43 -100.82,69.72 -136.63,114.34 -71.13,88.62 -88.27,251.48 -71.72,419.74z"/>
   <path class="fil9" d="M6433.37 6067.72c113.98,-17.99 100.35,-92.49 100.35,-217.51 27.85,-14.74 48.12,-24.54 65.88,-51.24 95.54,-143.57 -26.73,-241.08 26.06,-291.6 19.87,-19.02 86.95,-36.09 92.35,-150.5 1.71,-36.09 4.09,-79.88 -3.4,-114.22 -9.92,-45.51 -29.15,-42.95 -30.31,-95.17 25.35,-86.87 313.13,-58.58 451.76,-58.56 53.63,0 128.6,10.32 157.3,-18.38 33.01,-33.01 18.38,-266.22 18.38,-324.62 0,-47.25 9.96,-131.16 -5.19,-170.49 -18.99,-49.3 -73.82,-38.83 -137.02,-38.67 -189.21,0.49 -1281.68,12.69 -1372.01,-8.35l-24.83 -192.68c-27,-109.96 -48.98,-229.55 -131.98,-303.05 -32.26,-28.57 -99.87,-70.05 -152.69,-73.15l50.84 35.1c122.25,72.61 146.54,158.73 179.93,290.99 44.07,174.57 54.53,289.98 -9.96,478.76 208.56,-0.26 703.6,-10.62 891.8,-0.59 64.21,3.42 71.52,32.32 116.9,36.46 33.28,3.04 104.15,-5.22 144.46,-5.22 -9.51,23.39 0.84,13.32 -26.62,19.03 -2.76,0.57 -36.99,-0.81 -41.88,-1.21 -27.26,-2.2 -52.26,-4.77 -77.97,-6.67l44.05 93.5c23.55,0.33 38.28,-3.83 59.1,-4.17l30.53 14.1c-46.86,10.52 39.23,-2.35 -14.32,2.7 -8.04,0.76 -16.18,-0.01 -24.25,-0.51 -18.43,-1.12 -37.05,-4.03 -56.42,-5.22 6.27,261.82 -127.24,232.51 -308.54,227.54 33.4,28.84 118.65,19.53 180.04,25.66 21.78,60.06 42.55,-18.61 41.9,138.14 -0.93,227.43 -30.2,217.15 -331.32,213.29 2.24,1.8 5.14,3.42 7.35,4.52 63.78,31.73 172.91,7.71 198.4,19.83 59.36,28.21 88.16,243.83 -30.22,296.49 -19.7,8.76 -28.44,11.53 -45.03,34.85 54.81,36.7 42.1,116.08 6.58,157.56l-40.04 43.26z"/>
   <path class="fil5" d="M1129.39 4227.72c20.73,-35.99 17.73,-73.27 67.8,-83.04 32.61,-6.36 119.82,-1.85 158.08,-1.85 106.51,0 213.02,0 319.53,0l-18.85 -333.91 -28.54 -4.71 -1.09 -137.48c-274.4,0 -548.8,0 -823.2,0 -308.01,0 -238.61,-40.22 -242.73,435.15 -0.48,55.82 -3.89,86.84 31.81,110.41 55.69,36.77 432.67,13.11 537.19,15.44z"/>
   <path class="fil2" d="M1439.66 2211.08c15.97,42.06 43.15,53.25 58.18,83.84 18,36.61 -7.15,67.96 -7.11,117.01 0.07,84.54 44.09,158.06 91.56,191.31 41.05,-76.45 58.89,-173.54 112.03,-228.87 33.07,-34.43 54.74,-55.22 97.82,-78 47.07,-24.89 92.06,-28.37 130.15,-45.39 -14.91,-75.78 -138.27,-19.02 -110.72,-411.79 55.93,-1.02 52.55,-8.17 87.46,-36.83 1.24,1.7 2.1,4.49 2.62,5.74l6.9 17.54c4.38,12.13 -3.36,3.13 7.22,21.9 45.88,2.92 88.8,-3.96 129.27,-17.7 49.36,-16.76 63.01,-37.43 96.73,-54.95 7.75,182.2 91.32,107.25 149.1,117.53 59.86,10.66 104,133.68 -52.94,133.15 -1.73,159.23 -74.87,122.88 -68.16,225.22 56.58,5.15 105.17,12.39 150.49,32.22 57.87,25.32 73.38,49.93 114.55,76.11 22.54,-49.8 51.51,-100.83 81.44,-141.44 32.63,-44.26 64.02,-76.48 79.08,-147.92 31.68,-150.19 -68.04,-235.98 -154.99,-282.58 -40.94,-33.1 -82.77,-46.29 -85.78,-114.39 -21.55,-17.62 -33.77,-45.32 -53.66,-64.24 -29.71,-28.26 -36.88,-25.44 -36.97,-82.97 -0.08,-46.54 10.98,-192.18 -5.16,-222.21 -30.61,30.96 -16.73,202.5 -16.73,255.17 -21.81,-14.61 -30.57,-27.26 -56.64,-43.75 -23.49,-14.86 -46.66,-24.56 -75.89,-32.86 -170.24,-48.37 -349.69,56.3 -388.25,216.74 -21.02,87.47 -2.2,80.85 -71.87,137.27 -42.39,34.33 -85.16,52.38 -127.05,82.1 -73.14,51.91 -144.5,186.77 -82.69,293.04z"/>
   <path class="fil3" d="M5705.99 1841.13c-25.51,20.28 -82.09,41.68 -134.52,85.46 -9.67,8.07 -46.24,44.87 -54.22,54.39 -5.71,6.81 -40.29,58.25 -42.54,61.98 -40.96,121.13 -46.57,115.7 -35.01,257.49 31.35,68.13 30.63,91.37 73.92,152.67 9.83,13.92 37.98,42.85 53.23,55.46 19.41,16.03 43,24.49 63.83,45.47 81.97,24.59 141.96,63.03 271.43,30.28 148.44,-37.55 291.72,-177.23 315.05,-337.52 17.87,-122.8 -17.6,-170.12 -53.28,-259.27 -115.13,-135.19 -211.18,-205.71 -457.9,-146.4z"/>
   <path class="fil6" d="M6650.84 823.67c-35.3,6.72 -17.71,4.89 -25.59,15.4l18.64 40.45c5.38,15.72 10.86,32.44 15.31,51.57 47.06,0 73.51,-12.97 124.21,-7.31 34.62,3.86 78.91,15.68 118.4,15.68 28.13,-53.17 41.61,-100.29 75.29,-150.59 45.25,0 120.13,34.82 150.59,66.93 -3.99,47.9 -57.27,125.87 -66.93,167.32 47.35,25.06 135.88,112.24 150.59,167.32 64.86,-5.4 112.95,-48.8 175.68,-50.2 25.79,38.51 53.96,95.29 58.56,150.59 -43.11,28.87 -109.62,53.48 -167.32,66.93 17.56,211.05 3.81,96.29 -8.37,242.61l150.59 66.93c0,57.88 -28.22,125.31 -66.93,158.95 -45.72,-3.8 -115.54,-54.86 -167.32,-66.93 -7.59,28.44 -10.82,21.66 -29.68,45.61 -29.69,37.71 -91.04,94.12 -137.63,104.98 7.08,30.38 17.13,57.33 28.18,88.95 4.94,14.14 13.98,32.83 16.97,42.83 8.43,28.2 4.13,50.33 -23.13,65.92l-114.04 36.55c-34.32,-29.83 -64.24,-119.88 -75.29,-167.32 -225.2,18.74 -142.39,-6.13 -242.61,-8.37 -10.29,44.17 -46.73,112.41 -66.93,150.59 -53.73,0 -105.45,-26.32 -150.59,-50.19 0,-81.85 43.9,-112.73 58.56,-175.68 -9.51,-12.98 -63.24,-59.13 -81.64,-77.31 -24.42,-24.12 -59.65,-63.56 -68.94,-98.37l-58.18 17.9c-0.39,-59.15 8.07,-100.81 7.98,-168.48 -0.19,-153.44 1.15,-334.96 -66.93,-476.86 51.12,11.91 82.74,46.65 133.85,58.56 29.36,-19.66 46.77,-53.59 77.26,-81.7 27.82,-25.65 65.2,-51.31 98.43,-68.89 -3.07,-36.84 -13.91,-39.22 -16.73,-78.32l-25.1 0.09c5.95,29.8 14.15,38.78 16.73,69.85 -52.38,13.99 -109.21,100.55 -158.95,133.85 -33.81,-17.89 -59.75,-27.5 -97.9,-44.32 -36.07,-15.9 -48.89,-26.95 -61.05,-82.17l-376.74 191.25c37.25,125.66 69.53,194.73 50.32,352.81 -17.17,141.31 -62.47,196.12 -116.48,300.05 246.72,-59.3 342.77,11.21 457.9,146.4 38.04,-31.92 19.37,-48.95 43.56,-86.04 3.07,-52.39 23.92,-89.45 25.1,-142.18l58.17 -17.9c14.05,52.15 90.24,122.29 134.24,151.75 -28.24,121.22 -130.3,148.45 19.39,223.22 133.47,66.66 122.62,-11.76 181.39,-122.83 26.7,2.22 78.89,11.48 102.82,14.7 47.14,6.34 69.53,-6.33 114.7,-6.33 5.38,64.66 39.19,117.53 66.93,158.95 54.1,0 152.39,-30.01 173.38,-61.55 22.25,-33.43 -23.19,-138.64 -39.53,-172.7 57.31,-38.37 117.53,-79.74 150.59,-142.22 45.09,10.51 80.6,44.22 121.01,55.42 72.94,20.21 79.72,-26.83 99.37,-69.28 18.46,-39.86 53.92,-83.61 7.38,-121.82 -20.98,-17.22 -96.41,-49.52 -127.37,-56.73 0.58,-26.14 8.93,-73.86 13.42,-103.92 8.75,-58.58 -5.06,-63.73 -5.06,-113.59 123.83,-59.42 191.28,-19.39 141.32,-166.41 -54.52,-160.47 -112.13,-52.12 -224.98,-42.73 -13.98,-52.35 -87.25,-119.38 -133.85,-150.59 10.91,-20.61 16.49,-33.37 26.27,-57.39 35.33,-86.7 72.56,-115.61 -41.79,-161.34 -38.27,-15.31 -80.97,-53.31 -120.08,-9.01 -10.93,12.39 -52.29,107.9 -56.82,127.35 -41.97,0 -58.17,-8.18 -100.06,-8.7 -38.83,-0.48 -78.5,0.33 -117.45,0.33 -11.3,-23.56 -20.08,-52.14 -25.1,-82.33z"/>
   <path class="fil9" d="M1129.39 4227.72l0 150.11c-53.1,-28.1 -59.09,-99.07 -113.63,-55.78 -18.85,14.96 -7.36,10.91 -20.89,30.01 -26.68,37.66 -42.52,23.28 -72.19,78.4 -24.6,45.71 -32.93,88.73 -49.47,142.94 -18.36,60.16 -38.43,87.54 -78.45,122.33 -44.74,-29.96 -57.29,-43.5 -92.03,8.36 -93.16,-21.7 -103.98,-46.28 -155.3,-112.41 -73.36,-94.54 -79.68,-64.8 -106.77,-94.01l-30.74 -44.55 -50.2 0c-7.5,11.2 -10.9,13.65 -17.48,24.34 -8.11,13.16 -6.57,14.12 -15.07,26.76 -29.52,43.88 -39.94,15.24 -106.85,152.49 -21.92,44.96 -38.98,70.69 -76.55,99.13 -40.3,30.51 -75.2,31.91 -143.78,31.91l0 25.1c55.9,0 88.6,-3.81 127.05,-23.54 137.8,-70.71 111.87,-196.81 207.58,-260.9 75.8,50.76 46.72,16.56 108.76,0 34.43,9.19 49.98,27.82 70.65,54.83 62.67,81.91 76.04,101.44 157.48,135.32l21.51 11.96c2.35,2.15 23.03,35.42 26.43,40.5l58.56 0c14.95,-22.33 13.65,-25.11 26.48,-48.81l26.95 -31.61c31.95,-31.33 45.5,-60.02 60.78,-106.53 17.58,-53.5 28.75,-116.62 62.83,-163.05 15.84,-21.58 19.16,-20.55 40.47,-34.82 23.39,15.66 19.69,29.12 57.35,25.08 53.28,-5.7 11.32,-19.78 59.77,-25.08 36.51,54.51 6.49,128.08 17.48,225.13 10.63,93.85 57.01,84.41 158.2,84.41 14.98,56.11 80.98,41.37 92.02,0l326 0 -31.57 -552.89c-106.51,0 -213.02,0 -319.53,0 -38.25,0 -125.47,-4.51 -158.08,1.85 -50.07,9.76 -47.07,47.05 -67.8,83.04z"/>
   <path class="fil4" d="M5374.18 1333.29c-27.23,-44.71 -81.5,-84.95 -146.21,-98.43l1.22 -211.73c162.25,21.24 266.12,111.68 324.06,211.7l196.01 -99.45 -29.53 -34.77c-108.19,-164.18 -276.3,-269.27 -485.37,-289.8 -13.39,-50.29 -5.33,-180.07 -5.33,-239.44 270.09,22.64 518.93,151.24 669.85,367.02 18.51,26.47 35.45,63.03 60.33,87.62 26.97,-9.28 52.9,-25.05 78.69,-38.23 14.75,-7.55 23.74,-12.06 38.75,-19.83 28.08,-14.52 22.18,-6.78 39.56,-28.48 -89.23,-152.71 -200.35,-275.27 -347.13,-373.11 -77.88,-51.92 -146.87,-86.56 -239.25,-120.48 -49.28,-18.09 -236.75,-69.04 -301.18,-53.28l-4.45 898.24c22.73,34.83 14.06,-8.17 28.4,35.22 6.5,19.66 3.27,44.4 4.47,65.47l117.11 -58.24z"/>
   <path class="fil4" d="M5584.36 1286.57c19.63,91.61 42.33,126.51 27.03,235.61 -25.63,182.8 -176.71,347.79 -383.41,370.44l1.65 -131.68c-10.03,21.25 -12.55,863.38 -0.98,888.58 32.85,6.96 99.23,-10.25 133.85,-9.98 102.4,-30 174.79,-39.94 268.19,-85.5 -20.83,-20.98 -44.42,-29.44 -63.83,-45.47 -15.26,-12.6 -43.4,-41.54 -53.23,-55.46 -43.29,-61.3 -42.57,-84.54 -73.92,-152.67 -48.79,34.9 -144.85,40.22 -212.34,43.92 -1.43,-58.93 -7.94,-187.57 5.8,-238.88 45.61,-4.92 86.92,-11.43 126.26,-22.82 41.94,-12.15 74.57,-33.65 115.29,-39.71 2.25,-3.73 36.83,-55.17 42.54,-61.98 7.98,-9.52 44.54,-46.32 54.22,-54.39 52.44,-43.78 109.02,-65.18 134.52,-85.46 54.01,-103.93 99.31,-158.74 116.48,-300.05 19.21,-158.08 -13.07,-227.15 -50.32,-352.81l-187.8 98.3z"/>
   <path class="fil10" d="M2683.07 2371.67c6,44.42 15.88,50.03 22.38,82.24 137.99,13.89 1341.78,4.49 1586.23,4.49 41.22,0 486.45,-12.1 523.98,10.55 31.15,23.84 11.04,185.51 11.04,239.23l57.84 -1.02c0,-45.51 2.76,-100.65 -0.05,-144.99 -4.91,-77.47 -41.54,-64.3 -41.54,-100.1 0,-33.5 24.95,-19.13 37.72,-70.93 10.43,-42.35 3.71,-1197.42 3.88,-1351.27 0.08,-68.98 6.78,-136.65 -57.93,-141.87 7.8,110.17 0.08,253.52 0.08,367.76 0,156.21 12.86,1069.87 -10.43,1092.84 -19.79,19.51 -216.87,10.44 -256.88,10.44 -599.98,0 -1299.93,-12.91 -1876.31,2.65z"/>
   <path class="fil3" d="M5749.18 2958.67l-13.11 5.59c-51.87,12.89 44.49,-4.17 -13.4,3.3 -12.4,1.6 -17.15,-0.05 -25.57,-1.23l-3.11 47.89c41.91,11.38 108.95,4.55 153.73,4.55l141.43 2.63c17.37,4.75 9.37,1.23 21.16,9.52 -7.4,6.95 5.14,17.5 -70.41,16.35 -28.03,-0.42 -55.76,-0.59 -83.81,-0.59 -53.21,-0 -106.42,0 -159.63,0 46.01,177.44 72.62,161.7 122.71,234.29l11.82 2.15c116.5,-6.62 285.61,0.64 410.89,-0.26 37.48,-0.27 38.83,5.59 47.84,-19.08 13.69,-37.46 3.87,-444.49 -6.98,-467.1 -49.7,-23.84 -448.06,-6.37 -544.46,-8.96 -22.08,42.77 -39.45,98.34 -44.75,159.55 14.85,0.02 21.3,-0.92 35.72,2.16 21.84,4.66 3.57,-2.54 19.93,9.25z"/>
   <path class="fil0" d="M6466.79 1458.15c0,249.33 304.1,377.51 491.27,206.83 126.49,-115.35 126.52,-370.64 -78.36,-469.16 -201.53,-96.92 -412.91,57.8 -412.91,262.33z"/>
   <path class="fil11" d="M2557.55 6067.72l-4 -270.97 -262.42 -11.74 -0.22 56.83 1.56 50.19c-39.35,0 -78.45,0.05 -117.57,-0.2 -65.42,-0.42 -61.17,5.9 -108.55,16.94l0 -108.58 -267.71 -16.61 0 108.46c-141.16,0 -253.18,-21.12 -274.47,102.29 -22.13,128.22 36.28,73.39 291.21,73.39 56.29,0 129.35,-4.05 183.61,0.44 51.97,4.3 117.46,14.52 182.2,5.64 107.51,-14.74 254.31,-6.08 376.35,-6.08z"/>
   <path class="fil11" d="M1922.3 2250.97c-17.42,104.5 20.79,179.71 119.05,183.85 108.75,4.58 132.15,-84.83 128.42,-184.04 -6.71,-102.34 66.43,-65.99 68.16,-225.22 156.94,0.53 112.8,-122.49 52.94,-133.15 -57.77,-10.29 -141.34,64.66 -149.1,-117.53 -33.73,17.52 -47.38,38.19 -96.73,54.95 -40.47,13.74 -83.38,20.62 -129.27,17.7 -10.58,-18.77 -2.84,-9.77 -7.22,-21.9l-6.9 -17.54c-0.51,-1.25 -1.38,-4.04 -2.62,-5.74 -34.9,28.66 -31.53,35.81 -87.46,36.83 -27.56,392.77 95.8,336.01 110.72,411.79z"/>
   <polygon class="fil9" points="2734.03,3187.31 4468.13,3187.45 4468.08,3066.79 2698.49,3068.35 "/>
   <path class="fil6" d="M5749.26 1135.38l209.94 -109.36c-24.89,-24.59 -41.82,-61.15 -60.33,-87.62 -150.92,-215.78 -399.75,-344.38 -669.85,-367.02 0,59.36 -8.06,189.14 5.33,239.44 209.08,20.53 377.18,125.63 485.37,289.8l29.53 34.77z"/>
   <path class="fil6" d="M1639.7 579.74c151.53,-16.28 364.04,15.95 501.95,-8.36 10.68,-22.26 19.75,-199.07 4.47,-230.35 -19.92,-40.76 -175.24,-20.63 -230.35,-20.63l-368.32 -0.22c-65.61,-0.6 -60.92,-0.96 -100.17,25.32l0 209.14 26.89 23.3 165.52 1.79z"/>
   <path class="fil8" d="M5061.77 4810.97c49.89,-61.73 152.22,-154.44 167.68,-274.19l-0.8 -845.17 -175.49 0.83 -0.74 1053.87c-0.08,7.75 -0.6,26.68 0.05,33.37 1.96,20.16 -1.81,-2.75 2.15,14.28 5.34,22.99 -3.1,3.52 7.15,17.01z"/>
   <path class="fil0" d="M6232.07 3791.94c-158.08,45.54 -216.56,250.02 -83.5,260.23l327.11 0.37c138.25,-6.22 101.5,-225.39 -72.84,-264.31 105.79,-78.39 62.93,-265.05 -86.64,-266.04 -96.1,-0.64 -226.19,122.53 -84.13,269.75z"/>
   <path class="fil4" d="M1107.23 5841.85l40.22 -100.39c-42.94,-33.46 -67.06,-22.65 -142.73,-101.22l-46.2 -54.19c-130.86,-188.69 -105.63,-427.29 43.07,-583.08 80.17,-84 212.77,-142.89 328.34,-140.25 72.57,1.66 132.39,26.25 189.88,42.16l39.4 -100.39c-191.47,-75.44 -379.81,-64.21 -550.46,55.05l-78.39 63.83c-35.37,35.37 -95.38,118.24 -115.59,168.84 -138.18,345.93 47.34,642.31 292.45,749.64z"/>
   <path class="fil0" d="M1121.02 1524.34c37.31,-17.81 235.47,-187.67 259.37,-267.28 24.16,-80.46 -21.47,-145.91 -71.4,-170.83 -101.85,-50.82 -148.29,11.09 -197.1,46.42 -70.27,-128.76 -321.18,-49.41 -252.52,135.18 27.88,74.96 229.63,244.81 261.65,256.51z"/>
   <path class="fil4" d="M1639.7 579.74c-14,20.91 -15.23,14.5 -17.24,49.69l8.88 192.92c103.72,24.16 489.11,8.37 630.85,8.37l-1.29 -259.34 -119.24 0c-137.91,24.31 -350.42,-7.92 -501.95,8.36z"/>
   <path class="fil6" d="M5229.63 1760.94l-1.65 131.68c206.71,-22.66 357.78,-187.64 383.41,-370.44 15.3,-109.1 -7.4,-144 -27.03,-235.61l-327.41 169.24c-0.14,57.03 -0.26,112.47 -0.12,169.66 0.14,57.44 12.82,106.6 -27.2,135.47z"/>
   <path class="fil12" d="M2907.99 942.87c-273.04,66.02 -177.1,471.01 92.85,412.47 272.77,-59.16 181.34,-478.76 -92.85,-412.47z"/>
   <path class="fil12" d="M2900.26 3444.26c-276.6,55.43 -189.82,470.97 85.11,414.44 270.03,-55.53 187.53,-469.07 -85.11,-414.44z"/>
   <path class="fil0" d="M591.83 2969.92c27.58,148.38 139.66,268.27 310.5,259.65 144.59,-7.29 287.8,-138.93 277.05,-297.71l-293.7 0 -283.35 3.29c-13.26,15.29 -15.11,-26.37 -10.51,34.77z"/>
   <path class="fil1" d="M1121.02 1485.02l129.24 -115.17c28.07,-29.99 93.47,-76.35 102.25,-140.35 13.78,-100.56 -111.41,-172.73 -193.83,-93.52 -26.96,25.91 -24.25,42.87 -42.71,76.25 -27.88,-62.41 -42.27,-108.62 -120.7,-110.1 -70.44,-1.33 -210.06,85.91 -8.11,272.08 23.12,21.31 41.29,31.76 63.31,54.09 25.96,26.33 39.1,37.24 70.56,56.72z"/>
   <path class="fil9" d="M2901.48 4347.71c-244.36,57.95 -165.01,422.58 81.13,368.88 89.43,-19.51 168.7,-108.06 142.3,-225.94 -19.34,-86.36 -108.56,-170.18 -223.43,-142.94z"/>
   <path class="fil9" d="M2883.61 2565.79c-243.42,85.98 -115.08,433.47 115.26,360.54 82.51,-26.13 152.84,-118.75 123.98,-232.65 -21.57,-85.12 -128.14,-167.12 -239.23,-127.89z"/>
   <path class="fil0" d="M5295.57 3691.65c20.9,31.64 49.72,53.68 77.36,81.77 30.23,30.72 50.92,64.21 103.46,41.46 33.72,-14.6 150.35,-134.72 170.55,-164.89 33.55,22.46 66.51,49.9 113.24,58.56 -1.75,-72.27 -11.58,-190.62 13.81,-249.53 12.27,-28.47 39.73,-55.53 62.79,-70.69 43.06,-28.3 78.62,-16.57 106.55,-31.14 -39.92,-12.79 -89.84,-43.64 -112.35,-74.07l-11.82 -2.15 -236.58 0.62c-1.64,69.47 -0.55,139.88 -0.55,209.45 0,33.45 -0.22,66.98 0.06,100.43 1.15,136.99 12.39,100.18 -286.52,100.18z"/>
   <path class="fil11" d="M1622.93 2957.98l-56.44 16.47c-16.3,73.3 -6.59,87.56 -10.96,160.52 22.28,33.56 13.01,26.1 47.09,49.91 46.02,-0.89 101.3,-37.72 179.66,-28.77 38.04,4.34 69.9,37.18 168.49,36.92l36.38 -178.27c-38.58,-21.15 -43.41,-32.09 -66.46,-47.46 -27.42,-18.28 -54.17,-16.33 -91.11,-26.31 -4.1,29.97 -1.96,32.7 -36.1,42.82 -19.89,5.9 -49.07,8.06 -69.58,5.41 -40.55,-5.25 -58.49,-36.06 -100.98,-31.24z"/>
   <path class="fil13" d="M1147.45 5741.46l-40.22 100.39c39.62,23.82 110.2,35.35 170.13,44.47 271.21,41.26 452.08,-169.51 481.24,-186.69 7.99,-38.35 3.89,-157.17 -10.13,-192.22 -8.74,9.9 1.15,-4.64 -10.65,14.29 -58.25,93.4 -84.7,147.15 -215.01,211.61 -145.59,72.02 -255.65,38.34 -375.34,8.16z"/>
   <path class="fil13" d="M591.83 2969.92c-4.61,-61.14 -2.75,-19.49 10.51,-34.77l283.35 -3.29 3.16 -296.56c-117.83,-0.68 -163.68,33.45 -226.24,96.5 -57.86,58.31 -88.21,169.37 -79.37,215.07 5.58,28.88 3.43,14.13 8.61,23.06z"/>
   <path class="fil1" d="M6238.18 3829.76c-35.64,8.83 -68.54,30.06 -89.12,54.53 -15.13,18 -47.01,78.89 -30.69,113.59 14.82,31.49 239.54,16.79 281.51,16.88 45.32,0.1 105.55,11.85 116.34,-22.93 12.53,-40.39 -13.13,-96.62 -30.55,-118.02 -40.77,-50.08 -162.57,-65.09 -247.5,-44.05z"/>
   <path class="fil6" d="M5374.18 1333.29l179.07 -98.46c-57.94,-100.02 -161.81,-190.46 -324.06,-211.7l-1.22 211.73c64.71,13.48 118.99,53.72 146.21,98.43z"/>
   <path class="fil4" d="M779.74 3815.31c-174.77,57.17 -97.23,307.33 76.16,263.55 159.44,-40.25 110.63,-324.65 -76.16,-263.55z"/>
   <path class="fil9" d="M5582.58 3281.6l236.58 -0.62c-50.09,-72.59 -76.7,-56.85 -122.71,-234.29 53.21,0 106.42,-0 159.63,0 28.05,0 55.78,0.16 83.81,0.59 75.55,1.15 63.02,-9.41 70.41,-16.35 -11.79,-8.29 -3.79,-4.77 -21.16,-9.52l-141.43 -2.63c-44.79,0 -111.82,6.83 -153.73,-4.55l3.11 -47.89 -113.66 -2.23 -0.85 317.49z"/>
   <path class="fil6" d="M5439.71 2300.45c-11.56,-141.79 -5.95,-136.36 35.01,-257.49 -40.71,6.06 -73.35,27.57 -115.29,39.71 -39.35,11.4 -80.66,17.9 -126.26,22.82 -13.74,51.31 -7.23,179.96 -5.8,238.88 67.5,-3.71 163.55,-9.02 212.34,-43.92z"/>
   <path class="fil6" d="M1167.75 2901.97c17.68,-129.15 -127.48,-270.31 -252.93,-252.93 -1.69,39.16 -10.43,231.74 5.8,247.51 16.42,15.95 208.05,6.46 247.13,5.42z"/>
   <path class="fil0" d="M5900.46 2031.16c-38.89,-6.71 -78.27,-16.51 -110.28,4.92 -23.09,15.46 -39.12,57.13 -25.49,89.97 24.74,59.6 132.8,81.28 120.62,146.14 -27.72,35.59 -65.58,27.11 -102.35,3.65 -41.47,-26.45 -35.19,-64.09 -81.7,-52.26 -12.82,45.6 39.6,79.85 71.1,93.68 -10.01,36.98 -31.27,53.08 -16.73,84.72 46.98,-4.5 27.89,-29.34 58.63,-63.25 38.82,4.88 78.41,7.1 103.58,-15.74 19.41,-17.61 38.35,-60.18 23.17,-96.1 -23.9,-56.55 -138.97,-89.12 -111.53,-141.75 13.85,-13.61 10.71,-16.78 40.18,-13.47 14.69,1.65 36.65,11.83 48.04,19.3 28.45,18.64 42.62,53.88 71.27,35.48 24.04,-36.09 -28.28,-57.8 -55.43,-76.49 11.73,-36.88 36.39,-58.62 10.96,-85.73 -25.57,4.88 -31.54,15.2 -44.03,66.93z"/>
   <path class="fil14" d="M1622.93 2957.98c42.49,-4.82 60.43,25.99 100.98,31.24 20.51,2.65 49.68,0.49 69.58,-5.41 34.14,-10.12 32,-12.85 36.1,-42.82 -0.95,-49.61 9.98,-118.61 -27.27,-147.96 -51.43,-20.97 -158.83,-15.03 -192.93,14.66l-3.94 114.88c8.24,43.14 -6.71,16.31 17.49,35.42z"/>
   <path class="fil1" d="M6287.06 3566.59c-149.35,54.81 -68.07,247.42 66.12,203.73 125.6,-40.9 67.63,-252.81 -66.12,-203.73z"/>
   <path class="fil3" d="M1519.82 4904.87c22.22,15.58 37.91,20.59 59.89,34.93 18.49,12.07 40.2,28.12 57.64,42.72 21.36,17.87 78.08,86.73 86.01,112.53 13.78,-32.24 -0.54,-152.22 -7.97,-190.18 -16.81,-10.92 -17.22,-14.24 -32.64,-26.35 -12.44,-9.77 -24.56,-17.53 -39.55,-27.35 -29.95,-19.61 -58.28,-29.14 -83.99,-46.69l-39.4 100.39z"/>
   <path class="fil9" d="M5749.18 2958.67c-16.36,-11.79 1.91,-4.59 -19.93,-9.25 -14.42,-3.07 -20.87,-2.13 -35.72,-2.16 5.3,-61.21 22.67,-116.78 44.75,-159.55l-155.32 3.32 -0.07 162.26 166.28 5.36z"/>
  </g>
 </g>
</svg>
