<?xml version="1.0" encoding="UTF-8"?>
<!DOCTYPE svg PUBLIC "-//W3C//DTD SVG 1.1//EN" "http://www.w3.org/Graphics/SVG/1.1/DTD/svg11.dtd">
<!-- Creator: CorelDRAW 2019 (64-Bit) -->
<svg xmlns="http://www.w3.org/2000/svg" xml:space="preserve" width="53.9997mm" height="55.7786mm" version="1.1" style="shape-rendering:geometricPrecision; text-rendering:geometricPrecision; image-rendering:optimizeQuality; fill-rule:evenodd; clip-rule:evenodd"
viewBox="0 0 168.31 173.85"
 xmlns:xlink="http://www.w3.org/1999/xlink"
 xmlns:xodm="http://www.corel.com/coreldraw/odm/2003">
 <defs>
  <style type="text/css">
   <![CDATA[
    .fil31 {fill:#2D86C1}
    .fil16 {fill:#2F88C3}
    .fil6 {fill:#2F8AC7}
    .fil38 {fill:#308BC8}
    .fil2 {fill:#308CCA}
    .fil44 {fill:#318AC6}
    .fil26 {fill:#318ECC}
    .fil12 {fill:#3290CF}
    .fil41 {fill:#338FCC}
    .fil32 {fill:#3694D2}
    .fil3 {fill:#3792CF}
    .fil47 {fill:#3A95D2}
    .fil15 {fill:#3A97D4}
    .fil22 {fill:#3A98D7}
    .fil19 {fill:#3D97D4}
    .fil35 {fill:#3E99D6}
    .fil54 {fill:#4197D1}
    .fil46 {fill:#419AD6}
    .fil23 {fill:#419AD7}
    .fil45 {fill:#419BD8}
    .fil33 {fill:#419CDA}
    .fil40 {fill:#429BD8}
    .fil53 {fill:#439CD9}
    .fil7 {fill:#459DD9}
    .fil42 {fill:#459EDA}
    .fil24 {fill:#489FDA}
    .fil49 {fill:#4996CA}
    .fil30 {fill:#49A0DB}
    .fil52 {fill:#4B9DD4}
    .fil18 {fill:#4BA1DA}
    .fil36 {fill:#4DA2DB}
    .fil48 {fill:#4EA0D7}
    .fil10 {fill:#4FA3DC}
    .fil13 {fill:#52A5DD}
    .fil55 {fill:#53A4DA}
    .fil61 {fill:#54A1D5}
    .fil17 {fill:#54A6DD}
    .fil1 {fill:#56A7DD}
    .fil5 {fill:#59A8DE}
    .fil28 {fill:#5AA9DE}
    .fil11 {fill:#5EAADE}
    .fil62 {fill:#62AEE0}
    .fil56 {fill:#6DB3E1}
    .fil51 {fill:#74B2DB}
    .fil59 {fill:#BBD4E4}
    .fil58 {fill:#BCDBF0}
    .fil60 {fill:#BDD1DB}
    .fil25 {fill:#CDD6DD}
    .fil39 {fill:#CED8DE}
    .fil50 {fill:#D0DAE1}
    .fil4 {fill:#D2DEE5}
    .fil29 {fill:#D8E2E9}
    .fil14 {fill:#D9E3EB}
    .fil57 {fill:#D9EAF5}
    .fil27 {fill:#DAE5EE}
    .fil20 {fill:#DDE8EF}
    .fil43 {fill:#DDEAF1}
    .fil21 {fill:#DDECF6}
    .fil9 {fill:#E0E9F1}
    .fil34 {fill:#E1ECF2}
    .fil0 {fill:#E2EEF6}
    .fil8 {fill:#E5EFF6}
    .fil37 {fill:#E7F0F7}
   ]]>
  </style>
 </defs>
 <g id="Capa_x0020_1">
  <metadata id="CorelCorpID_0Corel-Layer"/>
  <g id="_1822552928">
   <path class="fil0" d="M62.7 133.16c-12.47,11.26 -17.37,-15.89 -1.34,-9.69 1.27,3.04 1.93,5.21 1.34,9.69zm-20.64 0.56c-1.17,-1.25 -0.85,-0.19 -1.25,-2.48l0.22 -10.59c7.63,0.45 10.08,3.41 5.58,8.64 1.34,1.99 1.96,2.63 3.14,5.36 -4.71,-1.07 -2.23,-2.75 -6.03,-5.32 -0.1,0.2 -0.17,0.49 -0.22,0.64l-1.43 3.74zm8.25 -23.3l-5.73 -0.87 0.54 -23.7 0.73 -47.46c3.24,-0.96 3.3,-0.6 6.1,0.48 1.22,3.98 0.44,29.61 0.11,35.42l-0.5 28.07c0.09,7.49 0.45,6.38 -1.25,8.06zm-0.3 -75.65l-6.3 -0.36c-2.29,4.63 -1.84,57.72 -1.95,66.31 -0.09,6.94 0.4,6.29 -1.35,7.96 -1.38,0.24 -0.61,0.39 -2.38,0.02 -1.84,-0.39 -0.76,-0.07 -1.81,-0.85l-4.89 0.02 -7.41 -0.78c0.26,0.19 0.58,0.38 0.81,0.53l9.14 4.66c2.13,1.04 1.44,-3.44 1.59,1.64 1.67,-2.63 0.52,-2.45 2.71,-3.49 4.18,-1.98 5.52,1.84 5.53,1.84l-6.6 6.6c-0.28,0.01 -0.59,-0.11 -0.83,-0.12 -0.23,-0.01 -0.54,-0.08 -0.82,-0.08 -0.75,-0 -1.95,-0.61 -3.81,0.77l2.5 0.48 4.17 13.06c-3.89,-1.05 -1.05,0.52 -3.67,-3.49l-4.21 -0.51 -1.21 2.8 -2.39 0.07c1.96,2.88 2.45,1.87 2.78,4.3l-0.11 0.75c-0.12,1.43 1.25,0.81 1.81,3.41 -1.81,0.95 3.02,3.35 -4.12,0 -1.27,1.59 -1.21,0.84 0.18,2.24l19.01 1.53c5.21,-1.27 5.2,0.16 9.51,0.58 2.26,0.22 4.58,-0.02 5.12,-2 0.49,4.77 0.23,1.7 1.65,3.41l1.62 -1.1c7.73,-3.68 2.83,0.06 4.15,-2.18 -2.54,-6.91 -3.06,1.89 -3.4,-8.96 -0.2,-6.3 -0.35,-7.01 0.82,-13.31l-3.19 -0.01c7.32,0 1.71,-0.47 4.95,-1.66 -0.03,0.27 -0.28,1.05 -0.25,1.25l0.7 2.06c0.05,-0.15 0.21,0.58 0.38,0.83 4.38,-4.73 -1.25,-1.12 5.77,-2.47 -0.88,-2.72 -1.74,-2.59 -2.6,-4.07l0.12 -2.53c-1.65,-1.15 2.3,-2.85 -2.4,-0.4l-6.95 -2.07 0.16 -5.53 6.88 0.12c0.99,1.11 0.46,-0.17 1.36,2.1 0.08,0.2 0.13,1.9 0.14,2.17l0 -6.04 -10.9 -2.37 -0.65 9.84 -4.78 -0.53c-0.84,-3.07 -0.47,-4.02 -0.28,-7.18l1.18 -6.74 -0.53 -3.21 0.13 -26.34 0.52 -14.96 0.23 -23.39 23.92 4c0.18,0.07 0.55,0.56 0.68,0.36 0.13,-0.2 0.47,0.23 0.67,0.39 3.83,-1.01 5.9,0.67 10.56,0.26 1.24,-0.29 2.72,-0.33 3.25,-0.47 2.85,-0.77 1.07,0.37 2.37,-1.25l-1.89 -0.48 -9.97 -1.18 -10.41 -1.8 -9.66 -1.61 -6.01 -0.91c-9.01,-1.93 -6.25,-0.46 -7.16,8.44l-2.2 -0.32z"/>
   <path class="fil1" d="M61.85 0.92c-1.28,2.73 3.02,-1.98 -1.68,1.66 -1.75,1.36 -0.08,-0.01 -1.67,1 -5.5,3.49 -5.23,6.89 -8.34,4.76 0.76,0.19 0.02,-1.82 0.87,1.23 0.35,1.27 0.21,1.21 0.22,2.9l-1.27 0.63c-0.15,0.08 -0.42,0.2 -0.58,0.29 -2.14,1.25 -0.05,-0.18 -0.94,0.56l-2.68 5.2c-0.53,1.02 -0.42,1.24 -1.26,2.23 -3.16,3.76 -3.19,0.28 -4.71,4.64 -0.04,0.12 -0.09,0.36 -0.14,0.49l-0.81 1.64c-2.41,3.35 -3,0.58 -3.31,4.23 -0.56,6.53 -1.23,-1.74 -2.19,9.7l-5.83 1.57c-2.78,1.28 0.31,-1.38 -1.71,1.27 -4.51,5.94 2.23,5.74 -6.75,7.95 0.08,2.91 0.37,1.31 -0.44,3.72 -1.12,3.33 -0.72,0.56 -3.02,5.24 -3.25,6.62 -3.08,1.5 -4.71,4.88 -1.46,3.01 -0.36,0.39 0.13,1.55 1.54,3.65 1.87,-1.99 0.54,1.14l-5.82 0.56c2.53,2.06 0.37,5.21 -1.8,10.05l-3.97 0.08c0,8.77 2.54,16.81 4.12,24.03l6.6 0.77c-1.4,-2 1.26,-0.91 -3.7,-2.1 1.83,-1.59 0.1,-0.55 2.47,-1.65l-2.3 -3.21c7.46,-0.19 6.16,-1.08 2.56,-4.41 1.04,-0.92 -0.58,-0.89 2.29,-1.23 -1.15,-4.75 -1.12,-3.41 2.47,-5.72 4.43,-2.85 -1.55,0.28 3.04,-4.57 1.76,1.01 -0.62,0.38 -1.73,-2.56 4.19,0.1 4.49,0.9 4.65,-3.51l0.05 -1.1c-0.05,-4.66 0.39,-1.72 1.39,-5.94 0.79,-3.35 -0.6,-2.25 1.55,-4.13 2.71,-2.37 1.36,-2.09 3.99,-0.91 -1.07,-6.76 -1.47,-0.54 -1.21,-4.09l5.46 -4.01c1.23,-0.32 0.21,-0.09 1.67,-0.3l1.34 -0.1c-1.82,-2.62 -0.38,-0.87 -3.13,-2.56 0.64,-2.36 0.3,-0.66 0.86,-2.58 0.76,-2.64 0.99,-3.22 3.76,-5.34 0.77,3.44 -0.05,3 -0.02,3.44 0.02,0.29 -2.15,1.41 2,1.52 0.07,-1.87 0.55,-1.79 0.22,-4.02 -0.58,-3.86 -0.93,0.74 -0.68,-4.11l2.75 0.74 0.02 12.38 0.49 25.42 -0.56 28.45c1.75,-1.67 1.26,-1.02 1.35,-7.96 0.11,-8.59 -0.34,-61.68 1.95,-66.31l6.3 0.36c-1.88,-1.88 3.66,-1.69 -3.99,-1.69 -1.1,-4.84 -1.49,-2.3 -0.9,-4.3 0.04,-0.14 0.12,-0.37 0.18,-0.51 0.07,-0.15 0.2,-0.36 0.3,-0.51l0.92 -1.07c0.18,-0.2 0.44,-0.42 0.6,-0.59l1.38 -1.26c-5.78,-2.57 4.95,-0.92 1.65,-7.43 6.99,0.36 6.42,-2.63 6.76,-7.42 3.64,-1.08 3.46,-1.55 4.66,-3.56 3.97,-6.69 3.61,-3.2 5.24,-6.33 -1.82,0.56 -2.51,0.82 -4.95,0.82z"/>
   <path class="fil2" d="M130.11 121.02c1.93,1.71 8.71,1.52 12.31,1.89 -1.36,-1.91 2.59,-1.57 -2.22,-1.57 -0.01,0.14 -1.88,1.58 0.41,0.13 0.07,-0.05 0.33,-0.22 0.41,-0.28l1.16 -1c-4.38,-1.93 -1.43,-1.5 -0.66,-5.28l-3.8 -0.97c0.73,0.39 -0.29,2.36 0.27,-1.69 0.22,-1.61 0.33,-0.58 1.59,-3.13 2.34,-4.75 0.92,-4.92 5.63,-4.4 0.19,0.02 0.51,0.12 0.76,0.12l-0.12 -4.12c2.44,0.67 1.84,1.17 4.5,-0.01 0.74,-4.25 1.2,-2.12 -1.07,-4.29 -0.9,1.24 -1.46,-2.71 0.33,3.79 -7.01,-1.41 -6.93,1.76 -11.05,-1.98 4.93,-1.58 1.57,1.85 4.35,-2.87 0.09,-0.15 0.2,-0.37 0.3,-0.52l1.9 -5.26 -2.66 -0.42c0.19,-0.14 0.48,-0.57 0.58,-0.4l6.19 -3.77c6.12,-4.88 2.99,-2.5 3.28,-4.93 0.36,-3.01 0.74,-3.63 4.21,-4.91 0.94,3.59 -0.45,3.5 0.66,5.53 0.02,0.03 0.15,0.19 0.17,0.21 0.01,0.02 0.16,0.11 0.17,0.2 0.62,-3.35 -0.57,-0.38 -0.99,-5.94 3.31,0.64 2.45,-0.35 4.12,1.65 -0.29,-2.88 -2.61,-2.4 -4.29,-4.43 -0.14,-0.16 -0.27,-0.36 -0.39,-0.54l-1.1 -2.7 -5.29 -0.29c0.31,-2.38 0.48,-1.49 0.71,-2.16 1.63,-4.79 0.06,-3.9 2.93,-4.97 1.88,2.91 -0.37,3.06 -0.5,6.52 1.69,-3.97 0.97,0.47 1.49,-3.46 3.44,1.62 2,3.41 2.8,1.81 1.95,-0.06 1.55,0.27 3.28,-2.23 0.12,-0.17 0.21,-0.5 0.35,-0.74 0,0.28 0.03,0.42 0.14,0.82 1.83,6.7 -3.5,-4.62 1.51,1.64 -0.19,-3.2 -3.09,-10.85 -5.23,-13.7 -1.39,-1.85 -0.01,-0.71 -1.37,-1.15 -2.01,-0.84 -1.64,1.19 -1.65,-1.25 -2.47,2.48 0.16,1.14 -6.43,1.42l-2.83 5.29c-2.54,3.91 0.52,-0.24 -0.25,3.37l-4.55 7.72c-1.06,1.24 2.63,0.98 -2.38,1.69 1.77,0.97 -0.06,-0.07 1.73,0.61 0.15,0.06 0.42,0.15 0.59,0.22l1.73 0.74c-3.13,0.08 -2.35,0.09 -4.86,0.87 -0.95,10.74 -1.74,5.65 -4.96,15.35 -2,6.03 -0.64,22.28 -1.89,33.77z"/>
   <path class="fil3" d="M124.26 50.11c0.58,2.1 0.2,1.21 1.57,3.12 0.16,0.22 1.03,1.32 1.04,1.33 1.04,1.57 0.25,-0.2 0.67,1.43 3.82,2.23 2.35,8.33 2.16,15.02l-0.71 42.05c-0.04,1.02 -0.23,3.34 -0.19,4.21 0.19,4.01 -0.69,2.38 1.3,3.74 1.25,-11.49 -0.11,-27.74 1.89,-33.77 3.22,-9.7 4.01,-4.6 4.96,-15.35 2.51,-0.78 1.73,-0.79 4.86,-0.87l-1.73 -0.74c-0.16,-0.06 -0.43,-0.16 -0.59,-0.22 -1.79,-0.68 0.05,0.36 -1.73,-0.61 5.01,-0.71 1.33,-0.45 2.38,-1.69l4.55 -7.72c0.78,-3.61 -2.28,0.54 0.25,-3.37l2.83 -5.29c6.6,-0.27 3.96,1.06 6.43,-1.42 0.01,2.43 -0.36,0.4 1.65,1.25 -1.04,-5.79 -13.72,-20.88 -15.13,-21.81 -2.05,-1.36 1.02,-0.4 -1.36,-0.45 -5.86,0.1 -1.89,2.29 -5.71,5.81 -0.18,0.16 -0.78,0.54 -0.96,0.7l-2.22 2.58c-2.44,3.52 -1.44,4.7 -2.23,3.17 -0.07,-0.14 -0.28,0.4 -0.43,0.6l-4.19 0.22 2.88 2.24 -1.97 2.01c-0.09,0.16 -0.2,0.36 -0.26,0.53 -0.3,0.78 -0.05,1.95 -0.04,3.29z"/>
   <path class="fil4" d="M118.77 143.83c-0.44,-0.96 -2.64,2.53 1.32,-6.33 1.06,-2.37 1.29,-4.82 3.63,-6.17l4.7 13.41c-5.78,-0.27 1.31,-2.54 -7.16,-4.04l-1.27 1.78c-0.76,0.91 0.31,0.12 -1.23,1.34zm1.54 -85.45l4.62 1.82c0.13,-0.19 0.47,0.18 0.67,0.34 1.39,0.44 0.8,-0.6 1.35,1.42l-0.94 58.67c-4.76,0.29 -4.33,0.15 -4.49,-4.1l0.24 -20.79c-0.53,-4.73 0.38,-1.49 -1.08,-2.91 -0.67,4.63 -0.25,9.73 -0.26,14.49 -0,5.83 -0.93,9.81 1.64,14.84 -3.66,0 -2.9,-0.75 -3.3,0.83 5.32,0.21 2.22,-0.21 2.33,1.7 0.22,3.9 2,-0.57 -0.72,1.59 -2.08,1.65 -4.83,0.28 -6.48,0.96 -4.67,1.93 -0.28,-0.17 -2.22,2.4l4.79 1.25c-3.34,2.9 -0.8,-1.04 -4.82,1.31 0.76,3 2.94,3.7 5.05,6.46l-0.72 4.75 3.61 2.67c-2.08,5.68 -3.76,2.83 -3.3,4.95l1.65 -3.15c0.37,0.25 0.79,0.14 0.94,0.66 0.62,2.13 0.59,-1.44 2.11,3.31 -2.63,0.32 -5.14,-0.38 -8.8,0.53l0 1.4c2.86,-0.53 3.27,-0.41 6.26,-0.02l6.5 1.56 7.05 -0.45 4.46 -0.61c0.01,-1.79 -0.99,-2.72 -1.02,-5.7 1.99,-1.41 4.83,-1.59 5.11,-1.62 3.02,-0.36 -1.8,2.32 1.33,-0.38l-1.05 -1.11 -1.35 -0.56 -3.47 0.92c-2.3,0.26 -3.23,0.13 -5.08,-0.54l-0.15 -12.62 5.93 -0c4.8,0.77 5.41,0.9 7.44,-0.67l1.72 -1.62c1.36,-0.71 2.16,-0.37 4.4,-0.47 -1.29,-4.1 -2.48,-1.81 -1.5,-5.63l-0.3 -0.5 -6.03 -0.83c-3.61,-0.37 -10.39,-0.18 -12.31,-1.89 -1.99,-1.36 -1.11,0.27 -1.3,-3.74 -0.04,-0.87 0.15,-3.18 0.19,-4.21l0.71 -42.05c0.19,-6.7 1.66,-12.79 -2.16,-15.02l0.29 2.65 -2.4 -0.27c-3.65,-0.41 -2.15,-0.73 -5.13,0.01z"/>
   <path class="fil5" d="M43.71 5.87c-0.84,3.61 0.1,1.91 -3.63,3.78 0.83,3.89 -0.55,0.59 1.48,3.64l-3.27 1.19c-6,4.82 -0.72,8.06 -8.93,7.54 1.44,5.57 -0.13,1.25 -0.03,7.25 -0.43,-2.39 -0.8,-2 -1.77,-3.9 -2.42,2.63 -2.27,5.17 -2.07,8.53 -1.34,0.27 -0.63,-0.24 -3.5,-1.11 0.1,0.21 0.31,0.46 0.38,0.59 1.46,2.87 1.11,1.53 -0.58,3.16 -0.12,0.11 -0.32,0.27 -0.45,0.39l-0.88 0.85c-0.12,0.13 -0.29,0.32 -0.4,0.46 -5.73,6.89 -3.86,2.83 -6.17,5.08 1.48,1.08 1.95,1.17 3.21,1.91l-4.85 4.41c-2.02,2.84 -0.27,1.7 -4.77,1.64 0.07,2.84 0.36,1.49 0.54,4.67 -0.77,0.43 -1.15,0.37 -1.69,0.79 -1.33,1.04 -0.68,-0.15 -1.83,3.21l-0.37 1.32c-2.28,-1.98 0.09,-0.96 -2.47,-0.97 -1.63,3.66 -1.65,14.06 -1.65,19.79l3.97 -0.08c2.16,-4.84 4.33,-7.98 1.8,-10.05l5.82 -0.56c1.33,-3.13 1,2.51 -0.54,-1.14 -0.49,-1.16 -1.59,1.46 -0.13,-1.55 1.63,-3.38 1.47,1.74 4.71,-4.88 2.3,-4.69 1.9,-1.91 3.02,-5.24 0.81,-2.41 0.52,-0.81 0.44,-3.72 8.98,-2.21 2.24,-2.02 6.75,-7.95 2.01,-2.65 -1.07,0.01 1.71,-1.27l5.83 -1.57c0.96,-11.44 1.63,-3.17 2.19,-9.7 0.32,-3.65 0.9,-0.87 3.31,-4.23l0.81 -1.64c0.05,-0.13 0.1,-0.37 0.14,-0.49 1.52,-4.36 1.55,-0.88 4.71,-4.64 0.83,-0.99 0.73,-1.21 1.26,-2.23l2.68 -5.2c0.89,-0.74 -1.2,0.69 0.94,-0.56 0.16,-0.09 0.42,-0.21 0.58,-0.29l1.27 -0.63c-0.01,-1.68 0.13,-1.63 -0.22,-2.9 -0.85,-3.05 -0.1,-1.04 -0.87,-1.23 3.11,2.13 2.84,-1.28 8.34,-4.76 1.59,-1.01 -0.08,0.36 1.67,-1 4.7,-3.64 0.4,1.07 1.68,-1.66 -3.52,0.56 -6.77,1.14 -10.2,2.17 -2.7,0.8 -5.98,2.5 -7.94,2.78z"/>
   <path class="fil6" d="M142.43 122.91l6.03 0.83c-1.32,-1.33 0.85,-1.57 -2.02,-1.58l1.45 -3.16c1.62,-1.47 -1.25,-1.02 3.04,-0.97 -0.15,-0.3 -0.39,-0.6 -0.55,-0.85 -0.15,-0.23 -0.35,-0.52 -0.51,-0.78 -0.14,-0.22 -0.3,-0.44 -0.43,-0.66 -2.22,-3.77 -0.27,1.51 -0.59,-1.92 -0.01,-0.07 0.02,-0.31 0.02,-0.38 -0.39,-3.2 -2.71,-0.7 -0.99,-1.76 0.21,-1.75 0.36,-7.47 3.49,-5.81l2.04 3.87 2.49 -6.51c-0.1,-0.1 -0.3,-0.3 -0.4,-0.41 -1.82,-1.97 -1.06,-2.11 -3.16,-3.51 3.83,-2.73 2.15,1.34 3.39,-1.58 0.14,-0.33 0.5,-0.18 0.72,-0.31l-1.64 -4.13c3,0.65 2.53,2.36 5.86,0.79 0.15,-0.07 0.58,-0.28 0.7,-0.36 1.02,-0.65 0.22,0.54 0.8,-0.87l0.56 -2.84c0.14,-0.98 0.15,-2.06 0.42,-2.93 1.43,-4.55 3.05,0.72 1.79,-4.06 -4.78,-2.8 -1.18,-0.36 -4.04,1.94 -0.24,-2.63 -0.4,-1.31 0.4,-2.65 0.99,-1.67 3,-0.77 6.12,-0.57l-3.04 -12.69c-0.42,-1.14 -0.22,-0.76 -0.73,-1.65 -1.27,-2.18 0.02,-0.74 -1.18,-1.34 -5.01,-6.27 0.32,5.05 -1.51,-1.64 -0.11,-0.4 -0.13,-0.54 -0.14,-0.82 -0.14,0.23 -0.23,0.57 -0.35,0.74 -1.73,2.5 -1.33,2.17 -3.28,2.23 -0.8,1.6 0.63,-0.19 -2.8,-1.81 -0.52,3.93 0.2,-0.51 -1.49,3.46 0.13,-3.45 2.37,-3.6 0.5,-6.52 -2.87,1.07 -1.3,0.19 -2.93,4.97 -0.23,0.67 -0.4,-0.22 -0.71,2.16l5.29 0.29 1.1 2.7c0.12,0.18 0.25,0.38 0.39,0.54 1.68,2.02 4,1.55 4.29,4.43 -1.68,-2 -0.81,-1.01 -4.12,-1.65 0.42,5.55 1.61,2.58 0.99,5.94 -0.02,-0.09 -0.16,-0.18 -0.17,-0.2 -0.01,-0.02 -0.15,-0.18 -0.17,-0.21 -1.11,-2.03 0.29,-1.94 -0.66,-5.53 -3.47,1.28 -3.85,1.9 -4.21,4.91 -0.29,2.44 2.84,0.05 -3.28,4.93l-6.19 3.77c-0.1,-0.17 -0.39,0.26 -0.58,0.4l2.66 0.42 -1.9 5.26c-0.09,0.15 -0.21,0.37 -0.3,0.52 -2.78,4.72 0.59,1.28 -4.35,2.87 4.12,3.74 4.04,0.56 11.05,1.98 -1.79,-6.5 -1.23,-2.55 -0.33,-3.79 2.27,2.16 1.82,0.04 1.07,4.29 -2.66,1.17 -2.06,0.67 -4.5,0.01l0.12 4.12c-0.26,-0 -0.58,-0.1 -0.76,-0.12 -4.71,-0.53 -3.29,-0.35 -5.63,4.4 -1.26,2.55 -1.37,1.52 -1.59,3.13 -0.56,4.04 0.46,2.08 -0.27,1.69l3.8 0.97c-0.77,3.78 -3.72,3.35 0.66,5.28l-1.16 1c-0.08,0.06 -0.34,0.23 -0.41,0.28 -2.28,1.45 -0.42,0.01 -0.41,-0.13 4.8,0 0.86,-0.34 2.22,1.57z"/>
   <path class="fil7" d="M54.98 94.06l0.53 3.21c1.03,4.82 -0.82,10.44 -0.5,11.79 0.74,3.09 -1.42,1.18 2.73,2.14 1.32,-2.25 0.94,-1.59 1.06,-4.73 0.11,-2.87 -0.69,-2.55 1.24,-4.59l10.9 2.37c2.46,1.16 1.15,2.92 1.29,5.61 0.23,4.28 -1.23,3.37 2.83,3.99 1.72,-3.79 1.2,-18.03 1.39,-23.35 3.88,-1.21 7.79,0.33 11.88,0.61 1.43,-3.55 -0.33,-2.11 3.05,-3.21 -5.51,-6.76 -13.31,-1.54 -17.63,1.64 -5.61,4.13 -1.76,6.11 -5.61,7.87 -2.93,1.34 -7.04,0.28 -6.13,-7.3 3.42,-1.9 2.33,-0.93 5.73,-1.19 2.68,-0.21 2.81,-0.94 5.19,-2.7 7.55,-5.57 3.29,-2.63 6.8,-9.63l5.76 0.1c-1.26,-1.34 0.3,-0.99 -4.47,-2.09l5.6 -0.28c1.58,-1.97 1.38,-0.74 0.31,-2.07 -5.9,1.31 -8.44,-0.68 -13.24,-2.93l-1.03 -0.41 -4.3 -0.47c-0.79,2.87 -0.09,4.57 -1.78,7.3 -1.32,2.12 -2.96,2.25 -5.52,1.6 1.35,5.84 -1.36,2.18 -1.19,6.11 0.09,2.04 -0.85,0.43 1.07,1.37 -3.59,0.48 -1.82,-0.25 -4.36,1.41 -0.08,1.59 0.04,2.97 -0.25,4.6l-1.33 3.24z"/>
   <path class="fil8" d="M26.49 129.58c-1.06,1.65 1.78,0.51 -1.82,1.63 -4.01,1.25 -9.76,-1.88 -8.98,-8.09 0.65,-5.21 8.62,-8.69 10.65,-2.62 -3.87,-0.36 -9.7,-3.42 -8.22,4.87 1.07,6.01 5.82,2.96 8.37,4.21zm-16.6 -5.77c0.56,9.52 5.76,13.08 12.61,18.73 1.7,1.4 4.64,3.32 7.15,3.53l-2.26 -3.53c-1.38,-1.39 -1.45,-0.64 -0.18,-2.24 7.14,3.34 2.31,0.95 4.12,-0 -0.56,-2.6 -1.93,-1.99 -1.81,-3.41l0.11 -0.75c-0.33,-2.42 -0.82,-1.41 -2.78,-4.3 1.72,-3.88 4.37,-8 4.8,-12.41 1.85,-1.38 3.06,-0.77 3.81,-0.77 0.28,0 0.59,0.07 0.82,0.08 0.24,0.01 0.55,0.12 0.83,0.12l6.6 -6.6c-0,-0 -1.35,-3.82 -5.53,-1.84 -2.2,1.04 -1.04,0.87 -2.71,3.49 -0.15,-5.08 0.54,-0.59 -1.59,-1.64l-9.14 -4.66c-0.24,-0.15 -0.55,-0.34 -0.81,-0.53l0.4 -0.38 -13.6 -1.82c0.68,5.34 -1.53,3.7 -0.82,6.27 0.89,-3.09 -0.36,-1.44 1.65,-3.16 1.11,-0.95 1.79,-0.95 3.3,-1.52 1.33,1.85 1.41,2.66 1.16,5.63l-0.16 2.31c-0.03,0.18 -0.05,0.43 -0.08,0.6 -0.78,3.88 -1.16,1.13 -1.23,3.69l-1.21 4.84c-1.59,-1.13 2.08,-0.29 -0.92,-0.17 -0.66,0.03 -0.82,0.42 -2.52,0.42z"/>
   <path class="fil9" d="M66.81 123.85c1.93,2.53 1.04,7.66 1.15,11.28 3.47,0.88 2.81,0.21 4.61,1.87 -1.65,0.76 -3.88,0.32 -6.54,0.06l0.07 -11.56c0.27,-1.41 0.37,-1.09 0.71,-1.66zm4.13 -19.6l-0 6.04c-0,-0.27 -0.06,-1.97 -0.14,-2.17 -0.9,-2.27 -0.37,-0.99 -1.36,-2.1l-0.09 7.49c4.7,-2.44 0.75,-0.75 2.4,0.4l-0.12 2.53c0.86,1.48 1.71,1.35 2.6,4.07 -7.02,1.35 -1.39,-2.26 -5.77,2.47 -0.17,-0.25 -0.33,-0.98 -0.38,-0.83l-0.7 -2.06c-0.03,-0.2 0.22,-0.97 0.25,-1.25 -3.24,1.2 2.36,1.66 -4.95,1.66l3.19 0.01c-1.17,6.29 -1.02,7.01 -0.82,13.31 0.34,10.84 0.86,2.05 3.4,8.96 -1.32,2.24 3.59,-1.51 -4.15,2.18l-1.62 1.1c-1.42,-1.7 -1.16,1.36 -1.65,-3.41 -0.54,1.98 -2.86,2.23 -5.12,2 -4.3,-0.42 -4.29,-1.85 -9.51,-0.58 1.49,0.98 3.71,0.98 6.02,1.25 2.92,0.34 4.6,0.25 6.6,1.73 4.09,-1.22 9.06,0.64 13.71,0.33l3.97 -0.57c-3.87,-3.64 0.01,1.82 0.01,-6.51l4.95 3.3c0.96,-1.03 1.41,-2.18 3.29,-2.47l-4.48 -2.08c-1.32,-1.59 -0.26,2.13 -1.22,-2.87 -0.16,-0.83 -0.07,-3.3 -0.07,-4.11 -3.36,0.98 -0.36,-0.17 -1.96,0.82l-0.15 5.08c-1.83,-0.77 -2.24,1.18 -1.89,-5.05 0.19,-3.38 0.52,-4.23 -0.44,-7.41 1.92,-2.03 -4.2,-1.69 3.62,-1.69 -1.08,0.55 -1.67,-1.62 0.83,1.64 2,-0.61 4.24,-0.53 5.5,-3.64 1.4,-3.45 0.66,0.39 0.27,-2.13 -8.91,-2.72 -0.45,2.84 -6.61,0.5 -2.94,-1.12 -1.01,-0.1 -0.81,-2.98 0.04,6.53 -0.38,0.91 1.65,3.3l8.24 -4.94c-9.65,2.3 -7.44,0.09 -8.24,-0.93l0.14 -21.17 6.29 0.27c2.48,1.83 0.82,-2.15 1.88,3.62l1.54 10.78c0.25,-4.53 0.79,-14.16 -0.7,-17.03 -4.1,-0.29 -8,-1.82 -11.88,-0.61 -0.18,5.32 0.34,19.56 -1.39,23.35 -4.06,-0.62 -2.6,0.29 -2.83,-3.99 -0.14,-2.69 1.17,-4.45 -1.29,-5.61z"/>
   <path class="fil10" d="M12.05 92.29c-2.87,0.34 -1.26,0.31 -2.29,1.23 3.59,3.33 4.9,4.22 -2.56,4.41l2.3 3.21c-2.37,1.1 -0.64,0.06 -2.47,1.65 4.95,1.19 2.3,0.1 3.7,2.1l13.6 1.82 -3.92 -2.8c-1.74,-2.24 1.09,-1.53 -1.61,-3.2 1.79,-1.04 1.04,0.13 3.74,-2.11 1.85,-1.53 1.78,-2.41 2.27,-3.1 0.05,-0.08 0.19,-0.26 0.26,-0.33l5.22 -5.36c1.75,-1.32 0.2,1.26 1.89,-2.16 3.73,1.24 -0.15,2.44 3.69,1.04 2.53,-0.92 0.2,-0.7 0.08,-0.99 -0.68,-1.61 -0.86,2.76 -0.86,-1.74 -0,-2.85 -0.66,0.24 2.47,-3.81 1.84,-2.38 0.03,-1.04 3.44,-1.92l-0.49 -25.42c-1.59,3.92 0.29,0.21 -0.43,3.67 -0.66,3.2 0.07,0.6 -2.17,3.31 -3.31,3.99 -2.64,6.37 -2.65,9.05 -2.67,-2.19 -0.12,-1.19 -2.89,-2.3 0.83,1.98 1.9,1.14 -1.11,1.77 -4.3,0.89 -0.53,0.86 -3.6,-0.83 1.25,1.89 0.99,0.96 1.27,2.56 0.33,1.93 -0.13,2.24 -1.83,4.25 -3.18,3.75 -0.09,-1.58 -1.04,1.34 -1.36,4.19 2.19,1 -0.41,3.95 -1.03,1.16 -0.55,-0.35 -3.23,-0.55 0.77,1.55 1.16,0.12 0.15,2.56 -1.8,4.35 -2.84,-2.88 -2.68,5.74 -2.21,0.03 -3.2,-0.59 -4.06,0.82 -1.38,2.28 2.68,-2.05 -0.25,2.83l-2.05 0.19c-1.35,-0.2 -0.25,0.02 -1.45,-0.9z"/>
   <path class="fil3" d="M117.94 77.53c1.2,3.28 3.05,2.99 1.13,7.82 -5.48,1.5 -6.64,-2.01 -10.52,2.12 0.66,2.7 -0.28,-0 0.91,1.08 0.15,0.14 0.81,0.67 0.99,0.82l1.23 0.97c0.16,0.09 2.3,0.47 4.36,0.78 0.2,0.03 2.53,0.48 2.74,0.56 1.93,0.7 1.1,0.13 1.9,1.14 1.45,1.43 0.54,-1.81 1.08,2.91l-0.24 20.79c0.17,4.25 -0.26,4.39 4.49,4.1l0.94 -58.67c-0.55,-2.02 0.04,-0.98 -1.35,-1.42 -3.43,-0.24 -5.83,-0.38 -6.58,3.31 -2.42,-0.72 -1.83,-0.84 -2.56,-1.03l-3.76 -0.05c-0.79,3.53 -0.26,1.66 0.06,2.86l1.43 2.59c-2.82,2.25 -3.8,4.41 -2.82,7.75 0.19,0.04 0.45,-0.02 0.58,-0.01 0.13,0 0.43,-0.01 0.6,-0l2.13 0.18c3.48,0.78 1.13,-0.29 3.28,1.39z"/>
   <path class="fil11" d="M1.65 60.3c2.56,0.01 0.2,-1.01 2.47,0.97l0.37 -1.32c1.16,-3.36 0.51,-2.17 1.83,-3.21 0.55,-0.43 0.93,-0.36 1.69,-0.79 -0.18,-3.18 -0.47,-1.83 -0.54,-4.67 4.5,0.06 2.75,1.2 4.77,-1.64l4.85 -4.41c-1.27,-0.74 -1.73,-0.83 -3.21,-1.91 2.3,-2.26 0.43,1.81 6.17,-5.08 0.12,-0.14 0.28,-0.32 0.4,-0.46l0.88 -0.85c0.12,-0.12 0.33,-0.28 0.45,-0.39 1.69,-1.63 2.05,-0.28 0.58,-3.16 -0.06,-0.12 -0.27,-0.38 -0.38,-0.59 2.87,0.87 2.15,1.38 3.5,1.11 -0.2,-3.36 -0.34,-5.9 2.07,-8.53 0.96,1.9 1.34,1.51 1.77,3.9 -0.1,-6 1.47,-1.68 0.03,-7.25 8.21,0.52 2.93,-2.72 8.93,-7.54l3.27 -1.19c-2.03,-3.05 -0.65,0.25 -1.48,-3.64 3.73,-1.87 2.8,-0.17 3.63,-3.78 -9.19,3.06 -21.88,13.56 -27.23,20.6 -3.66,4.82 -6.21,9 -9.19,14.73 -1.81,3.47 -5.36,14.43 -5.64,19.1z"/>
   <path class="fil12" d="M70.1 170c4.73,2.1 11.37,3.3 18.27,3.3 -2.47,-4.03 1.01,-0.18 6.92,-4.67 1.43,-1.09 1.65,-1 2.68,-1.75 -3.38,-0.3 -3.41,-1 -4.95,-3.3 -0.8,2.13 -0.35,1.99 0.35,4.12 -5.08,0.34 -1.5,1.48 -6.13,1 1.35,-3.97 -0.17,-0.51 1.9,-2.88 4.41,-5.05 5.81,-3.21 5.87,-3.24 0.63,-2.76 -0.77,-3.54 -0.77,-3.54 -3.71,-5.72 0.64,3.23 -1.17,-1.41 3.38,-1.61 0.46,1.4 3.06,-3.12 -1.22,-0.72 -1.22,0.05 -2.5,-1.15l5.96 -1.2 0 -1.34c-5.34,0.65 -8.8,-1.5 -13.73,-0.38 -3.58,0.31 -7.46,0.5 -10.54,2.61l-1.24 1.28c2.15,1.15 0.41,-0.55 2.55,0.11l2.11 1.12c-4.16,1.4 3.35,-1.14 -1.76,0.83 -0.21,0.08 -0.43,0.17 -0.65,0.24 -0.23,0.08 -0.45,0.14 -0.69,0.22 -1.27,0.4 -1.54,0.19 -2.57,0.68 -2.06,0.97 -0.85,0.28 -0.45,0.97 0.04,0.07 0.26,0.28 0.32,0.35l1.56 1.25 -3.98 3.91c-0.03,0.07 -0.12,0.29 -0.15,0.36 -0.03,0.08 -0.11,0.3 -0.13,0.39l-0.16 5.25z"/>
   <path class="fil13" d="M12.05 92.29c1.19,0.92 0.1,0.7 1.45,0.9l2.05 -0.19c2.93,-4.88 -1.14,-0.55 0.25,-2.83 0.86,-1.42 1.84,-0.79 4.06,-0.82 -0.16,-8.62 0.88,-1.4 2.68,-5.74 1.01,-2.44 0.61,-1.01 -0.15,-2.56 2.68,0.21 2.21,1.71 3.23,0.55 2.6,-2.95 -0.94,0.23 0.41,-3.95 0.95,-2.92 -2.14,2.41 1.04,-1.34 1.7,-2 2.16,-2.32 1.83,-4.25 -0.28,-1.6 -0.01,-0.67 -1.27,-2.56 3.06,1.69 -0.71,1.72 3.6,0.83 3.01,-0.62 1.94,0.21 1.11,-1.77 2.77,1.11 0.22,0.11 2.89,2.3 0.01,-2.69 -0.66,-5.06 2.65,-9.05 2.24,-2.71 1.51,-0.1 2.17,-3.31 0.72,-3.46 -1.16,0.25 0.43,-3.67l-0.02 -12.38 -2.75 -0.74c-0.24,4.85 0.11,0.25 0.68,4.11 0.33,2.23 -0.15,2.15 -0.22,4.02 -4.15,-0.11 -1.97,-1.23 -2,-1.52 -0.04,-0.43 0.79,0 0.02,-3.44 -2.77,2.12 -3,2.69 -3.76,5.34 -0.55,1.92 -0.22,0.22 -0.86,2.58 2.75,1.68 1.32,-0.06 3.13,2.56l-1.34 0.1c-1.46,0.21 -0.43,-0.01 -1.67,0.3l-5.46 4.01c-0.25,3.55 0.14,-2.67 1.21,4.09 -2.63,-1.18 -1.28,-1.46 -3.99,0.91 -2.15,1.88 -0.76,0.77 -1.55,4.13 -0.99,4.23 -1.43,1.28 -1.39,5.94l-0.05 1.1c-0.16,4.41 -0.46,3.61 -4.65,3.51 1.11,2.94 3.49,3.57 1.73,2.56 -4.6,4.85 1.38,1.72 -3.04,4.57 -3.59,2.31 -3.62,0.98 -2.47,5.72z"/>
   <path class="fil14" d="M86.92 136.38c2.01,3.53 0.85,8.73 -2.8,6.4 3.26,1.78 -0.43,-0.92 1.58,1.92 1.22,1.72 0.39,1.12 1.64,2.21l-4.01 0.9c-2.14,0.25 -1.48,-0.21 -4.07,0.42 0.17,0.12 0.47,0 0.57,0.23l3.37 0.87c0.25,0.08 0.47,0.12 0.71,0.21l1.95 0.91c4.93,-1.12 8.39,1.02 13.73,0.38 3.84,-0.99 8.98,1.21 7.3,-4.1 -1.48,-4.69 -1.18,2.86 -1.34,-3.93l0.91 -0.26c0.16,-0.11 0.5,-0.37 0.74,-0.57 -0.16,-0.21 -0.4,-0.79 -0.47,-0.63l-1.67 -2.26c-0.08,-0.11 -0.12,-0.24 -0.33,-0.41 0.97,3.17 2.08,-0.24 6.6,1.74 0.47,0.76 -2.25,0.93 3.48,1.04 -0.81,-7.8 -4.47,-1.2 -5.44,-10.56 -5.72,0.07 0.32,0.54 -3.02,0.76 -0.07,0 -0.3,-0.02 -0.37,-0.02 -0.08,0 -0.31,-0.04 -0.39,-0.04 -0.08,-0 -0.32,-0.04 -0.41,-0.04l-7.27 0.53c2.11,2.15 1.69,1.23 3.7,2.47 -0.19,0.13 -0.52,0.04 -0.62,0.32 -0.6,1.6 -0.09,-0.1 -1.26,0.57 -1.89,1.09 -0.75,-0.38 -1.91,1.58 0.81,5.29 -0.54,1.1 4.18,3.3 -0.78,0.9 1.86,1.07 -2.28,1.3 -5.02,0.27 -3.87,-4.38 -3.78,-9.42 -2.57,2.38 -1.89,4.73 -1.92,8.12 -0.19,-0.09 -0.24,3.11 -0.81,-2.37l-0.01 -9.18c0,-2.85 0.92,-2.63 -1.3,-2.24l-0.44 13.61c-1.91,-0.93 -0.82,-0.37 -2.16,-1.65l-1.83 -1.7c-0.08,-0.29 -0.36,-0.26 -0.54,-0.39z"/>
   <path class="fil15" d="M99.84 70.79c1.99,2.9 -1.59,2.96 -4.16,1.93 -0.4,0.84 -0.96,-0.11 0.78,2.39 -5.11,-0.61 -0.98,-0.67 -4.04,0.89l-1.87 0.67c-4.63,1.06 1.82,-1.59 -1.21,0.13 1.76,3.7 0.21,0.38 2.18,1.78 3.67,2.61 1.29,1.55 2.5,6.26l0.01 0.91c4.56,-0.14 13.73,1.33 17.15,-5.01 2.19,-4.05 0.71,-3.79 6.76,-3.22 -2.15,-1.68 0.21,-0.61 -3.28,-1.39l-2.13 -0.18c-0.17,-0.01 -0.47,0 -0.6,0 -0.13,-0 -0.39,0.05 -0.58,0.01 -0.97,-3.34 0,-5.49 2.82,-7.75l-1.43 -2.59c-0.32,-1.19 -0.84,0.67 -0.06,-2.86l3.76 0.05c0.73,0.19 0.13,0.31 2.56,1.03 0.75,-3.7 3.15,-3.55 6.58,-3.31 -0.2,-0.15 -0.54,-0.53 -0.67,-0.34l-4.62 -1.82 -5.61 0.53 -5.21 0.43c0.57,2.69 0.88,2.26 1.44,5.02l-9.55 7.46c-0.12,-0.18 -0.39,0.46 -0.62,0.65 -0.02,-2.77 0.67,-1.62 -0.93,-1.68z"/>
   <path class="fil16" d="M148.45 123.74l0.3 0.5 3 0.1 3.05 0.26c-1.42,-1.32 -1.65,-1.6 -4.97,-1.61 1.86,-2.92 1.68,-0.43 3.42,-3.51 0.08,-0.14 0.17,-0.4 0.23,-0.54 0.06,-0.13 0.12,-0.39 0.17,-0.51 0.9,-2.28 -2.18,0.05 2.31,-2.54l1.08 -0.6c4.56,-2.44 1.52,-0.18 4.79,-3.63 2.95,-3.11 1.37,2.37 2.78,-2.76 0.44,-1.61 0.82,-2.11 -1.33,-3.93l-1.95 -0.96c1.83,-2.53 -0.06,-0.7 4.19,-1.93l-3.85 -4.67c1.78,-1.48 1.17,-0.86 4.81,-0.97 -1.72,-2.75 -2.02,-1.78 -2.61,-3.3l4.4 1.24c0,-2.21 0.12,-4.76 0,-6.92 -0.19,-3.6 -0.72,-2.76 -0.83,-5.73 -3.12,-0.2 -5.13,-1.1 -6.12,0.57 -0.8,1.34 -0.64,0.02 -0.4,2.65 2.87,-2.29 -0.74,-4.73 4.04,-1.94 1.26,4.78 -0.36,-0.49 -1.79,4.06 -0.27,0.86 -0.28,1.95 -0.42,2.93l-0.56 2.84c-0.58,1.41 0.22,0.22 -0.8,0.87 -0.12,0.08 -0.55,0.28 -0.7,0.36 -3.33,1.56 -2.86,-0.14 -5.86,-0.79l1.64 4.13c-0.22,0.13 -0.58,-0.02 -0.72,0.31 -1.24,2.91 0.44,-1.15 -3.39,1.58 2.09,1.4 1.34,1.55 3.16,3.51 0.11,0.12 0.3,0.31 0.4,0.41l-2.49 6.51 -2.04 -3.87c-3.13,-1.66 -3.28,4.06 -3.49,5.81 -1.73,1.07 0.6,-1.44 0.99,1.76 0.01,0.07 -0.02,0.31 -0.02,0.38 0.32,3.43 -1.63,-1.85 0.59,1.92 0.13,0.21 0.29,0.44 0.43,0.66 0.16,0.26 0.36,0.55 0.51,0.78 0.16,0.25 0.41,0.54 0.55,0.85 -4.29,-0.05 -1.42,-0.5 -3.04,0.97l-1.45 3.16c2.87,0.01 0.7,0.25 2.02,1.58z"/>
   <path class="fil10" d="M65.39 27.58l9.66 1.61c-0.24,-3.43 -0.77,0.96 1.48,-3.02 2.89,-5.14 1.59,-2.34 4.23,-5.31 -1.64,-0.86 -1.9,-1.62 0.99,-3.43l3.87 -2.64c0.06,-0.04 0.25,-0.15 0.32,-0.19 0.14,-0.09 0.6,-0.28 0.75,-0.38 4.82,-3.19 -0.82,-0.43 3.1,-5.07 1.12,-1.33 0.09,0.27 1.23,-1.34l3.84 -5.24c-2.99,-0.91 -6.8,-1.65 -10.72,-1.65 -2.26,1.94 2.87,1.65 -2.8,1.68l2.51 2.98c-5.23,-0.26 -4.89,-0.49 -7.15,2.89l-2.37 3.81c-0.05,0.07 -0.19,0.24 -0.24,0.3l-4.25 6.12c-2.65,3.27 2.61,-2.82 -1.34,1.2 -3.88,3.96 0.57,3.79 -4.39,5.69 0.65,0.46 0.74,1.35 1.29,1.98z"/>
   <path class="fil17" d="M50.01 34.78l2.2 0.32c0.92,-8.89 -1.85,-10.36 7.16,-8.44 -1.91,-4.39 -0.57,-0.71 -0.49,-5.95l2.21 -0.7c1.34,-0.5 0.26,2.14 1.41,-0.6 0.14,-0.33 0.52,-0.19 0.87,-0.35l-0.21 -3.96c0.59,-0.12 1.4,0.2 3.46,0.49 -0.31,-6.97 1.54,-5.64 3.8,-5.93 -0.09,0.24 -0.36,0.47 -0.47,0.62 -2.66,3.5 -2.4,0.97 -2,3.5 1.65,-1.23 0.61,-0.53 2.97,-1.15 3.41,-15.39 3.28,-2.74 3.13,-12.54l-7.26 0c-1.62,3.13 -1.27,-0.36 -5.24,6.33 -1.2,2.02 -1.02,2.48 -4.66,3.56 -0.34,4.79 0.23,7.78 -6.76,7.42 3.3,6.51 -7.43,4.86 -1.65,7.43l-1.38 1.26c-0.16,0.17 -0.42,0.39 -0.6,0.59l-0.92 1.07c-0.1,0.16 -0.23,0.36 -0.3,0.51 -0.07,0.14 -0.14,0.37 -0.18,0.51 -0.58,2.01 -0.19,-0.54 0.9,4.3 7.66,0 2.12,-0.18 3.99,1.69z"/>
   <path class="fil18" d="M75.05 29.19l10.41 1.8 7.36 -6.98c-2.8,-2 -2.45,-1.1 -3.65,-4.12 1.4,-1.02 2.58,-1.63 3.52,-2.16 0,-0.13 -0.12,-0.46 -0.13,-0.36 -0,0.01 -1.76,-2.5 3.13,-3.14 0,0 8.65,0.78 7.73,-6.71l2.98 0c-1.55,-2.47 0.52,-0.74 -2.56,-2.41 -0.08,-0.05 -2.97,-0.98 -3.11,-1.02 -1.32,-0.38 -4.31,-1.29 -5.88,-1.51l-3.84 5.24c-1.14,1.62 -0.11,0.02 -1.23,1.34 -3.92,4.64 1.73,1.88 -3.1,5.07 -0.15,0.1 -0.61,0.29 -0.75,0.38 -0.06,0.04 -0.26,0.15 -0.32,0.19l-3.87 2.64c-2.9,1.81 -2.63,2.57 -0.99,3.43 -2.64,2.97 -1.34,0.17 -4.23,5.31 -2.24,3.99 -1.72,-0.41 -1.48,3.02z"/>
   <path class="fil19" d="M118.21 43.21c1.07,2.57 3.32,5.33 6.06,6.9 -0.01,-1.35 -0.26,-2.52 0.04,-3.29 0.06,-0.16 0.17,-0.37 0.26,-0.53l1.97 -2.01 -2.88 -2.24 4.19 -0.22c0.15,-0.2 0.35,-0.74 0.43,-0.6 0.78,1.52 -0.22,0.35 2.23,-3.17l2.22 -2.58c0.18,-0.16 0.78,-0.53 0.96,-0.7 3.83,-3.52 -0.15,-5.71 5.71,-5.81 -1.44,-3.53 0.01,-1.21 -2.46,-3.37 -0.76,-0.66 -1.51,-1.07 -2.7,-2.2 -5.5,-5.23 -4.15,-3.47 -5.57,-3.5l-2.39 0.02 0.3 6.39c-2.49,0.56 -5.16,0.73 -7,2.6 -2.53,2.57 -0.24,2.74 -4.79,4.85 2.55,1.82 5.18,1.95 6.92,3.01 -0.84,0.5 -1.89,1.3 -2.48,2.47 -0.59,1.18 -0.7,2.71 -1.01,3.99z"/>
   <path class="fil20" d="M79.18 114.64c0.8,1.02 -1.41,3.22 8.24,0.93l-8.24 4.94c-2.02,-2.39 -1.61,3.23 -1.65,-3.3 -0.2,2.89 -2.13,1.86 0.81,2.98 6.16,2.34 -2.31,-3.23 6.61,-0.5 0.39,2.52 1.13,-1.32 -0.27,2.13 -1.26,3.11 -3.5,3.03 -5.5,3.64 -2.5,-3.26 -1.92,-1.09 -0.83,-1.64 -7.82,0 -1.7,-0.34 -3.62,1.69l2.5 -0.07 -0.01 7.45c1.61,-0.99 -1.39,0.15 1.96,-0.82 0,0.81 -0.09,3.28 0.07,4.11 0.95,5.01 -0.1,1.28 1.22,2.87l0.97 -12.78c3.03,1.21 6.26,6.67 8.31,8.93 0.9,-9.8 -1.46,-6.84 2.15,-8.69 2.22,-0.38 1.3,-0.61 1.3,2.24l2.47 -4.12 -3.12 -1.74c-0.43,-0.96 -0.03,-1.55 0.43,-2.6 3.53,0.96 3.3,0.81 5.16,-0.6l-3.29 -3.29c0.91,-3.57 1,-10.34 -0.17,-13.67l0.83 -2.46c0.14,-1.21 0.85,1.13 -0.66,-1.35l-2.17 0.26 -0.26 13.94c-0.54,2.42 0.21,1.66 -1.7,2.71 -2.33,-1.12 -1.37,-0.05 -1.85,-2.68 -0.04,-0.21 0.14,-4.69 0.15,-5l-1.54 -10.78c-1.06,-5.77 0.61,-1.79 -1.88,-3.62l0.2 21.24 -1.69 -0 -4.94 -0.34z"/>
   <path class="fil21" d="M90.71 45.04c5.08,1.92 6.72,11.89 4.9,16.91 -1.51,4.14 -9.59,10.8 -15.1,6.79 -5.53,-1.16 -10.46,-5.9 -10.91,-10.88 -0.13,-0.18 -0.27,-0.43 -0.33,-0.58 -0.22,-0.52 -0.98,-0.68 -0.99,-4.39 -0.03,-13.49 16.58,-16.11 22.44,-7.85zm-24.99 0.68c0.3,4.17 -1.05,7.22 0.13,12.93 2.56,4.9 5.05,7.03 6.79,10.26l1.03 0.41c4.8,2.25 7.34,4.24 13.24,2.93 2.71,-0.01 4.06,-0.65 6.19,-2.11 1,-0.69 1.79,-1.49 2.6,-2.35l2.68 -2.74 1.11 -8.31 -1.68 -9.04c-2.42,-1.89 -3.95,-4.5 -6.21,-6.41 -2.43,-2.05 -6.46,-3.1 -7.48,-3.96 -4.64,-0.54 -8.6,-0.16 -11.93,1.94 -2.73,1.72 -4.32,4.53 -6.46,6.47z"/>
   <path class="fil22" d="M46.18 158.45c1.04,3.26 10.17,5.24 12.38,8.25l3.3 0c-0.8,-3.59 1.17,-2.28 0.73,-8.43 4.22,1.8 3.75,-0.69 5.25,-4.91 -2.04,-0.5 -2.96,0.51 -5.09,-1.51l4.28 -2.11c2.72,-1.27 2.38,-0.45 5.7,-0.98l0 -1.39c-4.65,0.31 -9.62,-1.55 -13.71,-0.33 -2.15,-0.4 -3.72,-0.6 -6.16,-0.31l-3.19 0.82c-0.05,-0.14 -0.3,0.09 -0.43,0.17 -1.71,2.92 -0.45,0.46 -0.66,3.22 -0.52,6.59 -2.62,3.25 -2.4,7.5z"/>
   <path class="fil15" d="M88.32 91.11c1.49,2.87 0.95,12.5 0.7,17.03 -0.01,0.32 -0.19,4.79 -0.15,5 0.48,2.63 -0.48,1.56 1.85,2.68 1.91,-1.05 1.16,-0.29 1.7,-2.71l0.26 -13.94 2.17 -0.26 10.43 1.74 -0.25 17.63 3.79 -0.07 0.1 -27.23 2.75 -0.63 -1.23 -0.97c-0.18,-0.15 -0.84,-0.68 -0.99,-0.82 -1.2,-1.08 -0.26,1.62 -0.91,-1.08 -3.49,0.98 -3.33,0.56 -4.82,3.24 -4.86,8.76 -8.19,0.48 -11.14,-3.65l-1.21 0.82c-3.39,1.1 -1.62,-0.34 -3.05,3.21z"/>
   <path class="fil23" d="M111.05 34.64c1.35,2.41 1.08,0.5 1.53,3.56 2.03,1.03 1.54,0.68 2.99,2.19 0.18,0.19 1.1,1.32 1.18,1.41 1.02,1.08 0.35,0.52 1.47,1.4 0.32,-1.28 0.42,-2.81 1.01,-3.99 0.59,-1.18 1.64,-1.97 2.48,-2.47 -1.73,-1.06 -4.37,-1.18 -6.92,-3.01 4.55,-2.11 2.26,-2.27 4.79,-4.85 1.84,-1.87 4.51,-2.04 7,-2.6l-0.3 -6.39 2.39 -0.02c-1.29,-2.94 -0.5,-1.96 -5.2,-4.7 -3.25,-1.89 -3.67,-2.89 -6.34,-2.72l-2.19 0c-1.74,4.64 -0.89,0.33 -0.03,3.77 0.03,0.11 0.1,0.37 0.13,0.47 0.24,0.89 0.14,0.96 0.45,1.56 3.39,-1.32 -1.96,2.03 0.86,-0.79 2.75,-2.75 -0.1,-1.51 2.64,-2.59 -0.61,4.71 -1.85,3.91 -3.46,5 -4.11,2.78 0.5,1.88 -4.57,4.56 -0.18,0.09 -0.43,0.19 -0.6,0.27 -0.18,0.08 -0.5,0.19 -0.65,0.25l-1.37 0.48c2.23,5.37 -2.77,-3.36 1,1.22 2.22,2.69 2.02,-0.41 1.09,1.75l-3.29 2.21 2.3 2.02c0.03,0.03 1.28,1.63 1.65,2.01z"/>
   <path class="fil24" d="M55.11 67.72l-0.13 26.34 1.33 -3.24c0.29,-1.63 0.16,-3.01 0.25,-4.6 2.54,-1.66 0.77,-0.93 4.36,-1.41 -1.92,-0.94 -0.98,0.67 -1.07,-1.37 -0.17,-3.93 2.54,-0.27 1.19,-6.11 2.57,0.66 4.21,0.53 5.52,-1.6 1.69,-2.73 0.99,-4.43 1.78,-7.3l4.3 0.47c-1.73,-3.23 -4.23,-5.36 -6.79,-10.26 -4.94,-2.01 -1.95,-0.35 -7.06,4.37l-3.68 4.71z"/>
   <path class="fil10" d="M55.62 52.76c0.16,-0.17 0.34,-0.71 0.4,-0.56 0.66,1.46 0.11,-2.26 5.4,-7.14 4.26,-3.94 -0.6,-2.81 4.97,-3.44 -0.1,0.44 -0.6,3.77 -0.67,4.11 2.15,-1.94 3.73,-4.74 6.46,-6.47 3.34,-2.1 7.3,-2.48 11.93,-1.94 -1.87,-1.84 0.07,-0.46 -2.48,-1.4 -2.06,-0.76 0.4,-0.04 -1.63,-0.41 -0.08,-0.01 -2.84,0.06 -3.22,0.06l4.33 -1.45c-0.2,-0.16 -0.54,-0.59 -0.67,-0.39 -0.13,0.2 -0.49,-0.29 -0.68,-0.36l-23.92 -4 -0.23 23.39z"/>
   <path class="fil25" d="M148.32 136.34l3.31 12.01c-3.68,-1.22 -4.35,-8.28 -8.93,-1.76 0.52,2.5 0.7,2.32 1.44,4.44 -1.66,2.85 -2.25,3.35 -5.05,4.76l2.19 1.83 15.43 -10.72c5.98,-5.18 5.77,-12.72 5.77,-20.81l-7.68 -1.5 -3.05 -0.26c1.42,1.33 0.8,0.49 1.15,2.62l0.1 2.44c0.06,0.87 0.39,3.29 0.14,5.41 3.18,-3.55 -1.48,-2.71 4.4,-2.75l-0.82 -4.12c2.97,0.25 3.92,3.16 3.85,6.59 -8.37,-0.31 -2.48,2.21 -8.89,2.05 -1.16,-0.03 -1.44,-0.05 -3.34,-0.24z"/>
   <path class="fil26" d="M88.37 173.29c3.53,0.88 15.53,0.79 19.67,-0.82 -0.27,-0.12 -0.58,-0.29 -0.82,-0.36l-3.29 -0.47c0.02,-0.23 0.17,-0.51 0.23,-0.65 0.06,-0.13 0.17,-0.45 0.25,-0.6l1.68 -2.25 -4.04 -2.27c0.68,-0.94 1.62,-1.78 1.81,-3.63l-0.25 -1.64c-0.8,-5.15 -0.88,2.83 -0.23,-1.2 0.21,-1.31 2.16,-2.22 3.11,-4.99l5.69 -0.64 0 -1.4c-5.35,0.68 -7.5,-1.18 -12.58,-0.23l-5.96 1.2c1.28,1.21 1.29,0.44 2.5,1.15 -2.61,4.53 0.32,1.52 -3.06,3.12 1.81,4.64 -2.54,-4.31 1.17,1.41 0,0 1.4,0.78 0.77,3.54 -0.06,0.03 -1.47,-1.8 -5.87,3.24 -2.07,2.37 -0.55,-1.09 -1.9,2.88 4.63,0.48 1.05,-0.66 6.13,-1 -0.7,-2.13 -1.15,-2 -0.35,-4.12 1.54,2.3 1.57,3 4.95,3.3 -1.03,0.75 -1.25,0.66 -2.68,1.75 -5.91,4.49 -9.39,0.64 -6.92,4.67z"/>
   <path class="fil27" d="M94.68 102.72c3.77,-0.67 3.75,-0.14 7.41,0.48l-0.11 14.33 -7.13 -1.15 3.29 3.29c-1.86,1.42 -1.63,1.56 -5.16,0.6 -0.46,1.05 -0.86,1.64 -0.43,2.6l3.12 1.74 -2.47 4.12 0.01 9.18c0.57,5.47 0.62,2.28 0.81,2.37 0.02,-3.39 -0.65,-5.74 1.92,-8.12l0.21 -4.37c1.79,0.05 1.48,-0.3 3.36,0.24 5.3,1.53 0.96,-0.12 2.94,1.97 -0.1,-0 -2.6,-0.12 -2.62,-0.12 -2.73,0.29 -0.97,0.11 -1.93,0.5l0.01 1.65 7.27 -0.53c0.09,-0 0.33,0.04 0.41,0.04 0.08,0 0.31,0.04 0.39,0.04 0.07,-0 0.29,0.02 0.37,0.02 3.34,-0.22 -2.7,-0.69 3.02,-0.76 0.16,-1.45 0.78,-2.73 1.4,-4.02 -2.94,-0.09 -2.85,-0.96 -5.77,-2.47 0.99,-1.91 0.12,0.03 1.12,-1.63 0.83,-1.39 0.71,-1.17 1.36,-2.49 -3.23,-1.16 -1.49,-0.77 -2.45,-1.98l0.25 -17.63 -10.43 -1.74c1.51,2.48 0.8,0.15 0.66,1.35l-0.83 2.46z"/>
   <path class="fil24" d="M85.46 30.99l9.97 1.18c-1.72,-4.45 3.26,-5.49 3.57,-5.67 5.4,-3.2 1.2,-5.23 7.39,-4.13 -2.37,-4.63 3.31,-8.63 3.59,-12.38l3.01 0c-1.42,-1.8 -0.46,-1.11 -2.89,-2.14 -2.96,-1.26 -1.95,-0.76 -3.71,-0.33l-2.98 0c0.92,7.49 -7.72,6.71 -7.73,6.71 -4.88,0.64 -3.13,3.15 -3.13,3.14 0.01,-0.1 0.13,0.24 0.13,0.36 -0.94,0.53 -2.12,1.14 -3.52,2.16 1.2,3.02 0.85,2.13 3.65,4.12l-7.36 6.98z"/>
   <path class="fil18" d="M24.32 106.71l-0.4 0.38 7.41 0.78c-1.68,-6.05 -1.83,-1 -3.3,-5.51 3.04,-0.71 3.12,-0.55 5.28,-2.3 0.14,-0.11 0.31,-0.3 0.44,-0.41l2.27 -1.48c0.73,-4.12 -0.67,-2.32 0.38,-4.88l3.17 -0.14 -0.02 14.16 -3.35 0.53c1.05,0.79 -0.03,0.47 1.81,0.85 1.77,0.37 1.01,0.23 2.38,-0.02l0.56 -28.45c-3.4,0.89 -1.59,-0.46 -3.44,1.92 -3.13,4.05 -2.47,0.96 -2.47,3.81 0,4.5 0.17,0.14 0.86,1.74 0.12,0.29 2.45,0.07 -0.08,0.99 -3.84,1.4 0.04,0.2 -3.69,-1.04 -1.69,3.42 -0.13,0.84 -1.89,2.16l-5.22 5.36c-0.06,0.08 -0.2,0.26 -0.26,0.33 -0.49,0.7 -0.42,1.58 -2.27,3.1 -2.71,2.23 -1.95,1.07 -3.74,2.11 2.7,1.66 -0.13,0.96 1.61,3.2l3.92 2.8z"/>
   <path class="fil28" d="M45.13 85.86c1.22,-1.6 1.66,-1.96 1.86,-6.59l0.02 -20.94c1.11,3.15 -0.4,0.8 2.02,1.42 0.13,0.03 0.41,0.05 0.54,0.08 1.86,0.43 0.12,-0.66 1.77,0.47 0.09,8.3 -1.02,16.06 -1.02,24.74 0,8.46 0,16.93 0,25.39 1.7,-1.67 1.34,-0.57 1.25,-8.06l0.5 -28.07c0.33,-5.81 1.11,-31.44 -0.11,-35.42 -2.81,-1.08 -2.86,-1.44 -6.1,-0.48l-0.73 47.46z"/>
   <path class="fil29" d="M117.52 119.88l-0.38 0.07 -5.74 -1.09c-0.75,-4.68 -0.39,-20.36 0.77,-24.89 2.77,-0.3 4.13,-0.32 6.74,0.97 0.64,3.11 -0.31,13.92 -0.29,19.82 0.01,4.06 0.14,4.11 -1.1,5.13zm-12.49 -1.61c0.96,1.21 -0.78,0.82 2.45,1.98 -0.64,1.33 -0.52,1.11 -1.36,2.49 -1,1.65 -0.12,-0.28 -1.12,1.63 2.92,1.52 2.84,2.39 5.77,2.47 -0.62,1.29 -1.24,2.57 -1.4,4.02 1.68,-0.44 0.89,0.61 2.29,-1.24 1.95,-2.57 -2.45,-0.47 2.22,-2.4 1.65,-0.68 4.4,0.69 6.48,-0.96 2.72,-2.16 0.94,2.31 0.72,-1.59 -0.11,-1.91 2.99,-1.49 -2.33,-1.7 0.4,-1.57 -0.36,-0.83 3.3,-0.83 -2.57,-5.03 -1.64,-9.01 -1.64,-14.84 0,-4.76 -0.42,-9.86 0.26,-14.49 -0.8,-1.02 0.02,-0.45 -1.9,-1.14 -0.21,-0.08 -2.54,-0.53 -2.74,-0.56 -2.06,-0.31 -4.2,-0.69 -4.36,-0.78l-2.75 0.63 -0.1 27.23 -3.79 0.07z"/>
   <path class="fil7" d="M85.22 46.58c0.06,0.14 0.19,0.33 0.22,0.41 0.04,0.08 0.18,0.33 0.22,0.44 0.07,0.17 0.35,0.86 0.42,1.06 0.45,1.29 0.31,0.21 0.53,2.09 -3.89,-0.14 -3.39,-1.67 -4.82,-1.08 -2.56,1.06 -0.89,2.52 0.43,3.6 3.04,2.48 4.98,0.81 5.2,7.22 -2.14,3.81 -3.4,2.24 -3.67,5.71 -1.22,1.05 3.11,3.48 -2.93,0.51 -1.17,1.14 -2.87,-2.89 -0.32,2.21 5.52,4.02 13.59,-2.64 15.1,-6.79 1.83,-5.01 0.19,-14.98 -4.9,-16.91l-4.11 -0.9c-1.23,0.91 -0.45,-1.49 -1.38,2.43z"/>
   <path class="fil7" d="M95.43 32.17l1.89 0.48 13.73 1.99c-0.37,-0.39 -1.62,-1.99 -1.65,-2.01l-2.3 -2.02 3.29 -2.21c0.93,-2.16 1.13,0.94 -1.09,-1.75 -3.77,-4.58 1.22,4.16 -1,-1.22l1.37 -0.48c0.15,-0.06 0.47,-0.17 0.65,-0.25 0.17,-0.08 0.43,-0.17 0.6,-0.27 5.07,-2.68 0.46,-1.78 4.57,-4.56 1.61,-1.09 2.85,-0.28 3.46,-5 -2.74,1.08 0.1,-0.16 -2.64,2.59 -2.82,2.82 2.54,-0.53 -0.86,0.79 -0.31,-0.59 -0.21,-0.67 -0.45,-1.56 -0.03,-0.1 -0.1,-0.37 -0.13,-0.47 -0.86,-3.44 -1.71,0.87 0.03,-3.77l2.19 -0c-1.35,-2.03 0.11,-0.95 -1.93,-2.1 -1.78,-1.01 -0.83,-0.5 -2.19,-0.37l-3.01 0c-0.28,3.74 -5.96,7.74 -3.59,12.38 -6.19,-1.09 -1.99,0.93 -7.39,4.13 -0.31,0.18 -5.3,1.22 -3.57,5.67z"/>
   <path class="fil30" d="M45.13 85.86l-0.54 23.7 5.73 0.87c0,-8.46 0,-16.92 0,-25.39 -0,-8.68 1.12,-16.44 1.02,-24.74 -1.64,-1.13 0.09,-0.04 -1.77,-0.47 -0.14,-0.03 -0.41,-0.05 -0.54,-0.08 -2.42,-0.62 -0.91,1.73 -2.02,-1.42l-0.02 20.94c-0.2,4.63 -0.64,4.99 -1.86,6.59z"/>
   <path class="fil31" d="M154.8 124.6l7.68 1.5c6.06,-1.48 5.77,-27.11 5.77,-31.71l-4.4 -1.24c0.6,1.51 0.89,0.55 2.61,3.3 -3.64,0.1 -3.03,-0.51 -4.81,0.97l3.85 4.67c-4.25,1.23 -2.36,-0.6 -4.19,1.93l1.95 0.96c2.15,1.82 1.78,2.32 1.33,3.93 -1.41,5.13 0.17,-0.36 -2.78,2.76 -3.27,3.45 -0.23,1.19 -4.79,3.63l-1.08 0.6c-4.5,2.6 -1.41,0.26 -2.31,2.54 -0.05,0.12 -0.11,0.38 -0.17,0.51 -0.07,0.14 -0.15,0.4 -0.23,0.54 -1.73,3.08 -1.56,0.59 -3.42,3.51 3.32,0.02 3.55,0.29 4.97,1.61z"/>
   <path class="fil32" d="M61.85 166.7c0.93,1.86 -1.47,-0.7 0.91,0.9 0.52,0.35 1.16,0.7 1.99,1.03 2.29,0.92 2.87,0.98 5.34,1.37l0.16 -5.25c0.02,-0.08 0.1,-0.31 0.13,-0.39 0.03,-0.07 0.12,-0.29 0.15,-0.36l3.98 -3.91 -1.56 -1.25c-0.06,-0.07 -0.28,-0.28 -0.32,-0.35 -0.39,-0.69 -1.6,0 0.45,-0.97 1.03,-0.49 1.3,-0.28 2.57,-0.68 0.24,-0.08 0.45,-0.14 0.69,-0.22 0.23,-0.08 0.44,-0.16 0.65,-0.24 5.11,-1.97 -2.39,0.56 1.76,-0.83l-2.11 -1.12c-2.14,-0.65 -0.39,1.05 -2.55,-0.11l1.24 -1.28c3.08,-2.1 6.96,-2.29 10.54,-2.61l-1.95 -0.91c-0.24,-0.08 -0.46,-0.13 -0.71,-0.21l-3.37 -0.87c-0.1,-0.23 -0.4,-0.12 -0.57,-0.23l-6.55 0.54c-3.32,0.53 -2.98,-0.29 -5.7,0.98l-4.28 2.11c2.13,2.02 3.06,1 5.09,1.51 -1.5,4.21 -1.03,6.71 -5.25,4.91 0.45,6.16 -1.53,4.84 -0.73,8.43z"/>
   <path class="fil2" d="M108.04 172.47c3.39,0 2.13,0.27 4.95,-0.82 -1.67,-1.99 2.32,-1.65 -2.47,-1.65 3.56,-1.03 2.29,-4.96 2.36,-7.25 0.05,-1.42 -0.01,-2.05 1.21,-3.38 2.25,-2.45 -1.89,-0.04 1.71,-1.26 0.34,5.06 -2.81,1.51 -1.84,6.07l0.69 1.43c1.99,-1.09 2.14,0.73 2.61,-4.08 0.51,-5.26 -0.57,-1.59 -0.96,-5.4 4.34,0.14 4.65,0.3 8.65,-0.83l-6.5 -1.56c-2.99,-0.39 -3.4,-0.51 -6.26,0.02l-5.69 0.64c-0.95,2.77 -2.9,3.68 -3.11,4.99 -0.65,4.03 -0.57,-3.95 0.23,1.2l0.25 1.64c-0.19,1.85 -1.13,2.69 -1.81,3.63l4.04 2.27 -1.68 2.25c-0.08,0.15 -0.19,0.47 -0.25,0.6 -0.06,0.13 -0.22,0.42 -0.23,0.65l3.29 0.47c0.24,0.07 0.55,0.24 0.82,0.36z"/>
   <path class="fil33" d="M29.66 146.08c0.6,0.79 6.21,5.82 7.33,6.73 2.96,2.4 5.31,4.35 9.2,5.64 -0.23,-4.25 1.88,-0.92 2.4,-7.5 0.22,-2.76 -1.05,-0.3 0.66,-3.22 0.14,-0.07 0.38,-0.3 0.43,-0.17l3.19 -0.82c2.44,-0.3 4.01,-0.09 6.16,0.31 -1.99,-1.48 -3.67,-1.38 -6.6,-1.73 -2.31,-0.27 -4.53,-0.27 -6.02,-1.25l-19.01 -1.53 2.26 3.53z"/>
   <path class="fil13" d="M59.38 26.67l6.01 0.91c-0.56,-0.63 -0.65,-1.52 -1.29,-1.98 4.96,-1.9 0.52,-1.74 4.39,-5.69 3.95,-4.03 -1.31,2.07 1.34,-1.2l4.25 -6.12c0.05,-0.06 0.19,-0.24 0.24,-0.3l2.37 -3.81c2.26,-3.38 1.92,-3.15 7.15,-2.89l-2.51 -2.98c5.67,-0.03 0.54,0.26 2.8,-1.68 -3.42,-1.33 -6.14,-0.82 -10.06,-0.82 0.15,9.8 0.28,-2.85 -3.13,12.54 -2.37,0.62 -1.32,-0.07 -2.97,1.15 -0.4,-2.53 -0.66,-0 2,-3.5 0.12,-0.15 0.38,-0.38 0.47,-0.62 -2.25,0.29 -4.11,-1.03 -3.8,5.93 -2.07,-0.29 -2.88,-0.61 -3.46,-0.49l0.21 3.96c-0.35,0.16 -0.73,0.02 -0.87,0.35 -1.16,2.74 -0.07,0.1 -1.41,0.6l-2.21 0.7c-0.08,5.24 -1.42,1.56 0.49,5.95z"/>
   <path class="fil34" d="M66.78 94.21c-1.67,0.47 -2.17,-0.15 -1.7,-1.77 0.02,-0.01 -0.34,-2.12 1.9,-0.09 1.77,1.61 -0.19,1.85 -0.19,1.86zm15.7 -14.78c2.31,1.24 2.32,0.63 0.82,2.95 -2.2,-1.07 -2.92,0.05 -0.82,-2.95zm8.9 8.46l1.21 -0.82c2.49,-0.01 1.85,1.02 1.44,-1.32l-0.01 -0.91c-6.85,-2.64 -5.64,-2.92 -8.54,-8.16l-5.76 -0.1c-3.51,7 0.75,4.06 -6.8,9.63 -2.38,1.75 -2.51,2.49 -5.19,2.7 -3.4,0.27 -2.32,-0.71 -5.73,1.19 -0.91,7.58 3.21,8.64 6.13,7.3 3.85,-1.76 -0,-3.74 5.61,-7.87 4.33,-3.18 12.12,-8.41 17.63,-1.64z"/>
   <path class="fil35" d="M99.49 56.72l-1.11 8.31c0.05,1.33 0.43,2.29 0.41,2.47l-0.7 1.5c-0.04,0.06 -0.24,0.24 -0.36,0.36 1.08,1.29 0.35,0.64 2.1,1.41 1.59,0.06 0.91,-1.1 0.93,1.68 0.23,-0.19 0.5,-0.83 0.62,-0.65l9.55 -7.46c-0.56,-2.76 -0.87,-2.32 -1.44,-5.02l5.21 -0.43c-0.18,-0.16 -0.45,-0.29 -0.61,-0.37 -0.16,-0.08 -0.43,-0.25 -0.63,-0.34l-4.16 -1.79 -1.09 0.58c-2.5,-2.45 -2.09,-5.41 -1.4,-8.65 -2.08,0.82 -0.87,0.42 -3.11,2.73 -0.91,0.93 -1.18,1.08 -1.97,1.81 1.29,4.02 3.66,3.63 -2.23,3.85z"/>
   <path class="fil24" d="M69.59 57.86c0.45,4.98 5.38,9.72 10.91,10.88 -2.54,-5.1 -0.85,-1.07 0.32,-2.21 6.04,2.97 1.71,0.54 2.93,-0.51 -3.65,-0.34 -4.97,-3.11 -5.59,-6.84l5.72 0.95c0.15,-3.89 0.79,-1.3 -6.53,-7.45 -0.18,-0.23 -0.35,-0.53 -0.49,-0.72 -0.13,-0.18 -0.32,-0.46 -0.48,-0.68l-2.99 -2.8c-1.54,0.57 -2.63,1.21 -3.17,3.42 -0.47,1.91 -0.03,3.36 -0.64,5.97z"/>
   <path class="fil36" d="M55.62 52.76l-0.52 14.96 3.68 -4.71c5.11,-4.72 2.12,-6.37 7.06,-4.37 -1.18,-5.71 0.17,-8.76 -0.13,-12.93 0.07,-0.34 0.57,-3.67 0.67,-4.11 -5.56,0.63 -0.71,-0.5 -4.97,3.44 -5.29,4.89 -4.74,8.61 -5.4,7.14 -0.06,-0.14 -0.24,0.4 -0.4,0.56z"/>
   <path class="fil37" d="M9.9 123.81c1.7,-0.01 1.86,-0.4 2.52,-0.42 2.99,-0.12 -0.67,-0.95 0.92,0.17l1.21 -4.84c0.07,-2.56 0.44,0.19 1.23,-3.69 0.03,-0.17 0.06,-0.43 0.08,-0.6l0.16 -2.31c0.24,-2.96 0.17,-3.77 -1.16,-5.63 -1.5,0.56 -2.19,0.57 -3.3,1.52 -2.01,1.72 -0.76,0.07 -1.65,3.16 -0.7,-2.57 1.5,-0.94 0.82,-6.27l-6.6 -0.77c0,4.11 1.31,7.82 2.37,10.72 0.84,2.28 1.05,2.54 1.75,4.9 0.52,1.77 0.49,3.04 1.66,4.07z"/>
   <path class="fil38" d="M112.99 171.64c3.17,-0.12 11.85,-3.2 13.2,-4.95l-1.52 -0.55c-0.9,-7.31 0.05,0.58 0.52,-3.24 0.02,-0.13 0.04,-0.36 0.05,-0.48 0.01,-0.13 0.02,-0.36 0.03,-0.48 0.37,-3.9 -0.06,-1.78 1.84,-5.35 0.1,-0.18 0.29,-0.31 0.36,-0.7 0.07,-0.41 0.24,-0.48 0.35,-0.61l4.16 0.16 0 -0.57 -7.05 0.45c-4,1.12 -4.31,0.96 -8.65,0.83 0.39,3.81 1.47,0.14 0.96,5.4 -0.47,4.81 -0.63,2.99 -2.61,4.08l-0.69 -1.43c-0.97,-4.56 2.18,-1.01 1.84,-6.07 -3.59,1.21 0.54,-1.2 -1.71,1.26 -1.22,1.33 -1.16,1.96 -1.21,3.38 -0.07,2.29 1.2,6.21 -2.36,7.25 4.79,0 0.8,-0.35 2.47,1.65z"/>
   <path class="fil27" d="M100.38 90.81c-4.52,0.03 -1.48,0.81 -2.64,-1.64 0.32,-0.14 -0.67,-2.11 2.12,-0.2 1.1,0.76 0.34,0.65 0.53,1.84zm15.95 -7.61c-2.05,-0.91 -2.09,-0.61 -1.94,-2.42 0.28,-0.12 0.86,-2.32 2.25,0.36 0.73,1.4 0.09,0.92 -0.31,2.06zm-22.31 2.55c0.41,2.34 1.04,1.31 -1.44,1.32 2.95,4.13 6.28,12.41 11.14,3.65 1.49,-2.69 1.32,-2.26 4.82,-3.24 3.88,-4.14 5.04,-0.63 10.52,-2.12 1.92,-4.83 0.07,-4.54 -1.13,-7.82 -6.04,-0.58 -4.56,-0.84 -6.76,3.22 -3.43,6.34 -12.59,4.87 -17.15,5.01z"/>
   <path class="fil39" d="M136.69 132.63l1.99 1.81c3.67,4.07 1.83,7.36 0.79,10.44l1.35 0.56c0.17,-0.17 0.45,-0.66 0.52,-0.51l1.47 -2.18c1.56,-3.37 1.05,-5.79 4,-8.12l1.52 1.71c1.91,0.19 2.19,0.21 3.34,0.24 6.41,0.16 0.51,-2.36 8.89,-2.05 0.07,-3.43 -0.87,-6.34 -3.85,-6.59l0.82 4.12c-5.88,0.04 -1.22,-0.8 -4.4,2.75 0.26,-2.12 -0.07,-4.54 -0.14,-5.41l-0.1 -2.44c-0.35,-2.13 0.27,-1.3 -1.15,-2.62l-3 -0.1c-0.98,3.82 0.21,1.54 1.5,5.63 -2.24,0.1 -3.05,-0.24 -4.4,0.47l-1.72 1.62c-2.03,1.57 -2.64,1.44 -7.44,0.67z"/>
   <path class="fil40" d="M97.81 47.68l1.68 9.04c5.9,-0.21 3.52,0.17 2.23,-3.85 0.79,-0.73 1.06,-0.87 1.97,-1.81 2.25,-2.3 1.03,-1.91 3.11,-2.73 -0.69,3.24 -1.1,6.2 1.4,8.65l-0.47 -19.66 -5.31 0.1 -2.07 0.59c0.96,2.75 0.25,1.56 2.81,2.47 -3.28,1.92 -4.25,2.7 -2.25,4.13 -2.43,-0.82 -3.52,-0 -3.52,0 0.03,0.27 0.18,2.41 0.41,3.05z"/>
   <path class="fil29" d="M99.6 150.81l0 1.34c5.08,-0.96 7.23,0.91 12.58,0.23 3.67,-0.91 6.17,-0.21 8.8,-0.53 -1.51,-4.75 -1.48,-1.19 -2.11,-3.31 -0.15,-0.51 -0.57,-0.41 -0.94,-0.66l-1.65 3.15c-0.46,-2.12 1.22,0.72 3.3,-4.95l-3.61 -2.67 -6.22 -1.27c0.12,-3.48 -0.34,-1.01 1.59,-1.75 -4.52,-1.98 -5.63,1.43 -6.6,-1.74 0.21,0.18 0.25,0.3 0.33,0.41l1.67 2.26c0.08,-0.16 0.31,0.43 0.47,0.63 -0.24,0.2 -0.58,0.46 -0.74,0.57l-0.91 0.26c0.17,6.78 -0.14,-0.77 1.34,3.93 1.67,5.31 -3.47,3.12 -7.3,4.1z"/>
   <polygon class="fil35" points="79.18,114.64 84.12,114.98 85.81,114.98 85.61,93.74 79.32,93.46 "/>
   <path class="fil41" d="M117.14 119.95l0.38 -0.07 0.67 -24.8 -5.19 -0.42 -1.34 23.36c1.15,0.31 2.16,0.3 2.97,0.55l1.98 0.91c0.15,0.09 0.36,0.31 0.53,0.47z"/>
   <path class="fil42" d="M84.12 37.32c1.01,0.86 5.05,1.91 7.48,3.96 2.26,1.91 3.79,4.52 6.21,6.41 -0.23,-0.64 -0.38,-2.78 -0.41,-3.05 0,-0 1.09,-0.82 3.52,0 -2,-1.43 -1.03,-2.21 2.25,-4.13 -2.57,-0.91 -1.86,0.27 -2.81,-2.47l2.07 -0.59c-1.54,-1.19 -3.57,-1.34 -5.48,-1.61l-3.55 -0.66c-0.18,-0.05 -0.47,-0.18 -0.61,-0.23 -0.14,-0.05 -0.46,-0.03 -0.56,-0.27 -0.09,-0.24 -0.37,-0.17 -0.53,-0.29 -4.66,0.4 -6.73,-1.28 -10.56,-0.26l-4.33 1.45c0.38,0 3.14,-0.08 3.22,-0.06 2.03,0.38 -0.43,-0.35 1.63,0.41 2.54,0.94 0.61,-0.44 2.48,1.4z"/>
   <path class="fil43" d="M91.69 34.37c0.16,0.12 0.44,0.06 0.53,0.29 0.09,0.24 0.42,0.23 0.56,0.27 0.14,0.05 0.43,0.18 0.61,0.23l3.55 0.66c1.91,0.28 3.94,0.42 5.48,1.61l5.31 -0.1 0.47 19.66 1.09 -0.58 6.17 -0.26c-7.57,0.01 -1.76,0.22 -4.12,-1.62l-0.31 -13.28 1.07 -0.85c1.42,-1.84 0.97,1.19 0.47,-2.19 -0.45,-3.07 -0.17,-1.15 -1.53,-3.56l-13.73 -1.99c-1.3,1.62 0.48,0.48 -2.37,1.25 -0.54,0.15 -2.01,0.19 -3.25,0.47z"/>
   <path class="fil18" d="M69.59 57.86c0.61,-2.61 0.18,-4.06 0.64,-5.97 0.54,-2.21 1.63,-2.84 3.17,-3.42l2.99 2.8c0.16,0.21 0.35,0.49 0.48,0.68 0.14,0.19 0.31,0.49 0.49,0.72 -0.04,-3.7 0.96,-6.03 5.12,-8.8l2.28 2.13c0.12,0.13 0.3,0.4 0.47,0.59 0.93,-3.92 0.15,-1.53 1.38,-2.43l4.11 0.9c-5.86,-8.27 -22.47,-5.64 -22.44,7.85 0.01,3.71 0.77,3.87 0.99,4.39 0.06,0.15 0.2,0.4 0.33,0.58z"/>
   <path class="fil44" d="M126.19 166.7c3.43,-0.62 4.61,-1.68 8.41,-3.96 3.67,-2.2 5.24,-2.34 6.68,-5.11l-2.19 -1.83 -7.1 -0.36 -4.16 -0.16c-0.11,0.13 -0.28,0.21 -0.35,0.61 -0.07,0.4 -0.27,0.52 -0.36,0.7 -1.91,3.57 -1.48,1.45 -1.84,5.35 -0.01,0.13 -0.02,0.36 -0.03,0.48 -0.01,0.13 -0.04,0.35 -0.05,0.48 -0.47,3.82 -1.42,-4.06 -0.52,3.24l1.52 0.55z"/>
   <path class="fil0" d="M77.36 52.67c7.32,6.15 6.68,3.57 6.53,7.45l-5.72 -0.95c0.63,3.74 1.95,6.5 5.59,6.84 0.27,-3.47 1.53,-1.9 3.67,-5.71 -0.22,-6.41 -2.16,-4.74 -5.2,-7.22 -1.33,-1.08 -2.99,-2.54 -0.43,-3.6 1.44,-0.59 0.93,0.94 4.82,1.08 -0.22,-1.87 -0.08,-0.8 -0.53,-2.09 -0.07,-0.2 -0.35,-0.88 -0.42,-1.06 -0.04,-0.1 -0.18,-0.36 -0.22,-0.44 -0.03,-0.08 -0.17,-0.26 -0.22,-0.41 -0.17,-0.19 -0.35,-0.45 -0.47,-0.59l-2.28 -2.13c-4.16,2.77 -5.16,5.1 -5.12,8.8z"/>
   <path class="fil45" d="M86.91 72.24c1.07,1.34 1.27,0.1 -0.31,2.07l-5.6 0.28c4.77,1.1 3.21,0.75 4.47,2.09 2.9,5.24 1.69,5.52 8.54,8.16 -1.21,-4.71 1.17,-3.65 -2.5,-6.26 -1.97,-1.4 -0.43,1.91 -2.18,-1.78 3.03,-1.72 -3.42,0.93 1.21,-0.13l1.87 -0.67c3.07,-1.57 -1.07,-1.5 4.04,-0.89 -1.75,-2.5 -1.19,-1.56 -0.78,-2.39 2.58,1.04 6.15,0.97 4.16,-1.93 -1.75,-0.77 -1.02,-0.12 -2.1,-1.41 0.11,-0.12 0.31,-0.3 0.36,-0.36l0.7 -1.5c0.01,-0.18 -0.36,-1.14 -0.41,-2.47l-2.68 2.74c-0.81,0.86 -1.6,1.67 -2.6,2.35 -2.13,1.46 -3.48,2.1 -6.19,2.11z"/>
   <path class="fil27" d="M111.04 41.25c3.23,1.4 5.25,4.64 7.63,7.61 1.8,2.25 5.03,5.44 5.45,7.54l-12.78 -1.87c2.35,1.84 -3.46,1.63 4.12,1.62l-6.17 0.26 4.16 1.79c0.2,0.09 0.47,0.26 0.63,0.34 0.16,0.08 0.43,0.21 0.61,0.37l5.61 -0.53c2.98,-0.73 1.49,-0.42 5.13,-0.01l2.4 0.27 -0.29 -2.65c-0.42,-1.63 0.37,0.14 -0.67,-1.43 -0.01,-0.02 -0.89,-1.11 -1.04,-1.33 -1.37,-1.92 -0.99,-1.02 -1.57,-3.12 -2.74,-1.58 -4.98,-4.34 -6.06,-6.9 -1.12,-0.88 -0.45,-0.31 -1.47,-1.4 -0.08,-0.08 -1,-1.22 -1.18,-1.41 -1.44,-1.52 -0.96,-1.16 -2.99,-2.19 0.5,3.38 0.95,0.35 -0.47,2.19l-1.07 0.85z"/>
   <path class="fil20" d="M80.47 139.04l4.48 2.08c-1.89,0.29 -2.34,1.44 -3.29,2.47l-4.95 -3.3c0,8.33 -3.88,2.86 -0.01,6.51l-3.97 0.57 0 1.39 6.55 -0.54c2.58,-0.63 1.92,-0.17 4.07,-0.42l4.01 -0.9c-1.25,-1.09 -0.42,-0.49 -1.64,-2.21 -2.02,-2.84 1.68,-0.14 -1.58,-1.92 3.65,2.33 4.81,-2.87 2.8,-6.4 -0.62,-2.67 -1.04,-3.08 -3.99,-4.88l0.13 7.1 -2.6 0.45z"/>
   <path class="fil46" d="M111.35 54.53l12.78 1.87c-0.42,-2.1 -3.65,-5.29 -5.45,-7.54 -2.38,-2.97 -4.4,-6.21 -7.63,-7.61l0.31 13.28z"/>
   <path class="fil24" d="M31.34 107.87l4.89 -0.02 3.35 -0.53 0.02 -14.16 -3.17 0.14c-1.05,2.56 0.34,0.76 -0.38,4.88l-2.27 1.48c-0.14,0.11 -0.3,0.3 -0.44,0.41 -2.17,1.76 -2.24,1.6 -5.28,2.3 1.47,4.5 1.61,-0.54 3.3,5.51z"/>
   <path class="fil47" d="M94.85 116.39l7.13 1.15 0.11 -14.33c-3.65,-0.63 -3.63,-1.15 -7.41,-0.48 1.17,3.32 1.07,10.1 0.17,13.67z"/>
   <path class="fil48" d="M80.47 139.04l2.6 -0.45 -0.13 -7.1c2.95,1.8 3.36,2.21 3.99,4.88 0.18,0.13 0.46,0.1 0.54,0.39l1.83 1.7c1.34,1.28 0.25,0.73 2.16,1.65l0.44 -13.61c-3.61,1.85 -1.25,-1.12 -2.15,8.69 -2.04,-2.26 -5.28,-7.73 -8.31,-8.93l-0.97 12.78z"/>
   <path class="fil49" d="M133.18 143.8c-1.03,-2.68 -0.47,-6.23 -0.28,-9.29 3.59,0.38 5.43,1.11 5.56,5.03 0.12,3.55 -1.94,4.84 -5.28,4.26zm6.29 1.07c1.05,-3.08 2.88,-6.37 -0.79,-10.44l-1.99 -1.81 -5.93 0 0.15 12.62c1.85,0.67 2.78,0.8 5.08,0.54l3.47 -0.92z"/>
   <path class="fil17" d="M58.74 134.41c-6.61,-0.69 -6.66,-5.79 -2.94,-10.68 3.3,0.61 5.02,1.37 5.02,5.03 0,3.03 -0.43,3.66 -2.09,5.65zm3.96 -1.25c0.59,-4.48 -0.07,-6.64 -1.34,-9.69 -16.03,-6.2 -11.13,20.95 1.34,9.69z"/>
   <path class="fil13" d="M43.22 122.4c2.69,0.52 2.51,0.41 3.38,3.06 -1.26,1.87 -0.74,1.91 -3.47,2.09l0.08 -5.15zm-1.15 11.33l1.43 -3.74c0.05,-0.15 0.12,-0.44 0.22,-0.64 3.81,2.57 1.32,4.25 6.03,5.32 -1.17,-2.72 -1.8,-3.37 -3.14,-5.36 4.5,-5.23 2.05,-8.19 -5.58,-8.64l-0.22 10.59c0.4,2.29 0.08,1.23 1.25,2.48z"/>
   <path class="fil50" d="M131.99 154.86l0 0.57 7.1 0.36c2.8,-1.41 3.39,-1.92 5.05,-4.76 -0.74,-2.12 -0.91,-1.94 -1.44,-4.44l-0.84 -0.04c-3.13,2.69 1.69,0.02 -1.33,0.38 -0.27,0.03 -3.12,0.22 -5.11,1.62 0.03,2.97 1.04,3.91 1.02,5.7l-4.46 0.61z"/>
   <path class="fil0" d="M58.74 134.41c1.65,-2 2.09,-2.62 2.09,-5.65 0,-3.65 -1.73,-4.42 -5.02,-5.03 -3.72,4.89 -3.67,9.99 2.94,10.68z"/>
   <path class="fil51" d="M117.14 119.95c-0.17,-0.16 -0.38,-0.38 -0.53,-0.47l-1.98 -0.91c-0.81,-0.25 -1.83,-0.24 -2.97,-0.55l1.34 -23.36 5.19 0.42 -0.67 24.8c1.23,-1.02 1.11,-1.07 1.1,-5.13 -0.02,-5.89 0.92,-16.71 0.29,-19.82 -2.6,-1.29 -3.96,-1.27 -6.74,-0.97 -1.15,4.53 -1.51,20.2 -0.77,24.89l5.74 1.09z"/>
   <path class="fil5" d="M34.28 127.61c-4.13,0.02 -3.77,-1.27 -1.06,-4.29l1.06 4.29zm-7.42 4.24l2.39 -0.07 1.21 -2.8 4.21 0.51c2.62,4.01 -0.22,2.45 3.67,3.49l-4.17 -13.06 -2.5 -0.48c-0.43,4.41 -3.07,8.53 -4.8,12.41z"/>
   <path class="fil49" d="M146.81 139.02c2.44,4.88 0.48,2.63 -0.83,3.29 -0.79,-1.7 -1.52,1.94 -0.32,-2.15 0.7,-2.39 0.35,-0.48 1.14,-1.13zm-6 6.42l1.05 1.11 0.84 0.04c4.58,-6.51 5.25,0.54 8.93,1.76l-3.31 -12.01 -1.52 -1.71c-2.95,2.33 -2.45,4.75 -4,8.12l-1.47 2.18c-0.07,-0.15 -0.35,0.34 -0.52,0.51z"/>
   <path class="fil11" d="M26.49 129.58c-2.55,-1.25 -7.3,1.8 -8.37,-4.21 -1.48,-8.29 4.35,-5.23 8.22,-4.87 -2.04,-6.07 -10,-2.59 -10.65,2.62 -0.78,6.21 4.98,9.34 8.98,8.09 3.61,-1.13 0.76,0.02 1.82,-1.63z"/>
   <path class="fil49" d="M122.91 135.33c0.19,0.29 0.93,1.15 1.15,2.07 1.04,4.35 0.34,0.63 -0.34,2.26 -3.14,-1.71 -2.48,-1.11 -0.8,-4.33zm-4.15 8.5c1.54,-1.23 0.47,-0.43 1.23,-1.34l1.27 -1.78c8.47,1.49 1.38,3.77 7.16,4.04l-4.7 -13.41c-2.34,1.34 -2.57,3.79 -3.63,6.17 -3.96,8.87 -1.76,5.38 -1.32,6.33z"/>
   <path class="fil52" d="M95.93 132.18c-0.08,5.04 -1.23,9.7 3.78,9.42 4.15,-0.23 1.5,-0.39 2.28,-1.3 -4.71,-2.2 -3.36,1.99 -4.18,-3.3 1.16,-1.96 0.02,-0.5 1.91,-1.58 1.16,-0.67 0.66,1.03 1.26,-0.57 0.11,-0.29 0.43,-0.19 0.62,-0.32 -2.02,-1.24 -1.59,-0.32 -3.7,-2.47l-0.01 -1.65c0.96,-0.39 -0.8,-0.21 1.93,-0.5 0.02,-0 2.53,0.11 2.62,0.12 -1.98,-2.09 2.35,-0.44 -2.94,-1.97 -1.88,-0.54 -1.57,-0.19 -3.36,-0.24l-0.21 4.37z"/>
   <path class="fil50" d="M133.18 143.8c3.34,0.59 5.4,-0.71 5.28,-4.26 -0.14,-3.92 -1.97,-4.65 -5.56,-5.03 -0.18,3.06 -0.74,6.61 0.28,9.29z"/>
   <polygon class="fil53" points="69.35,113.51 69.44,106.02 62.56,105.9 62.4,111.44 "/>
   <path class="fil54" d="M109.38 130.87c0.97,9.36 4.63,2.76 5.44,10.56 -5.73,-0.11 -3.01,-0.28 -3.48,-1.04 -1.92,0.74 -1.46,-1.73 -1.59,1.75l6.22 1.27 0.72 -4.75c-2.12,-2.77 -4.29,-3.46 -5.05,-6.46 4.02,-2.35 1.47,1.59 4.82,-1.31l-4.79 -1.25c-1.4,1.84 -0.61,0.79 -2.29,1.24z"/>
   <path class="fil18" d="M66.81 123.85c-0.34,0.57 -0.45,0.25 -0.71,1.66l-0.07 11.56c2.66,0.26 4.9,0.7 6.54,-0.06 -1.8,-1.66 -1.13,-0.99 -4.61,-1.87 -0.12,-3.62 0.77,-8.75 -1.15,-11.28z"/>
   <path class="fil55" d="M77.22 132.88l0.01 -7.45 -2.5 0.07c0.96,3.18 0.63,4.03 0.44,7.41 -0.34,6.23 0.07,4.29 1.89,5.05l0.15 -5.08z"/>
   <path class="fil56" d="M60.04 101.88c-1.93,2.04 -1.13,1.71 -1.24,4.59 -0.12,3.14 0.26,2.48 -1.06,4.73 -4.14,-0.96 -1.99,0.95 -2.73,-2.14 -0.32,-1.35 1.53,-6.97 0.5,-11.79l-1.18 6.74c-0.18,3.16 -0.55,4.11 0.28,7.18l4.78 0.53 0.65 -9.84z"/>
   <path class="fil57" d="M43.13 127.55c2.73,-0.18 2.2,-0.22 3.47,-2.09 -0.87,-2.64 -0.7,-2.53 -3.38,-3.06l-0.08 5.15z"/>
   <path class="fil58" d="M34.28 127.61l-1.06 -4.29c-2.71,3.02 -3.08,4.3 1.06,4.29z"/>
   <path class="fil59" d="M123.71 139.66c0.68,-1.63 1.38,2.08 0.34,-2.26 -0.22,-0.91 -0.96,-1.77 -1.15,-2.07 -1.68,3.23 -2.33,2.62 0.8,4.33z"/>
   <path class="fil60" d="M145.98 142.31c1.3,-0.66 3.26,1.59 0.83,-3.29 -0.79,0.66 -0.44,-1.26 -1.14,1.13 -1.2,4.09 -0.47,0.45 0.32,2.15z"/>
   <path class="fil61" d="M114.4 80.78c-0.16,1.81 -0.11,1.51 1.94,2.42 0.4,-1.14 1.04,-0.66 0.31,-2.06 -1.38,-2.67 -1.97,-0.48 -2.25,-0.36z"/>
   <path class="fil62" d="M65.08 92.44c-0.47,1.62 0.04,2.24 1.7,1.77 0,-0 1.96,-0.24 0.19,-1.86 -2.23,-2.03 -1.88,0.08 -1.9,0.09z"/>
   <path class="fil48" d="M97.74 89.17c1.16,2.45 -1.87,1.67 2.64,1.64 -0.19,-1.2 0.57,-1.09 -0.53,-1.84 -2.79,-1.91 -1.79,0.07 -2.12,0.2z"/>
   <path class="fil28" d="M83.3 82.38c1.49,-2.32 1.49,-1.71 -0.82,-2.95 -2.09,3 -1.38,1.88 0.82,2.95z"/>
  </g>
 </g>
</svg>
